ISO-10303-21;
HEADER;
/* Generated by software containing ST-Developer
 * from STEP Tools, Inc. (www.steptools.com) 
 */
/* OPTION: using custom renumber hook */

FILE_DESCRIPTION(
/* description */ ('STEP AP242 Edition 2',
'CAx-IF Rec.Pracs.---Representation and Presentation of Product Manufa
cturing Information (PMI)---4.0---2014-10-13',
'CAx-IF Rec.Pracs.---3D Tessellated Geometry---0.4---2014-09-14','2;1',
'CAx-IF Rec.Pracs.---User Defined Attributes---1.5---2016-08-15'),
/* implementation_level */ '2;1');

FILE_NAME(
/* name */ 'droop4 - flexture',
/* time_stamp */ '2026-07-21T01:11:57Z',
/* author */ (''),
/* organization */ (''),
/* preprocessor_version */ 'ST-DEVELOPER v20',
/* originating_system */ 'ONSHAPE BY PTC INC, 1.218',
/* authorisation */ '  ');

FILE_SCHEMA (('AP242_MANAGED_MODEL_BASED_3D_ENGINEERING_MIM_LF { 1 0 10303 442 3 1 4 }'));
ENDSEC;

DATA;
#10=SHAPE_REPRESENTATION_RELATIONSHIP('','',#735,#11);
#11=ADVANCED_BREP_SHAPE_REPRESENTATION('',(#733),#1293);
#12=CONICAL_SURFACE('',#828,0.003,0.785398163397449);
#13=CONICAL_SURFACE('',#829,0.0026,0.785398163397449);
#14=CONICAL_SURFACE('',#830,0.0026,0.78539816339745);
#15=CONICAL_SURFACE('',#831,0.0155,0.78539816339745);
#16=B_SPLINE_CURVE_WITH_KNOTS('',3,(#1233,#1234,#1235,#1236),
 .UNSPECIFIED.,.F.,.F.,(4,4),(0.,0.000758847130588054),.UNSPECIFIED.);
#17=B_SPLINE_CURVE_WITH_KNOTS('',3,(#1240,#1241,#1242,#1243),
 .UNSPECIFIED.,.F.,.F.,(4,4),(0.,0.000758847130588084),.UNSPECIFIED.);
#18=B_SPLINE_CURVE_WITH_KNOTS('',3,(#1253,#1254,#1255,#1256),
 .UNSPECIFIED.,.F.,.F.,(4,4),(2.48526005016791E-17,0.000758847130588093),
 .UNSPECIFIED.);
#19=B_SPLINE_CURVE_WITH_KNOTS('',3,(#1260,#1261,#1262,#1263),
 .UNSPECIFIED.,.F.,.F.,(4,4),(0.,0.000758847130588107),.UNSPECIFIED.);
#20=B_SPLINE_CURVE_WITH_KNOTS('',3,(#1271,#1272,#1273,#1274),
 .UNSPECIFIED.,.F.,.F.,(4,4),(8.36734387574548E-18,0.000758847130588077),
 .UNSPECIFIED.);
#21=B_SPLINE_CURVE_WITH_KNOTS('',3,(#1278,#1279,#1280,#1281),
 .UNSPECIFIED.,.F.,.F.,(4,4),(7.152448122691E-18,0.000758847130588074),
 .UNSPECIFIED.);
#22=CYLINDRICAL_SURFACE('',#754,0.0205);
#23=CYLINDRICAL_SURFACE('',#760,0.0026);
#24=CYLINDRICAL_SURFACE('',#763,0.0269970383680858);
#25=CYLINDRICAL_SURFACE('',#768,0.0269970383680858);
#26=CYLINDRICAL_SURFACE('',#772,0.0026);
#27=CYLINDRICAL_SURFACE('',#775,0.0269970383680858);
#28=CYLINDRICAL_SURFACE('',#778,0.0026);
#29=CYLINDRICAL_SURFACE('',#781,0.0269970383680858);
#30=CYLINDRICAL_SURFACE('',#787,0.0026);
#31=CYLINDRICAL_SURFACE('',#790,0.0008);
#32=CYLINDRICAL_SURFACE('',#793,0.0008);
#33=CYLINDRICAL_SURFACE('',#796,0.0008);
#34=CYLINDRICAL_SURFACE('',#799,0.03175);
#35=CYLINDRICAL_SURFACE('',#802,0.0155);
#36=CYLINDRICAL_SURFACE('',#807,0.0008);
#37=CYLINDRICAL_SURFACE('',#812,0.019);
#38=CYLINDRICAL_SURFACE('',#814,0.003);
#39=CYLINDRICAL_SURFACE('',#816,0.019);
#40=CYLINDRICAL_SURFACE('',#818,0.003);
#41=CYLINDRICAL_SURFACE('',#820,0.019);
#42=CYLINDRICAL_SURFACE('',#822,0.003);
#43=LINE('',#1067,#81);
#44=LINE('',#1071,#82);
#45=LINE('',#1076,#83);
#46=LINE('',#1080,#84);
#47=LINE('',#1085,#85);
#48=LINE('',#1089,#86);
#49=LINE('',#1106,#87);
#50=LINE('',#1108,#88);
#51=LINE('',#1112,#89);
#52=LINE('',#1113,#90);
#53=LINE('',#1117,#91);
#54=LINE('',#1118,#92);
#55=LINE('',#1124,#93);
#56=LINE('',#1126,#94);
#57=LINE('',#1128,#95);
#58=LINE('',#1133,#96);
#59=LINE('',#1137,#97);
#60=LINE('',#1139,#98);
#61=LINE('',#1143,#99);
#62=LINE('',#1148,#100);
#63=LINE('',#1150,#101);
#64=LINE('',#1152,#102);
#65=LINE('',#1157,#103);
#66=LINE('',#1161,#104);
#67=LINE('',#1164,#105);
#68=LINE('',#1170,#106);
#69=LINE('',#1176,#107);
#70=LINE('',#1182,#108);
#71=LINE('',#1188,#109);
#72=LINE('',#1190,#110);
#73=LINE('',#1220,#111);
#74=LINE('',#1222,#112);
#75=LINE('',#1231,#113);
#76=LINE('',#1245,#114);
#77=LINE('',#1247,#115);
#78=LINE('',#1251,#116);
#79=LINE('',#1265,#117);
#80=LINE('',#1269,#118);
#81=VECTOR('',#838,1.);
#82=VECTOR('',#841,1.);
#83=VECTOR('',#846,1.);
#84=VECTOR('',#849,1.);
#85=VECTOR('',#854,1.);
#86=VECTOR('',#857,1.);
#87=VECTOR('',#876,1.);
#88=VECTOR('',#877,1.);
#89=VECTOR('',#880,1.);
#90=VECTOR('',#881,1.);
#91=VECTOR('',#884,1.);
#92=VECTOR('',#885,1.);
#93=VECTOR('',#892,1.);
#94=VECTOR('',#893,1.);
#95=VECTOR('',#896,1.);
#96=VECTOR('',#899,1.);
#97=VECTOR('',#904,1.);
#98=VECTOR('',#905,1.);
#99=VECTOR('',#908,1.);
#100=VECTOR('',#915,1.);
#101=VECTOR('',#916,1.);
#102=VECTOR('',#919,1.);
#103=VECTOR('',#922,1.);
#104=VECTOR('',#925,1.);
#105=VECTOR('',#930,1.);
#106=VECTOR('',#937,1.);
#107=VECTOR('',#944,1.);
#108=VECTOR('',#951,1.);
#109=VECTOR('',#960,1.);
#110=VECTOR('',#963,1.);
#111=VECTOR('',#1002,1.);
#112=VECTOR('',#1005,1.);
#113=VECTOR('',#1018,1.);
#114=VECTOR('',#1021,1.);
#115=VECTOR('',#1024,1.);
#116=VECTOR('',#1029,1.);
#117=VECTOR('',#1034,1.);
#118=VECTOR('',#1039,1.);
#119=ORIENTED_EDGE('',*,*,#321,.F.);
#120=ORIENTED_EDGE('',*,*,#322,.T.);
#121=ORIENTED_EDGE('',*,*,#323,.T.);
#122=ORIENTED_EDGE('',*,*,#324,.F.);
#123=ORIENTED_EDGE('',*,*,#325,.F.);
#124=ORIENTED_EDGE('',*,*,#326,.T.);
#125=ORIENTED_EDGE('',*,*,#327,.T.);
#126=ORIENTED_EDGE('',*,*,#328,.F.);
#127=ORIENTED_EDGE('',*,*,#329,.F.);
#128=ORIENTED_EDGE('',*,*,#330,.T.);
#129=ORIENTED_EDGE('',*,*,#331,.T.);
#130=ORIENTED_EDGE('',*,*,#332,.F.);
#131=ORIENTED_EDGE('',*,*,#333,.T.);
#132=ORIENTED_EDGE('',*,*,#334,.T.);
#133=ORIENTED_EDGE('',*,*,#335,.F.);
#134=ORIENTED_EDGE('',*,*,#336,.T.);
#135=ORIENTED_EDGE('',*,*,#337,.T.);
#136=ORIENTED_EDGE('',*,*,#338,.T.);
#137=ORIENTED_EDGE('',*,*,#339,.F.);
#138=ORIENTED_EDGE('',*,*,#340,.T.);
#139=ORIENTED_EDGE('',*,*,#321,.T.);
#140=ORIENTED_EDGE('',*,*,#341,.F.);
#141=ORIENTED_EDGE('',*,*,#342,.T.);
#142=ORIENTED_EDGE('',*,*,#343,.T.);
#143=ORIENTED_EDGE('',*,*,#325,.T.);
#144=ORIENTED_EDGE('',*,*,#344,.F.);
#145=ORIENTED_EDGE('',*,*,#345,.T.);
#146=ORIENTED_EDGE('',*,*,#346,.T.);
#147=ORIENTED_EDGE('',*,*,#329,.T.);
#148=ORIENTED_EDGE('',*,*,#347,.F.);
#149=ORIENTED_EDGE('',*,*,#348,.T.);
#150=ORIENTED_EDGE('',*,*,#349,.F.);
#151=ORIENTED_EDGE('',*,*,#322,.F.);
#152=ORIENTED_EDGE('',*,*,#340,.F.);
#153=ORIENTED_EDGE('',*,*,#350,.T.);
#154=ORIENTED_EDGE('',*,*,#351,.T.);
#155=ORIENTED_EDGE('',*,*,#352,.T.);
#156=ORIENTED_EDGE('',*,*,#353,.F.);
#157=ORIENTED_EDGE('',*,*,#354,.F.);
#158=ORIENTED_EDGE('',*,*,#355,.T.);
#159=ORIENTED_EDGE('',*,*,#356,.T.);
#160=ORIENTED_EDGE('',*,*,#331,.F.);
#161=ORIENTED_EDGE('',*,*,#357,.F.);
#162=ORIENTED_EDGE('',*,*,#358,.F.);
#163=ORIENTED_EDGE('',*,*,#359,.T.);
#164=ORIENTED_EDGE('',*,*,#360,.T.);
#165=ORIENTED_EDGE('',*,*,#352,.F.);
#166=ORIENTED_EDGE('',*,*,#361,.F.);
#167=ORIENTED_EDGE('',*,*,#326,.F.);
#168=ORIENTED_EDGE('',*,*,#343,.F.);
#169=ORIENTED_EDGE('',*,*,#362,.T.);
#170=ORIENTED_EDGE('',*,*,#363,.T.);
#171=ORIENTED_EDGE('',*,*,#364,.T.);
#172=ORIENTED_EDGE('',*,*,#365,.T.);
#173=ORIENTED_EDGE('',*,*,#366,.F.);
#174=ORIENTED_EDGE('',*,*,#367,.F.);
#175=ORIENTED_EDGE('',*,*,#368,.T.);
#176=ORIENTED_EDGE('',*,*,#327,.F.);
#177=ORIENTED_EDGE('',*,*,#363,.F.);
#178=ORIENTED_EDGE('',*,*,#369,.F.);
#179=ORIENTED_EDGE('',*,*,#370,.T.);
#180=ORIENTED_EDGE('',*,*,#371,.F.);
#181=ORIENTED_EDGE('',*,*,#364,.F.);
#182=ORIENTED_EDGE('',*,*,#372,.T.);
#183=ORIENTED_EDGE('',*,*,#373,.T.);
#184=ORIENTED_EDGE('',*,*,#374,.T.);
#185=ORIENTED_EDGE('',*,*,#370,.F.);
#186=ORIENTED_EDGE('',*,*,#375,.F.);
#187=ORIENTED_EDGE('',*,*,#376,.T.);
#188=ORIENTED_EDGE('',*,*,#377,.T.);
#189=ORIENTED_EDGE('',*,*,#373,.F.);
#190=ORIENTED_EDGE('',*,*,#378,.F.);
#191=ORIENTED_EDGE('',*,*,#379,.T.);
#192=ORIENTED_EDGE('',*,*,#323,.F.);
#193=ORIENTED_EDGE('',*,*,#351,.F.);
#194=ORIENTED_EDGE('',*,*,#380,.F.);
#195=ORIENTED_EDGE('',*,*,#354,.T.);
#196=ORIENTED_EDGE('',*,*,#381,.T.);
#197=ORIENTED_EDGE('',*,*,#376,.F.);
#198=ORIENTED_EDGE('',*,*,#382,.F.);
#199=ORIENTED_EDGE('',*,*,#328,.T.);
#200=ORIENTED_EDGE('',*,*,#368,.F.);
#201=ORIENTED_EDGE('',*,*,#383,.F.);
#202=ORIENTED_EDGE('',*,*,#344,.T.);
#203=ORIENTED_EDGE('',*,*,#330,.F.);
#204=ORIENTED_EDGE('',*,*,#346,.F.);
#205=ORIENTED_EDGE('',*,*,#384,.T.);
#206=ORIENTED_EDGE('',*,*,#357,.T.);
#207=ORIENTED_EDGE('',*,*,#366,.T.);
#208=ORIENTED_EDGE('',*,*,#385,.T.);
#209=ORIENTED_EDGE('',*,*,#359,.F.);
#210=ORIENTED_EDGE('',*,*,#386,.F.);
#211=ORIENTED_EDGE('',*,*,#387,.T.);
#212=ORIENTED_EDGE('',*,*,#388,.F.);
#213=ORIENTED_EDGE('',*,*,#389,.F.);
#214=ORIENTED_EDGE('',*,*,#390,.T.);
#215=ORIENTED_EDGE('',*,*,#391,.T.);
#216=ORIENTED_EDGE('',*,*,#392,.F.);
#217=ORIENTED_EDGE('',*,*,#393,.T.);
#218=ORIENTED_EDGE('',*,*,#394,.F.);
#219=ORIENTED_EDGE('',*,*,#395,.T.);
#220=ORIENTED_EDGE('',*,*,#396,.F.);
#221=ORIENTED_EDGE('',*,*,#332,.T.);
#222=ORIENTED_EDGE('',*,*,#356,.F.);
#223=ORIENTED_EDGE('',*,*,#397,.F.);
#224=ORIENTED_EDGE('',*,*,#347,.T.);
#225=ORIENTED_EDGE('',*,*,#324,.T.);
#226=ORIENTED_EDGE('',*,*,#379,.F.);
#227=ORIENTED_EDGE('',*,*,#398,.F.);
#228=ORIENTED_EDGE('',*,*,#341,.T.);
#229=ORIENTED_EDGE('',*,*,#399,.F.);
#230=ORIENTED_EDGE('',*,*,#400,.T.);
#231=ORIENTED_EDGE('',*,*,#383,.T.);
#232=ORIENTED_EDGE('',*,*,#367,.T.);
#233=ORIENTED_EDGE('',*,*,#386,.T.);
#234=ORIENTED_EDGE('',*,*,#358,.T.);
#235=ORIENTED_EDGE('',*,*,#384,.F.);
#236=ORIENTED_EDGE('',*,*,#345,.F.);
#237=ORIENTED_EDGE('',*,*,#342,.F.);
#238=ORIENTED_EDGE('',*,*,#398,.T.);
#239=ORIENTED_EDGE('',*,*,#382,.T.);
#240=ORIENTED_EDGE('',*,*,#378,.T.);
#241=ORIENTED_EDGE('',*,*,#375,.T.);
#242=ORIENTED_EDGE('',*,*,#372,.F.);
#243=ORIENTED_EDGE('',*,*,#369,.T.);
#244=ORIENTED_EDGE('',*,*,#362,.F.);
#245=ORIENTED_EDGE('',*,*,#348,.F.);
#246=ORIENTED_EDGE('',*,*,#397,.T.);
#247=ORIENTED_EDGE('',*,*,#361,.T.);
#248=ORIENTED_EDGE('',*,*,#355,.F.);
#249=ORIENTED_EDGE('',*,*,#380,.T.);
#250=ORIENTED_EDGE('',*,*,#350,.F.);
#251=ORIENTED_EDGE('',*,*,#396,.T.);
#252=ORIENTED_EDGE('',*,*,#393,.F.);
#253=ORIENTED_EDGE('',*,*,#391,.F.);
#254=ORIENTED_EDGE('',*,*,#389,.T.);
#255=ORIENTED_EDGE('',*,*,#387,.F.);
#256=ORIENTED_EDGE('',*,*,#399,.T.);
#257=ORIENTED_EDGE('',*,*,#365,.F.);
#258=ORIENTED_EDGE('',*,*,#371,.T.);
#259=ORIENTED_EDGE('',*,*,#374,.F.);
#260=ORIENTED_EDGE('',*,*,#377,.F.);
#261=ORIENTED_EDGE('',*,*,#381,.F.);
#262=ORIENTED_EDGE('',*,*,#353,.T.);
#263=ORIENTED_EDGE('',*,*,#360,.F.);
#264=ORIENTED_EDGE('',*,*,#385,.F.);
#265=ORIENTED_EDGE('',*,*,#392,.T.);
#266=ORIENTED_EDGE('',*,*,#390,.F.);
#267=ORIENTED_EDGE('',*,*,#394,.T.);
#268=ORIENTED_EDGE('',*,*,#388,.T.);
#269=ORIENTED_EDGE('',*,*,#400,.F.);
#270=ORIENTED_EDGE('',*,*,#334,.F.);
#271=ORIENTED_EDGE('',*,*,#401,.F.);
#272=ORIENTED_EDGE('',*,*,#402,.T.);
#273=ORIENTED_EDGE('',*,*,#403,.T.);
#274=ORIENTED_EDGE('',*,*,#404,.T.);
#275=ORIENTED_EDGE('',*,*,#405,.T.);
#276=ORIENTED_EDGE('',*,*,#406,.F.);
#277=ORIENTED_EDGE('',*,*,#407,.T.);
#278=ORIENTED_EDGE('',*,*,#401,.T.);
#279=ORIENTED_EDGE('',*,*,#339,.T.);
#280=ORIENTED_EDGE('',*,*,#338,.F.);
#281=ORIENTED_EDGE('',*,*,#408,.F.);
#282=ORIENTED_EDGE('',*,*,#409,.T.);
#283=ORIENTED_EDGE('',*,*,#410,.T.);
#284=ORIENTED_EDGE('',*,*,#411,.T.);
#285=ORIENTED_EDGE('',*,*,#406,.T.);
#286=ORIENTED_EDGE('',*,*,#412,.F.);
#287=ORIENTED_EDGE('',*,*,#413,.T.);
#288=ORIENTED_EDGE('',*,*,#408,.T.);
#289=ORIENTED_EDGE('',*,*,#337,.F.);
#290=ORIENTED_EDGE('',*,*,#336,.F.);
#291=ORIENTED_EDGE('',*,*,#414,.F.);
#292=ORIENTED_EDGE('',*,*,#415,.T.);
#293=ORIENTED_EDGE('',*,*,#416,.T.);
#294=ORIENTED_EDGE('',*,*,#417,.T.);
#295=ORIENTED_EDGE('',*,*,#412,.T.);
#296=ORIENTED_EDGE('',*,*,#405,.F.);
#297=ORIENTED_EDGE('',*,*,#418,.T.);
#298=ORIENTED_EDGE('',*,*,#414,.T.);
#299=ORIENTED_EDGE('',*,*,#335,.T.);
#300=ORIENTED_EDGE('',*,*,#410,.F.);
#301=ORIENTED_EDGE('',*,*,#419,.T.);
#302=ORIENTED_EDGE('',*,*,#416,.F.);
#303=ORIENTED_EDGE('',*,*,#420,.T.);
#304=ORIENTED_EDGE('',*,*,#403,.F.);
#305=ORIENTED_EDGE('',*,*,#421,.T.);
#306=ORIENTED_EDGE('',*,*,#349,.T.);
#307=ORIENTED_EDGE('',*,*,#417,.F.);
#308=ORIENTED_EDGE('',*,*,#419,.F.);
#309=ORIENTED_EDGE('',*,*,#409,.F.);
#310=ORIENTED_EDGE('',*,*,#413,.F.);
#311=ORIENTED_EDGE('',*,*,#402,.F.);
#312=ORIENTED_EDGE('',*,*,#407,.F.);
#313=ORIENTED_EDGE('',*,*,#411,.F.);
#314=ORIENTED_EDGE('',*,*,#421,.F.);
#315=ORIENTED_EDGE('',*,*,#415,.F.);
#316=ORIENTED_EDGE('',*,*,#418,.F.);
#317=ORIENTED_EDGE('',*,*,#404,.F.);
#318=ORIENTED_EDGE('',*,*,#420,.F.);
#319=ORIENTED_EDGE('',*,*,#333,.F.);
#320=ORIENTED_EDGE('',*,*,#395,.F.);
#321=EDGE_CURVE('',#422,#423,#494,.T.);
#322=EDGE_CURVE('',#422,#424,#43,.T.);
#323=EDGE_CURVE('',#424,#425,#495,.T.);
#324=EDGE_CURVE('',#423,#425,#44,.T.);
#325=EDGE_CURVE('',#426,#427,#496,.T.);
#326=EDGE_CURVE('',#426,#428,#45,.T.);
#327=EDGE_CURVE('',#428,#429,#497,.T.);
#328=EDGE_CURVE('',#427,#429,#46,.T.);
#329=EDGE_CURVE('',#430,#431,#498,.T.);
#330=EDGE_CURVE('',#430,#432,#47,.T.);
#331=EDGE_CURVE('',#432,#433,#499,.T.);
#332=EDGE_CURVE('',#431,#433,#48,.T.);
#333=EDGE_CURVE('',#434,#434,#500,.F.);
#334=EDGE_CURVE('',#435,#436,#501,.T.);
#335=EDGE_CURVE('',#437,#436,#502,.T.);
#336=EDGE_CURVE('',#437,#438,#503,.T.);
#337=EDGE_CURVE('',#438,#439,#504,.T.);
#338=EDGE_CURVE('',#439,#440,#505,.T.);
#339=EDGE_CURVE('',#435,#440,#506,.T.);
#340=EDGE_CURVE('',#441,#422,#49,.T.);
#341=EDGE_CURVE('',#442,#423,#50,.T.);
#342=EDGE_CURVE('',#442,#443,#507,.T.);
#343=EDGE_CURVE('',#443,#426,#51,.T.);
#344=EDGE_CURVE('',#444,#427,#52,.T.);
#345=EDGE_CURVE('',#444,#445,#508,.T.);
#346=EDGE_CURVE('',#445,#430,#53,.T.);
#347=EDGE_CURVE('',#446,#431,#54,.T.);
#348=EDGE_CURVE('',#446,#441,#509,.T.);
#349=EDGE_CURVE('',#447,#447,#510,.T.);
#350=EDGE_CURVE('',#441,#448,#55,.T.);
#351=EDGE_CURVE('',#448,#424,#56,.T.);
#352=EDGE_CURVE('',#449,#450,#57,.T.);
#353=EDGE_CURVE('',#451,#450,#511,.T.);
#354=EDGE_CURVE('',#452,#451,#58,.T.);
#355=EDGE_CURVE('',#452,#449,#512,.T.);
#356=EDGE_CURVE('',#453,#433,#59,.T.);
#357=EDGE_CURVE('',#454,#432,#60,.T.);
#358=EDGE_CURVE('',#455,#454,#513,.T.);
#359=EDGE_CURVE('',#455,#456,#61,.T.);
#360=EDGE_CURVE('',#456,#450,#514,.T.);
#361=EDGE_CURVE('',#453,#449,#515,.T.);
#362=EDGE_CURVE('',#443,#457,#62,.T.);
#363=EDGE_CURVE('',#457,#428,#63,.T.);
#364=EDGE_CURVE('',#458,#459,#64,.T.);
#365=EDGE_CURVE('',#459,#460,#516,.T.);
#366=EDGE_CURVE('',#461,#460,#65,.T.);
#367=EDGE_CURVE('',#462,#461,#517,.T.);
#368=EDGE_CURVE('',#462,#429,#66,.T.);
#369=EDGE_CURVE('',#458,#457,#518,.T.);
#370=EDGE_CURVE('',#463,#464,#67,.T.);
#371=EDGE_CURVE('',#459,#464,#519,.T.);
#372=EDGE_CURVE('',#458,#463,#520,.T.);
#373=EDGE_CURVE('',#465,#466,#68,.T.);
#374=EDGE_CURVE('',#466,#464,#521,.T.);
#375=EDGE_CURVE('',#465,#463,#522,.T.);
#376=EDGE_CURVE('',#467,#468,#69,.T.);
#377=EDGE_CURVE('',#468,#466,#523,.T.);
#378=EDGE_CURVE('',#467,#465,#524,.T.);
#379=EDGE_CURVE('',#469,#425,#70,.T.);
#380=EDGE_CURVE('',#452,#448,#525,.T.);
#381=EDGE_CURVE('',#451,#468,#526,.T.);
#382=EDGE_CURVE('',#469,#467,#527,.T.);
#383=EDGE_CURVE('',#444,#462,#71,.T.);
#384=EDGE_CURVE('',#445,#454,#72,.T.);
#385=EDGE_CURVE('',#460,#456,#528,.T.);
#386=EDGE_CURVE('',#461,#455,#529,.T.);
#387=EDGE_CURVE('',#470,#470,#530,.T.);
#388=EDGE_CURVE('',#471,#471,#531,.T.);
#389=EDGE_CURVE('',#472,#472,#532,.T.);
#390=EDGE_CURVE('',#473,#473,#533,.T.);
#391=EDGE_CURVE('',#474,#474,#534,.T.);
#392=EDGE_CURVE('',#475,#475,#535,.T.);
#393=EDGE_CURVE('',#476,#476,#536,.T.);
#394=EDGE_CURVE('',#477,#477,#537,.T.);
#395=EDGE_CURVE('',#478,#478,#538,.T.);
#396=EDGE_CURVE('',#479,#479,#539,.T.);
#397=EDGE_CURVE('',#446,#453,#73,.T.);
#398=EDGE_CURVE('',#442,#469,#74,.T.);
#399=EDGE_CURVE('',#480,#480,#540,.T.);
#400=EDGE_CURVE('',#481,#481,#541,.T.);
#401=EDGE_CURVE('',#482,#435,#75,.T.);
#402=EDGE_CURVE('',#482,#483,#16,.T.);
#403=EDGE_CURVE('',#483,#484,#542,.T.);
#404=EDGE_CURVE('',#484,#485,#17,.T.);
#405=EDGE_CURVE('',#485,#436,#76,.T.);
#406=EDGE_CURVE('',#486,#440,#77,.T.);
#407=EDGE_CURVE('',#486,#482,#543,.F.);
#408=EDGE_CURVE('',#487,#439,#78,.T.);
#409=EDGE_CURVE('',#487,#488,#18,.T.);
#410=EDGE_CURVE('',#488,#489,#544,.T.);
#411=EDGE_CURVE('',#489,#486,#19,.T.);
#412=EDGE_CURVE('',#490,#438,#79,.T.);
#413=EDGE_CURVE('',#490,#487,#545,.F.);
#414=EDGE_CURVE('',#491,#437,#80,.T.);
#415=EDGE_CURVE('',#491,#492,#20,.T.);
#416=EDGE_CURVE('',#492,#493,#546,.T.);
#417=EDGE_CURVE('',#493,#490,#21,.T.);
#418=EDGE_CURVE('',#485,#491,#547,.F.);
#419=EDGE_CURVE('',#488,#493,#548,.T.);
#420=EDGE_CURVE('',#492,#484,#549,.T.);
#421=EDGE_CURVE('',#483,#489,#550,.T.);
#422=VERTEX_POINT('',#1065);
#423=VERTEX_POINT('',#1066);
#424=VERTEX_POINT('',#1068);
#425=VERTEX_POINT('',#1070);
#426=VERTEX_POINT('',#1074);
#427=VERTEX_POINT('',#1075);
#428=VERTEX_POINT('',#1077);
#429=VERTEX_POINT('',#1079);
#430=VERTEX_POINT('',#1083);
#431=VERTEX_POINT('',#1084);
#432=VERTEX_POINT('',#1086);
#433=VERTEX_POINT('',#1088);
#434=VERTEX_POINT('',#1092);
#435=VERTEX_POINT('',#1094);
#436=VERTEX_POINT('',#1095);
#437=VERTEX_POINT('',#1097);
#438=VERTEX_POINT('',#1099);
#439=VERTEX_POINT('',#1101);
#440=VERTEX_POINT('',#1103);
#441=VERTEX_POINT('',#1107);
#442=VERTEX_POINT('',#1109);
#443=VERTEX_POINT('',#1111);
#444=VERTEX_POINT('',#1114);
#445=VERTEX_POINT('',#1116);
#446=VERTEX_POINT('',#1119);
#447=VERTEX_POINT('',#1122);
#448=VERTEX_POINT('',#1125);
#449=VERTEX_POINT('',#1129);
#450=VERTEX_POINT('',#1130);
#451=VERTEX_POINT('',#1132);
#452=VERTEX_POINT('',#1134);
#453=VERTEX_POINT('',#1138);
#454=VERTEX_POINT('',#1140);
#455=VERTEX_POINT('',#1142);
#456=VERTEX_POINT('',#1144);
#457=VERTEX_POINT('',#1149);
#458=VERTEX_POINT('',#1153);
#459=VERTEX_POINT('',#1154);
#460=VERTEX_POINT('',#1156);
#461=VERTEX_POINT('',#1158);
#462=VERTEX_POINT('',#1160);
#463=VERTEX_POINT('',#1165);
#464=VERTEX_POINT('',#1166);
#465=VERTEX_POINT('',#1171);
#466=VERTEX_POINT('',#1172);
#467=VERTEX_POINT('',#1177);
#468=VERTEX_POINT('',#1178);
#469=VERTEX_POINT('',#1183);
#470=VERTEX_POINT('',#1196);
#471=VERTEX_POINT('',#1198);
#472=VERTEX_POINT('',#1201);
#473=VERTEX_POINT('',#1203);
#474=VERTEX_POINT('',#1206);
#475=VERTEX_POINT('',#1208);
#476=VERTEX_POINT('',#1211);
#477=VERTEX_POINT('',#1213);
#478=VERTEX_POINT('',#1216);
#479=VERTEX_POINT('',#1218);
#480=VERTEX_POINT('',#1225);
#481=VERTEX_POINT('',#1227);
#482=VERTEX_POINT('',#1232);
#483=VERTEX_POINT('',#1237);
#484=VERTEX_POINT('',#1239);
#485=VERTEX_POINT('',#1244);
#486=VERTEX_POINT('',#1248);
#487=VERTEX_POINT('',#1252);
#488=VERTEX_POINT('',#1257);
#489=VERTEX_POINT('',#1259);
#490=VERTEX_POINT('',#1266);
#491=VERTEX_POINT('',#1270);
#492=VERTEX_POINT('',#1275);
#493=VERTEX_POINT('',#1277);
#494=CIRCLE('',#738,0.0205);
#495=CIRCLE('',#739,0.0269970383680858);
#496=CIRCLE('',#741,0.0205);
#497=CIRCLE('',#742,0.0269970383680858);
#498=CIRCLE('',#744,0.0205);
#499=CIRCLE('',#745,0.0269970383680858);
#500=CIRCLE('',#747,0.0159);
#501=CIRCLE('',#748,0.019);
#502=CIRCLE('',#749,0.003);
#503=CIRCLE('',#750,0.019);
#504=CIRCLE('',#751,0.003);
#505=CIRCLE('',#752,0.019);
#506=CIRCLE('',#753,0.003);
#507=CIRCLE('',#755,0.0205);
#508=CIRCLE('',#756,0.0205);
#509=CIRCLE('',#757,0.0205);
#510=CIRCLE('',#758,0.0205);
#511=CIRCLE('',#761,0.0026);
#512=CIRCLE('',#762,0.0026);
#513=CIRCLE('',#764,0.0269970383680858);
#514=CIRCLE('',#765,0.0269970383680858);
#515=CIRCLE('',#766,0.0269970383680858);
#516=CIRCLE('',#769,0.0269970383680858);
#517=CIRCLE('',#770,0.0269970383680858);
#518=CIRCLE('',#771,0.0269970383680858);
#519=CIRCLE('',#773,0.0026);
#520=CIRCLE('',#774,0.0026);
#521=CIRCLE('',#776,0.0269970383680858);
#522=CIRCLE('',#777,0.0269970383680858);
#523=CIRCLE('',#779,0.0026);
#524=CIRCLE('',#780,0.0026);
#525=CIRCLE('',#782,0.0269970383680858);
#526=CIRCLE('',#783,0.0269970383680858);
#527=CIRCLE('',#784,0.0269970383680858);
#528=CIRCLE('',#788,0.0026);
#529=CIRCLE('',#789,0.0026);
#530=CIRCLE('',#791,0.0008);
#531=CIRCLE('',#792,0.0008);
#532=CIRCLE('',#794,0.0008);
#533=CIRCLE('',#795,0.0008);
#534=CIRCLE('',#797,0.0008);
#535=CIRCLE('',#798,0.0008);
#536=CIRCLE('',#800,0.03175);
#537=CIRCLE('',#801,0.03175);
#538=CIRCLE('',#803,0.0155);
#539=CIRCLE('',#804,0.0155);
#540=CIRCLE('',#808,0.0008);
#541=CIRCLE('',#809,0.0008);
#542=CIRCLE('',#813,0.019);
#543=CIRCLE('',#815,0.003);
#544=CIRCLE('',#817,0.019);
#545=CIRCLE('',#819,0.003);
#546=CIRCLE('',#821,0.019);
#547=CIRCLE('',#823,0.003);
#548=CIRCLE('',#825,0.0026);
#549=CIRCLE('',#826,0.0026);
#550=CIRCLE('',#827,0.0026);
#551=EDGE_LOOP('',(#119,#120,#121,#122));
#552=EDGE_LOOP('',(#123,#124,#125,#126));
#553=EDGE_LOOP('',(#127,#128,#129,#130));
#554=EDGE_LOOP('',(#131));
#555=EDGE_LOOP('',(#132,#133,#134,#135,#136,#137));
#556=EDGE_LOOP('',(#138,#139,#140,#141,#142,#143,#144,#145,#146,#147,#148,
#149));
#557=EDGE_LOOP('',(#150));
#558=EDGE_LOOP('',(#151,#152,#153,#154));
#559=EDGE_LOOP('',(#155,#156,#157,#158));
#560=EDGE_LOOP('',(#159,#160,#161,#162,#163,#164,#165,#166));
#561=EDGE_LOOP('',(#167,#168,#169,#170));
#562=EDGE_LOOP('',(#171,#172,#173,#174,#175,#176,#177,#178));
#563=EDGE_LOOP('',(#179,#180,#181,#182));
#564=EDGE_LOOP('',(#183,#184,#185,#186));
#565=EDGE_LOOP('',(#187,#188,#189,#190));
#566=EDGE_LOOP('',(#191,#192,#193,#194,#195,#196,#197,#198));
#567=EDGE_LOOP('',(#199,#200,#201,#202));
#568=EDGE_LOOP('',(#203,#204,#205,#206));
#569=EDGE_LOOP('',(#207,#208,#209,#210));
#570=EDGE_LOOP('',(#211));
#571=EDGE_LOOP('',(#212));
#572=EDGE_LOOP('',(#213));
#573=EDGE_LOOP('',(#214));
#574=EDGE_LOOP('',(#215));
#575=EDGE_LOOP('',(#216));
#576=EDGE_LOOP('',(#217));
#577=EDGE_LOOP('',(#218));
#578=EDGE_LOOP('',(#219));
#579=EDGE_LOOP('',(#220));
#580=EDGE_LOOP('',(#221,#222,#223,#224));
#581=EDGE_LOOP('',(#225,#226,#227,#228));
#582=EDGE_LOOP('',(#229));
#583=EDGE_LOOP('',(#230));
#584=EDGE_LOOP('',(#231,#232,#233,#234,#235,#236));
#585=EDGE_LOOP('',(#237,#238,#239,#240,#241,#242,#243,#244));
#586=EDGE_LOOP('',(#245,#246,#247,#248,#249,#250));
#587=EDGE_LOOP('',(#251));
#588=EDGE_LOOP('',(#252));
#589=EDGE_LOOP('',(#253));
#590=EDGE_LOOP('',(#254));
#591=EDGE_LOOP('',(#255));
#592=EDGE_LOOP('',(#256));
#593=EDGE_LOOP('',(#257,#258,#259,#260,#261,#262,#263,#264));
#594=EDGE_LOOP('',(#265));
#595=EDGE_LOOP('',(#266));
#596=EDGE_LOOP('',(#267));
#597=EDGE_LOOP('',(#268));
#598=EDGE_LOOP('',(#269));
#599=EDGE_LOOP('',(#270,#271,#272,#273,#274,#275));
#600=EDGE_LOOP('',(#276,#277,#278,#279));
#601=EDGE_LOOP('',(#280,#281,#282,#283,#284,#285));
#602=EDGE_LOOP('',(#286,#287,#288,#289));
#603=EDGE_LOOP('',(#290,#291,#292,#293,#294,#295));
#604=EDGE_LOOP('',(#296,#297,#298,#299));
#605=EDGE_LOOP('',(#300,#301,#302,#303,#304,#305));
#606=EDGE_LOOP('',(#306));
#607=EDGE_LOOP('',(#307,#308,#309,#310));
#608=EDGE_LOOP('',(#311,#312,#313,#314));
#609=EDGE_LOOP('',(#315,#316,#317,#318));
#610=EDGE_LOOP('',(#319));
#611=EDGE_LOOP('',(#320));
#612=FACE_BOUND('',#551,.T.);
#613=FACE_BOUND('',#552,.T.);
#614=FACE_BOUND('',#553,.T.);
#615=FACE_BOUND('',#554,.T.);
#616=FACE_BOUND('',#555,.T.);
#617=FACE_BOUND('',#556,.T.);
#618=FACE_BOUND('',#557,.T.);
#619=FACE_BOUND('',#558,.T.);
#620=FACE_BOUND('',#559,.T.);
#621=FACE_BOUND('',#560,.T.);
#622=FACE_BOUND('',#561,.T.);
#623=FACE_BOUND('',#562,.T.);
#624=FACE_BOUND('',#563,.T.);
#625=FACE_BOUND('',#564,.T.);
#626=FACE_BOUND('',#565,.T.);
#627=FACE_BOUND('',#566,.T.);
#628=FACE_BOUND('',#567,.T.);
#629=FACE_BOUND('',#568,.T.);
#630=FACE_BOUND('',#569,.T.);
#631=FACE_BOUND('',#570,.T.);
#632=FACE_BOUND('',#571,.T.);
#633=FACE_BOUND('',#572,.T.);
#634=FACE_BOUND('',#573,.T.);
#635=FACE_BOUND('',#574,.T.);
#636=FACE_BOUND('',#575,.T.);
#637=FACE_BOUND('',#576,.T.);
#638=FACE_BOUND('',#577,.T.);
#639=FACE_BOUND('',#578,.T.);
#640=FACE_BOUND('',#579,.T.);
#641=FACE_BOUND('',#580,.T.);
#642=FACE_BOUND('',#581,.T.);
#643=FACE_BOUND('',#582,.T.);
#644=FACE_BOUND('',#583,.T.);
#645=FACE_BOUND('',#584,.T.);
#646=FACE_BOUND('',#585,.T.);
#647=FACE_BOUND('',#586,.T.);
#648=FACE_BOUND('',#587,.T.);
#649=FACE_BOUND('',#588,.T.);
#650=FACE_BOUND('',#589,.T.);
#651=FACE_BOUND('',#590,.T.);
#652=FACE_BOUND('',#591,.T.);
#653=FACE_BOUND('',#592,.T.);
#654=FACE_BOUND('',#593,.T.);
#655=FACE_BOUND('',#594,.T.);
#656=FACE_BOUND('',#595,.T.);
#657=FACE_BOUND('',#596,.T.);
#658=FACE_BOUND('',#597,.T.);
#659=FACE_BOUND('',#598,.T.);
#660=FACE_BOUND('',#599,.T.);
#661=FACE_BOUND('',#600,.T.);
#662=FACE_BOUND('',#601,.T.);
#663=FACE_BOUND('',#602,.T.);
#664=FACE_BOUND('',#603,.T.);
#665=FACE_BOUND('',#604,.T.);
#666=FACE_BOUND('',#605,.T.);
#667=FACE_BOUND('',#606,.T.);
#668=FACE_BOUND('',#607,.T.);
#669=FACE_BOUND('',#608,.T.);
#670=FACE_BOUND('',#609,.T.);
#671=FACE_BOUND('',#610,.T.);
#672=FACE_BOUND('',#611,.T.);
#673=PLANE('',#737);
#674=PLANE('',#740);
#675=PLANE('',#743);
#676=PLANE('',#746);
#677=PLANE('',#759);
#678=PLANE('',#767);
#679=PLANE('',#785);
#680=PLANE('',#786);
#681=PLANE('',#805);
#682=PLANE('',#806);
#683=PLANE('',#810);
#684=PLANE('',#811);
#685=PLANE('',#824);
#686=ADVANCED_FACE('',(#612),#673,.T.);
#687=ADVANCED_FACE('',(#613),#674,.T.);
#688=ADVANCED_FACE('',(#614),#675,.T.);
#689=ADVANCED_FACE('',(#615,#616),#676,.T.);
#690=ADVANCED_FACE('',(#617,#618),#22,.T.);
#691=ADVANCED_FACE('',(#619),#677,.T.);
#692=ADVANCED_FACE('',(#620),#23,.T.);
#693=ADVANCED_FACE('',(#621),#24,.F.);
#694=ADVANCED_FACE('',(#622),#678,.T.);
#695=ADVANCED_FACE('',(#623),#25,.F.);
#696=ADVANCED_FACE('',(#624),#26,.T.);
#697=ADVANCED_FACE('',(#625),#27,.F.);
#698=ADVANCED_FACE('',(#626),#28,.T.);
#699=ADVANCED_FACE('',(#627),#29,.F.);
#700=ADVANCED_FACE('',(#628),#679,.F.);
#701=ADVANCED_FACE('',(#629),#680,.T.);
#702=ADVANCED_FACE('',(#630),#30,.T.);
#703=ADVANCED_FACE('',(#631,#632),#31,.F.);
#704=ADVANCED_FACE('',(#633,#634),#32,.F.);
#705=ADVANCED_FACE('',(#635,#636),#33,.F.);
#706=ADVANCED_FACE('',(#637,#638),#34,.T.);
#707=ADVANCED_FACE('',(#639,#640),#35,.F.);
#708=ADVANCED_FACE('',(#641),#681,.F.);
#709=ADVANCED_FACE('',(#642),#682,.F.);
#710=ADVANCED_FACE('',(#643,#644),#36,.F.);
#711=ADVANCED_FACE('',(#645,#646,#647,#648,#649,#650,#651,#652,#653),#683,
 .F.);
#712=ADVANCED_FACE('',(#654,#655,#656,#657,#658,#659),#684,.T.);
#713=ADVANCED_FACE('',(#660),#37,.F.);
#714=ADVANCED_FACE('',(#661),#38,.T.);
#715=ADVANCED_FACE('',(#662),#39,.F.);
#716=ADVANCED_FACE('',(#663),#40,.T.);
#717=ADVANCED_FACE('',(#664),#41,.F.);
#718=ADVANCED_FACE('',(#665),#42,.T.);
#719=ADVANCED_FACE('',(#666,#667),#685,.T.);
#720=ADVANCED_FACE('',(#668),#12,.T.);
#721=ADVANCED_FACE('',(#669),#13,.T.);
#722=ADVANCED_FACE('',(#670),#14,.T.);
#723=ADVANCED_FACE('',(#671,#672),#15,.F.);
#724=CLOSED_SHELL('',(#686,#687,#688,#689,#690,#691,#692,#693,#694,#695,
#696,#697,#698,#699,#700,#701,#702,#703,#704,#705,#706,#707,#708,#709,#710,
#711,#712,#713,#714,#715,#716,#717,#718,#719,#720,#721,#722,#723));
#725=STYLED_ITEM('',(#726),#733);
#726=PRESENTATION_STYLE_ASSIGNMENT((#727));
#727=SURFACE_STYLE_USAGE(.BOTH.,#728);
#728=SURFACE_SIDE_STYLE('',(#729));
#729=SURFACE_STYLE_FILL_AREA(#730);
#730=FILL_AREA_STYLE('',(#731));
#731=FILL_AREA_STYLE_COLOUR('',#732);
#732=COLOUR_RGB('',0.615686274509804,0.811764705882353,0.929411764705882);
#733=MANIFOLD_SOLID_BREP('flexture',#724);
#734=SHAPE_DEFINITION_REPRESENTATION(#1298,#735);
#735=SHAPE_REPRESENTATION('flexture',(#736),#1293);
#736=AXIS2_PLACEMENT_3D('',#1062,#832,#833);
#737=AXIS2_PLACEMENT_3D('',#1063,#834,#835);
#738=AXIS2_PLACEMENT_3D('',#1064,#836,#837);
#739=AXIS2_PLACEMENT_3D('',#1069,#839,#840);
#740=AXIS2_PLACEMENT_3D('',#1072,#842,#843);
#741=AXIS2_PLACEMENT_3D('',#1073,#844,#845);
#742=AXIS2_PLACEMENT_3D('',#1078,#847,#848);
#743=AXIS2_PLACEMENT_3D('',#1081,#850,#851);
#744=AXIS2_PLACEMENT_3D('',#1082,#852,#853);
#745=AXIS2_PLACEMENT_3D('',#1087,#855,#856);
#746=AXIS2_PLACEMENT_3D('',#1090,#858,#859);
#747=AXIS2_PLACEMENT_3D('',#1091,#860,#861);
#748=AXIS2_PLACEMENT_3D('',#1093,#862,#863);
#749=AXIS2_PLACEMENT_3D('',#1096,#864,#865);
#750=AXIS2_PLACEMENT_3D('',#1098,#866,#867);
#751=AXIS2_PLACEMENT_3D('',#1100,#868,#869);
#752=AXIS2_PLACEMENT_3D('',#1102,#870,#871);
#753=AXIS2_PLACEMENT_3D('',#1104,#872,#873);
#754=AXIS2_PLACEMENT_3D('',#1105,#874,#875);
#755=AXIS2_PLACEMENT_3D('',#1110,#878,#879);
#756=AXIS2_PLACEMENT_3D('',#1115,#882,#883);
#757=AXIS2_PLACEMENT_3D('',#1120,#886,#887);
#758=AXIS2_PLACEMENT_3D('',#1121,#888,#889);
#759=AXIS2_PLACEMENT_3D('',#1123,#890,#891);
#760=AXIS2_PLACEMENT_3D('',#1127,#894,#895);
#761=AXIS2_PLACEMENT_3D('',#1131,#897,#898);
#762=AXIS2_PLACEMENT_3D('',#1135,#900,#901);
#763=AXIS2_PLACEMENT_3D('',#1136,#902,#903);
#764=AXIS2_PLACEMENT_3D('',#1141,#906,#907);
#765=AXIS2_PLACEMENT_3D('',#1145,#909,#910);
#766=AXIS2_PLACEMENT_3D('',#1146,#911,#912);
#767=AXIS2_PLACEMENT_3D('',#1147,#913,#914);
#768=AXIS2_PLACEMENT_3D('',#1151,#917,#918);
#769=AXIS2_PLACEMENT_3D('',#1155,#920,#921);
#770=AXIS2_PLACEMENT_3D('',#1159,#923,#924);
#771=AXIS2_PLACEMENT_3D('',#1162,#926,#927);
#772=AXIS2_PLACEMENT_3D('',#1163,#928,#929);
#773=AXIS2_PLACEMENT_3D('',#1167,#931,#932);
#774=AXIS2_PLACEMENT_3D('',#1168,#933,#934);
#775=AXIS2_PLACEMENT_3D('',#1169,#935,#936);
#776=AXIS2_PLACEMENT_3D('',#1173,#938,#939);
#777=AXIS2_PLACEMENT_3D('',#1174,#940,#941);
#778=AXIS2_PLACEMENT_3D('',#1175,#942,#943);
#779=AXIS2_PLACEMENT_3D('',#1179,#945,#946);
#780=AXIS2_PLACEMENT_3D('',#1180,#947,#948);
#781=AXIS2_PLACEMENT_3D('',#1181,#949,#950);
#782=AXIS2_PLACEMENT_3D('',#1184,#952,#953);
#783=AXIS2_PLACEMENT_3D('',#1185,#954,#955);
#784=AXIS2_PLACEMENT_3D('',#1186,#956,#957);
#785=AXIS2_PLACEMENT_3D('',#1187,#958,#959);
#786=AXIS2_PLACEMENT_3D('',#1189,#961,#962);
#787=AXIS2_PLACEMENT_3D('',#1191,#964,#965);
#788=AXIS2_PLACEMENT_3D('',#1192,#966,#967);
#789=AXIS2_PLACEMENT_3D('',#1193,#968,#969);
#790=AXIS2_PLACEMENT_3D('',#1194,#970,#971);
#791=AXIS2_PLACEMENT_3D('',#1195,#972,#973);
#792=AXIS2_PLACEMENT_3D('',#1197,#974,#975);
#793=AXIS2_PLACEMENT_3D('',#1199,#976,#977);
#794=AXIS2_PLACEMENT_3D('',#1200,#978,#979);
#795=AXIS2_PLACEMENT_3D('',#1202,#980,#981);
#796=AXIS2_PLACEMENT_3D('',#1204,#982,#983);
#797=AXIS2_PLACEMENT_3D('',#1205,#984,#985);
#798=AXIS2_PLACEMENT_3D('',#1207,#986,#987);
#799=AXIS2_PLACEMENT_3D('',#1209,#988,#989);
#800=AXIS2_PLACEMENT_3D('',#1210,#990,#991);
#801=AXIS2_PLACEMENT_3D('',#1212,#992,#993);
#802=AXIS2_PLACEMENT_3D('',#1214,#994,#995);
#803=AXIS2_PLACEMENT_3D('',#1215,#996,#997);
#804=AXIS2_PLACEMENT_3D('',#1217,#998,#999);
#805=AXIS2_PLACEMENT_3D('',#1219,#1000,#1001);
#806=AXIS2_PLACEMENT_3D('',#1221,#1003,#1004);
#807=AXIS2_PLACEMENT_3D('',#1223,#1006,#1007);
#808=AXIS2_PLACEMENT_3D('',#1224,#1008,#1009);
#809=AXIS2_PLACEMENT_3D('',#1226,#1010,#1011);
#810=AXIS2_PLACEMENT_3D('',#1228,#1012,#1013);
#811=AXIS2_PLACEMENT_3D('',#1229,#1014,#1015);
#812=AXIS2_PLACEMENT_3D('',#1230,#1016,#1017);
#813=AXIS2_PLACEMENT_3D('',#1238,#1019,#1020);
#814=AXIS2_PLACEMENT_3D('',#1246,#1022,#1023);
#815=AXIS2_PLACEMENT_3D('',#1249,#1025,#1026);
#816=AXIS2_PLACEMENT_3D('',#1250,#1027,#1028);
#817=AXIS2_PLACEMENT_3D('',#1258,#1030,#1031);
#818=AXIS2_PLACEMENT_3D('',#1264,#1032,#1033);
#819=AXIS2_PLACEMENT_3D('',#1267,#1035,#1036);
#820=AXIS2_PLACEMENT_3D('',#1268,#1037,#1038);
#821=AXIS2_PLACEMENT_3D('',#1276,#1040,#1041);
#822=AXIS2_PLACEMENT_3D('',#1282,#1042,#1043);
#823=AXIS2_PLACEMENT_3D('',#1283,#1044,#1045);
#824=AXIS2_PLACEMENT_3D('',#1284,#1046,#1047);
#825=AXIS2_PLACEMENT_3D('',#1285,#1048,#1049);
#826=AXIS2_PLACEMENT_3D('',#1286,#1050,#1051);
#827=AXIS2_PLACEMENT_3D('',#1287,#1052,#1053);
#828=AXIS2_PLACEMENT_3D('',#1288,#1054,#1055);
#829=AXIS2_PLACEMENT_3D('',#1289,#1056,#1057);
#830=AXIS2_PLACEMENT_3D('',#1290,#1058,#1059);
#831=AXIS2_PLACEMENT_3D('',#1291,#1060,#1061);
#832=DIRECTION('',(0.,0.,1.));
#833=DIRECTION('',(1.,0.,0.));
#834=DIRECTION('',(0.,0.,1.));
#835=DIRECTION('',(1.,0.,0.));
#836=DIRECTION('',(0.,0.,1.));
#837=DIRECTION('',(1.,0.,0.));
#838=DIRECTION('',(0.865698573018193,0.500565660702234,0.));
#839=DIRECTION('',(0.,0.,1.));
#840=DIRECTION('',(1.,0.,0.));
#841=DIRECTION('',(0.865698573018193,0.500565660702234,0.));
#842=DIRECTION('',(0.,0.,1.));
#843=DIRECTION('',(1.,0.,0.));
#844=DIRECTION('',(0.,0.,1.));
#845=DIRECTION('',(1.,0.,0.));
#846=DIRECTION('',(-0.866351864939373,0.499434125902576,0.));
#847=DIRECTION('',(0.,0.,1.));
#848=DIRECTION('',(1.,0.,0.));
#849=DIRECTION('',(-0.866351864939373,0.499434125902576,0.));
#850=DIRECTION('',(0.,0.,1.));
#851=DIRECTION('',(1.,0.,0.));
#852=DIRECTION('',(0.,0.,1.));
#853=DIRECTION('',(1.,0.,0.));
#854=DIRECTION('',(0.000653291921179451,-0.99999978660481,0.));
#855=DIRECTION('',(0.,0.,1.));
#856=DIRECTION('',(1.,0.,0.));
#857=DIRECTION('',(0.000653291921179561,-0.99999978660481,0.));
#858=DIRECTION('',(0.,0.,1.));
#859=DIRECTION('',(1.,0.,0.));
#860=DIRECTION('',(0.,0.,1.));
#861=DIRECTION('',(1.,0.,0.));
#862=DIRECTION('',(0.,0.,1.));
#863=DIRECTION('',(1.,0.,0.));
#864=DIRECTION('',(0.,0.,1.));
#865=DIRECTION('',(1.,0.,0.));
#866=DIRECTION('',(0.,0.,1.));
#867=DIRECTION('',(1.,0.,0.));
#868=DIRECTION('',(0.,0.,-1.));
#869=DIRECTION('',(1.,0.,0.));
#870=DIRECTION('',(0.,0.,1.));
#871=DIRECTION('',(1.,0.,0.));
#872=DIRECTION('',(0.,0.,1.));
#873=DIRECTION('',(1.,0.,0.));
#874=DIRECTION('',(0.,0.,1.));
#875=DIRECTION('',(1.,0.,0.));
#876=DIRECTION('',(0.,0.,1.));
#877=DIRECTION('',(0.,0.,1.));
#878=DIRECTION('',(0.,0.,1.));
#879=DIRECTION('',(1.,0.,0.));
#880=DIRECTION('',(0.,0.,1.));
#881=DIRECTION('',(0.,0.,1.));
#882=DIRECTION('',(0.,0.,1.));
#883=DIRECTION('',(1.,0.,0.));
#884=DIRECTION('',(0.,0.,1.));
#885=DIRECTION('',(0.,0.,1.));
#886=DIRECTION('',(0.,0.,1.));
#887=DIRECTION('',(1.,0.,0.));
#888=DIRECTION('',(0.,0.,1.));
#889=DIRECTION('',(1.,0.,0.));
#890=DIRECTION('',(0.500565660702234,-0.865698573018193,0.));
#891=DIRECTION('',(0.865698573018193,0.500565660702234,0.));
#892=DIRECTION('',(0.865698573018193,0.500565660702234,0.));
#893=DIRECTION('',(0.,0.,1.));
#894=DIRECTION('',(0.,0.,1.));
#895=DIRECTION('',(1.,0.,0.));
#896=DIRECTION('',(0.,0.,1.));
#897=DIRECTION('',(0.,0.,1.));
#898=DIRECTION('',(1.,0.,0.));
#899=DIRECTION('',(0.,0.,1.));
#900=DIRECTION('',(0.,0.,1.));
#901=DIRECTION('',(1.,0.,0.));
#902=DIRECTION('',(0.,0.,1.));
#903=DIRECTION('',(1.,0.,0.));
#904=DIRECTION('',(0.,0.,1.));
#905=DIRECTION('',(0.,0.,1.));
#906=DIRECTION('',(0.,0.,1.));
#907=DIRECTION('',(1.,0.,0.));
#908=DIRECTION('',(0.,0.,1.));
#909=DIRECTION('',(0.,0.,1.));
#910=DIRECTION('',(1.,0.,0.));
#911=DIRECTION('',(0.,0.,1.));
#912=DIRECTION('',(1.,0.,0.));
#913=DIRECTION('',(0.499434125902576,0.866351864939373,0.));
#914=DIRECTION('',(-0.866351864939373,0.499434125902576,0.));
#915=DIRECTION('',(-0.866351864939373,0.499434125902576,0.));
#916=DIRECTION('',(0.,0.,1.));
#917=DIRECTION('',(0.,0.,1.));
#918=DIRECTION('',(1.,0.,0.));
#919=DIRECTION('',(0.,0.,1.));
#920=DIRECTION('',(0.,0.,1.));
#921=DIRECTION('',(1.,0.,0.));
#922=DIRECTION('',(0.,0.,1.));
#923=DIRECTION('',(0.,0.,1.));
#924=DIRECTION('',(1.,0.,0.));
#925=DIRECTION('',(0.,0.,1.));
#926=DIRECTION('',(0.,0.,1.));
#927=DIRECTION('',(1.,0.,0.));
#928=DIRECTION('',(0.,0.,1.));
#929=DIRECTION('',(1.,0.,0.));
#930=DIRECTION('',(0.,0.,1.));
#931=DIRECTION('',(0.,0.,1.));
#932=DIRECTION('',(1.,0.,0.));
#933=DIRECTION('',(0.,0.,1.));
#934=DIRECTION('',(1.,0.,0.));
#935=DIRECTION('',(0.,0.,1.));
#936=DIRECTION('',(1.,0.,0.));
#937=DIRECTION('',(0.,0.,1.));
#938=DIRECTION('',(0.,0.,1.));
#939=DIRECTION('',(1.,0.,0.));
#940=DIRECTION('',(0.,0.,1.));
#941=DIRECTION('',(1.,0.,0.));
#942=DIRECTION('',(0.,0.,1.));
#943=DIRECTION('',(1.,0.,0.));
#944=DIRECTION('',(0.,0.,1.));
#945=DIRECTION('',(0.,0.,-1.));
#946=DIRECTION('',(1.,0.,0.));
#947=DIRECTION('',(0.,0.,-1.));
#948=DIRECTION('',(1.,0.,0.));
#949=DIRECTION('',(0.,0.,1.));
#950=DIRECTION('',(1.,0.,0.));
#951=DIRECTION('',(0.,0.,1.));
#952=DIRECTION('',(0.,0.,1.));
#953=DIRECTION('',(1.,0.,0.));
#954=DIRECTION('',(0.,0.,1.));
#955=DIRECTION('',(1.,0.,0.));
#956=DIRECTION('',(0.,0.,1.));
#957=DIRECTION('',(1.,0.,0.));
#958=DIRECTION('',(0.499434125902576,0.866351864939373,0.));
#959=DIRECTION('',(-0.866351864939373,0.499434125902576,0.));
#960=DIRECTION('',(-0.866351864939373,0.499434125902576,0.));
#961=DIRECTION('',(-0.99999978660481,-0.000653291921179451,0.));
#962=DIRECTION('',(0.000653291921179451,-0.99999978660481,0.));
#963=DIRECTION('',(0.000653291921179451,-0.99999978660481,0.));
#964=DIRECTION('',(0.,0.,1.));
#965=DIRECTION('',(1.,0.,0.));
#966=DIRECTION('',(0.,0.,-1.));
#967=DIRECTION('',(1.,0.,0.));
#968=DIRECTION('',(0.,0.,-1.));
#969=DIRECTION('',(1.,0.,0.));
#970=DIRECTION('',(0.,0.,1.));
#971=DIRECTION('',(1.,0.,0.));
#972=DIRECTION('',(0.,0.,-1.));
#973=DIRECTION('',(1.,0.,0.));
#974=DIRECTION('',(0.,0.,-1.));
#975=DIRECTION('',(1.,0.,0.));
#976=DIRECTION('',(0.,0.,1.));
#977=DIRECTION('',(1.,0.,0.));
#978=DIRECTION('',(0.,0.,1.));
#979=DIRECTION('',(1.,0.,0.));
#980=DIRECTION('',(0.,0.,1.));
#981=DIRECTION('',(1.,0.,0.));
#982=DIRECTION('',(0.,0.,1.));
#983=DIRECTION('',(1.,0.,0.));
#984=DIRECTION('',(0.,0.,-1.));
#985=DIRECTION('',(1.,0.,0.));
#986=DIRECTION('',(0.,0.,-1.));
#987=DIRECTION('',(1.,0.,0.));
#988=DIRECTION('',(0.,0.,1.));
#989=DIRECTION('',(1.,0.,0.));
#990=DIRECTION('',(0.,0.,1.));
#991=DIRECTION('',(1.,0.,0.));
#992=DIRECTION('',(0.,0.,1.));
#993=DIRECTION('',(1.,0.,0.));
#994=DIRECTION('',(0.,0.,1.));
#995=DIRECTION('',(1.,0.,0.));
#996=DIRECTION('',(0.,0.,1.));
#997=DIRECTION('',(1.,0.,0.));
#998=DIRECTION('',(0.,0.,1.));
#999=DIRECTION('',(1.,0.,0.));
#1000=DIRECTION('',(-0.99999978660481,-0.000653291921179561,0.));
#1001=DIRECTION('',(0.000653291921179561,-0.99999978660481,0.));
#1002=DIRECTION('',(0.000653291921179561,-0.99999978660481,0.));
#1003=DIRECTION('',(0.500565660702234,-0.865698573018193,0.));
#1004=DIRECTION('',(0.865698573018193,0.500565660702234,0.));
#1005=DIRECTION('',(0.865698573018193,0.500565660702234,0.));
#1006=DIRECTION('',(0.,0.,1.));
#1007=DIRECTION('',(1.,0.,0.));
#1008=DIRECTION('',(0.,0.,1.));
#1009=DIRECTION('',(1.,0.,0.));
#1010=DIRECTION('',(0.,0.,1.));
#1011=DIRECTION('',(1.,0.,0.));
#1012=DIRECTION('',(0.,0.,1.));
#1013=DIRECTION('',(1.,0.,0.));
#1014=DIRECTION('',(0.,0.,1.));
#1015=DIRECTION('',(1.,0.,0.));
#1016=DIRECTION('',(0.,0.,-1.));
#1017=DIRECTION('',(-1.,0.,0.));
#1018=DIRECTION('',(0.,0.,-1.));
#1019=DIRECTION('',(0.,0.,1.));
#1020=DIRECTION('',(1.,0.,0.));
#1021=DIRECTION('',(0.,0.,-1.));
#1022=DIRECTION('',(0.,0.,-1.));
#1023=DIRECTION('',(-1.,0.,0.));
#1024=DIRECTION('',(0.,0.,-1.));
#1025=DIRECTION('',(0.,0.,1.));
#1026=DIRECTION('',(1.,0.,0.));
#1027=DIRECTION('',(0.,0.,-1.));
#1028=DIRECTION('',(-1.,0.,0.));
#1029=DIRECTION('',(0.,0.,-1.));
#1030=DIRECTION('',(0.,0.,1.));
#1031=DIRECTION('',(1.,0.,0.));
#1032=DIRECTION('',(0.,0.,-1.));
#1033=DIRECTION('',(-1.,0.,0.));
#1034=DIRECTION('',(0.,0.,-1.));
#1035=DIRECTION('',(0.,0.,1.));
#1036=DIRECTION('',(1.,0.,0.));
#1037=DIRECTION('',(0.,0.,-1.));
#1038=DIRECTION('',(-1.,0.,0.));
#1039=DIRECTION('',(0.,0.,-1.));
#1040=DIRECTION('',(0.,0.,1.));
#1041=DIRECTION('',(1.,0.,0.));
#1042=DIRECTION('',(0.,0.,-1.));
#1043=DIRECTION('',(-1.,0.,0.));
#1044=DIRECTION('',(0.,0.,1.));
#1045=DIRECTION('',(1.,0.,0.));
#1046=DIRECTION('',(0.,0.,1.));
#1047=DIRECTION('',(1.,0.,0.));
#1048=DIRECTION('',(0.,0.,1.));
#1049=DIRECTION('',(1.,0.,0.));
#1050=DIRECTION('',(0.,0.,1.));
#1051=DIRECTION('',(1.,0.,0.));
#1052=DIRECTION('',(0.,0.,1.));
#1053=DIRECTION('',(1.,0.,0.));
#1054=DIRECTION('',(0.,0.,-1.));
#1055=DIRECTION('',(-1.,0.,0.));
#1056=DIRECTION('',(0.,0.,-1.));
#1057=DIRECTION('',(-1.,0.,0.));
#1058=DIRECTION('',(0.,0.,-1.));
#1059=DIRECTION('',(-1.,0.,0.));
#1060=DIRECTION('',(0.,0.,1.));
#1061=DIRECTION('',(1.,0.,0.));
#1062=CARTESIAN_POINT('',(0.,0.,0.));
#1063=CARTESIAN_POINT('',(0.,0.,0.));
#1064=CARTESIAN_POINT('',(1.50920942409982E-16,-1.196959198424E-16,0.));
#1065=CARTESIAN_POINT('',(0.018865774316146,0.00802075803476568,0.));
#1066=CARTESIAN_POINT('',(0.0163629460126345,0.0123492508998565,0.));
#1067=CARTESIAN_POINT('',(0.0205632452011445,0.00900227245740089,0.));
#1068=CARTESIAN_POINT('',(0.0245222884040234,0.011291476966181,0.));
#1069=CARTESIAN_POINT('',(1.7347234759768E-18,4.33680868994202E-18,0.));
#1070=CARTESIAN_POINT('',(0.0220194601005121,0.0156199698312719,0.));
#1071=CARTESIAN_POINT('',(0.0180604168976333,0.0133307653224919,0.));
#1072=CARTESIAN_POINT('',(0.,0.,0.));
#1073=CARTESIAN_POINT('',(1.50920942409982E-16,-1.196959198424E-16,0.));
#1074=CARTESIAN_POINT('',(-0.0163790673737879,0.0123278608024634,0.));
#1075=CARTESIAN_POINT('',(-0.0188762380033008,0.00799610147776658,0.));
#1076=CARTESIAN_POINT('',(-0.0180778192404704,0.0133071564997391,0.));
#1077=CARTESIAN_POINT('',(-0.0220398501009713,0.0155911862337223,0.));
#1078=CARTESIAN_POINT('',(-8.67361737988404E-18,-4.33680868994202E-18,0.));
#1079=CARTESIAN_POINT('',(-0.0245370207304841,0.0112594269090254,0.));
#1080=CARTESIAN_POINT('',(-0.0205749898699833,0.00897539717504227,0.));
#1081=CARTESIAN_POINT('',(0.,0.,0.));
#1082=CARTESIAN_POINT('',(1.50920942409982E-16,-1.196959198424E-16,0.));
#1083=CARTESIAN_POINT('',(-0.00248670694235778,-0.020348618837229,0.));
#1084=CARTESIAN_POINT('',(0.00251329199066628,-0.0203453523776231,0.));
#1085=CARTESIAN_POINT('',(-0.00248542596067412,-0.0223094289571401,0.));
#1086=CARTESIAN_POINT('',(-0.00248243830305211,-0.0268826631999032,0.));
#1087=CARTESIAN_POINT('',(-3.25260651745651E-18,8.67361737988404E-18,0.));
#1088=CARTESIAN_POINT('',(0.00251756062997195,-0.0268793967402973,0.));
#1089=CARTESIAN_POINT('',(0.00251457297234994,-0.0223061624975342,0.));
#1090=CARTESIAN_POINT('',(0.,0.,0.));
#1091=CARTESIAN_POINT('',(0.,9.49101269339199E-19,0.));
#1092=CARTESIAN_POINT('',(0.0159,9.49101269339199E-19,0.));
#1093=CARTESIAN_POINT('',(-1.19262238973405E-18,-5.20417042793042E-18,0.));
#1094=CARTESIAN_POINT('',(0.0173112651420855,-0.00783071511296473,0.));
#1095=CARTESIAN_POINT('',(0.00187403435341656,0.0189073529411765,0.));
#1096=CARTESIAN_POINT('',(-1.51788304147971E-18,0.02125,0.));
#1097=CARTESIAN_POINT('',(-0.00187403435341656,0.0189073529411765,0.));
#1098=CARTESIAN_POINT('',(-4.33680868994202E-19,8.67361737988404E-19,0.));
#1099=CARTESIAN_POINT('',(-0.0173112651420855,-0.00783071511296474,0.));
#1100=CARTESIAN_POINT('',(-0.0184030398304193,-0.010625,0.));
#1101=CARTESIAN_POINT('',(-0.015437230788669,-0.0110766378282117,0.));
#1102=CARTESIAN_POINT('',(0.,1.7347234759768E-18,0.));
#1103=CARTESIAN_POINT('',(0.0154372307886689,-0.0110766378282117,0.));
#1104=CARTESIAN_POINT('',(0.0184030398304193,-0.010625,0.));
#1105=CARTESIAN_POINT('',(-1.21430643318376E-17,-1.3010426069826E-18,-0.0006));
#1106=CARTESIAN_POINT('',(0.0188657743161458,0.00802075803476554,-0.0006));
#1107=CARTESIAN_POINT('',(0.0188657743161458,0.00802075803476554,-0.0006));
#1108=CARTESIAN_POINT('',(0.0163629460126345,0.0123492508998565,-0.0006));
#1109=CARTESIAN_POINT('',(0.0163629460126345,0.0123492508998565,-0.0006));
#1110=CARTESIAN_POINT('',(-1.04083408558608E-17,6.93889390390723E-18,-0.0006));
#1111=CARTESIAN_POINT('',(-0.0163790673737879,0.0123278608024634,-0.0006));
#1112=CARTESIAN_POINT('',(-0.0163790673737879,0.0123278608024634,-0.0006));
#1113=CARTESIAN_POINT('',(-0.0188762380033008,0.00799610147776658,-0.0006));
#1114=CARTESIAN_POINT('',(-0.0188762380033008,0.00799610147776658,-0.0006));
#1115=CARTESIAN_POINT('',(-1.7347234759768E-18,2.16840434497101E-18,-0.0006));
#1116=CARTESIAN_POINT('',(-0.00248670694235778,-0.020348618837229,-0.0006));
#1117=CARTESIAN_POINT('',(-0.00248670694235778,-0.020348618837229,-0.0006));
#1118=CARTESIAN_POINT('',(0.00251329199066628,-0.0203453523776231,-0.0006));
#1119=CARTESIAN_POINT('',(0.00251329199066628,-0.0203453523776231,-0.0006));
#1120=CARTESIAN_POINT('',(-1.21430643318376E-17,-1.3010426069826E-18,-0.0006));
#1121=CARTESIAN_POINT('',(1.50920942409982E-16,-1.196959198424E-16,0.0035));
#1122=CARTESIAN_POINT('',(0.0205000000000002,-1.196959198424E-16,0.0035));
#1123=CARTESIAN_POINT('',(0.0205632452011445,0.00900227245740089,-0.0006));
#1124=CARTESIAN_POINT('',(0.0205632452011445,0.00900227245740089,-0.0006));
#1125=CARTESIAN_POINT('',(0.0245222884040234,0.011291476966181,-0.0006));
#1126=CARTESIAN_POINT('',(0.0245222884040234,0.011291476966181,-0.0006));
#1127=CARTESIAN_POINT('',(0.0158699517399037,-0.0218399796799594,-0.0006));
#1128=CARTESIAN_POINT('',(0.013695454856889,-0.0232653088720268,-0.0006));
#1129=CARTESIAN_POINT('',(0.013695454856889,-0.0232653088720268,-0.0006));
#1130=CARTESIAN_POINT('',(0.013695454856889,-0.0232653088720268,0.0035));
#1131=CARTESIAN_POINT('',(0.0158699517399037,-0.0218399796799594,0.0035));
#1132=CARTESIAN_POINT('',(0.0178972546408493,-0.0202120844290857,0.0035));
#1133=CARTESIAN_POINT('',(0.0178972546408493,-0.0202120844290857,-0.0006));
#1134=CARTESIAN_POINT('',(0.0178972546408493,-0.0202120844290857,-0.0006));
#1135=CARTESIAN_POINT('',(0.0158699517399037,-0.0218399796799594,-0.0006));
#1136=CARTESIAN_POINT('',(-1.38777878078145E-17,1.38777878078145E-17,-0.0006));
#1137=CARTESIAN_POINT('',(0.00251756062997195,-0.0268793967402973,-0.0006));
#1138=CARTESIAN_POINT('',(0.00251756062997195,-0.0268793967402973,-0.0006));
#1139=CARTESIAN_POINT('',(-0.00248243830305211,-0.0268826631999032,-0.0006));
#1140=CARTESIAN_POINT('',(-0.00248243830305211,-0.0268826631999032,-0.0006));
#1141=CARTESIAN_POINT('',(-3.25260651745651E-18,8.67361737988404E-18,-0.0006));
#1142=CARTESIAN_POINT('',(-0.013695454856889,-0.0232653088720268,-0.0006));
#1143=CARTESIAN_POINT('',(-0.013695454856889,-0.0232653088720268,-0.0006));
#1144=CARTESIAN_POINT('',(-0.013695454856889,-0.0232653088720268,0.0035));
#1145=CARTESIAN_POINT('',(-3.25260651745651E-18,8.67361737988404E-18,0.0035));
#1146=CARTESIAN_POINT('',(-1.38777878078145E-17,1.38777878078145E-17,-0.0006));
#1147=CARTESIAN_POINT('',(-0.0180778192404704,0.0133071564997391,-0.0006));
#1148=CARTESIAN_POINT('',(-0.0180778192404704,0.0133071564997391,-0.0006));
#1149=CARTESIAN_POINT('',(-0.0220398501009713,0.0155911862337223,-0.0006));
#1150=CARTESIAN_POINT('',(-0.0220398501009713,0.0155911862337223,-0.0006));
#1151=CARTESIAN_POINT('',(-8.67361737988404E-18,-4.33680868994202E-18,-0.0006));
#1152=CARTESIAN_POINT('',(-0.0178972546408493,0.0202120844290857,-0.0006));
#1153=CARTESIAN_POINT('',(-0.0178972546408493,0.0202120844290857,-0.0006));
#1154=CARTESIAN_POINT('',(-0.0178972546408493,0.0202120844290857,0.0035));
#1155=CARTESIAN_POINT('',(-8.67361737988404E-18,-4.33680868994202E-18,0.0035));
#1156=CARTESIAN_POINT('',(-0.0178972546408493,-0.0202120844290857,0.0035));
#1157=CARTESIAN_POINT('',(-0.0178972546408493,-0.0202120844290857,-0.0006));
#1158=CARTESIAN_POINT('',(-0.0178972546408493,-0.0202120844290857,-0.0006));
#1159=CARTESIAN_POINT('',(8.67361737988404E-18,8.67361737988404E-19,-0.0006));
#1160=CARTESIAN_POINT('',(-0.0245370207304841,0.0112594269090254,-0.0006));
#1161=CARTESIAN_POINT('',(-0.0245370207304841,0.0112594269090254,-0.0006));
#1162=CARTESIAN_POINT('',(-8.67361737988404E-18,-4.33680868994202E-18,-0.0006));
#1163=CARTESIAN_POINT('',(-0.0158699517399037,0.0218399796799594,-0.0006));
#1164=CARTESIAN_POINT('',(-0.013695454856889,0.0232653088720268,-0.0006));
#1165=CARTESIAN_POINT('',(-0.013695454856889,0.0232653088720268,-0.0006));
#1166=CARTESIAN_POINT('',(-0.013695454856889,0.0232653088720268,0.0035));
#1167=CARTESIAN_POINT('',(-0.0158699517399037,0.0218399796799594,0.0035));
#1168=CARTESIAN_POINT('',(-0.0158699517399037,0.0218399796799594,-0.0006));
#1169=CARTESIAN_POINT('',(2.60208521396521E-18,-5.20417042793042E-18,-0.0006));
#1170=CARTESIAN_POINT('',(0.013695454856889,0.0232653088720268,-0.0006));
#1171=CARTESIAN_POINT('',(0.013695454856889,0.0232653088720268,-0.0006));
#1172=CARTESIAN_POINT('',(0.013695454856889,0.0232653088720268,0.0035));
#1173=CARTESIAN_POINT('',(2.60208521396521E-18,-5.20417042793042E-18,0.0035));
#1174=CARTESIAN_POINT('',(2.60208521396521E-18,-5.20417042793042E-18,-0.0006));
#1175=CARTESIAN_POINT('',(0.0158699517399037,0.0218399796799594,-0.0006));
#1176=CARTESIAN_POINT('',(0.0178972546408493,0.0202120844290857,-0.0006));
#1177=CARTESIAN_POINT('',(0.0178972546408493,0.0202120844290857,-0.0006));
#1178=CARTESIAN_POINT('',(0.0178972546408493,0.0202120844290857,0.0035));
#1179=CARTESIAN_POINT('',(0.0158699517399037,0.0218399796799594,0.0035));
#1180=CARTESIAN_POINT('',(0.0158699517399037,0.0218399796799594,-0.0006));
#1181=CARTESIAN_POINT('',(-4.5102810375397E-17,-4.5102810375397E-17,-0.0006));
#1182=CARTESIAN_POINT('',(0.0220194601005121,0.0156199698312719,-0.0006));
#1183=CARTESIAN_POINT('',(0.0220194601005121,0.0156199698312719,-0.0006));
#1184=CARTESIAN_POINT('',(1.7347234759768E-18,4.33680868994202E-18,-0.0006));
#1185=CARTESIAN_POINT('',(1.7347234759768E-18,4.33680868994202E-18,0.0035));
#1186=CARTESIAN_POINT('',(-4.5102810375397E-17,-4.5102810375397E-17,-0.0006));
#1187=CARTESIAN_POINT('',(-0.0205749898699833,0.00897539717504227,-0.0006));
#1188=CARTESIAN_POINT('',(-0.0205749898699833,0.00897539717504227,-0.0006));
#1189=CARTESIAN_POINT('',(-0.00248542596067412,-0.0223094289571401,-0.0006));
#1190=CARTESIAN_POINT('',(-0.00248542596067412,-0.0223094289571401,-0.0006));
#1191=CARTESIAN_POINT('',(-0.0158699517399037,-0.0218399796799594,-0.0006));
#1192=CARTESIAN_POINT('',(-0.0158699517399037,-0.0218399796799594,0.0035));
#1193=CARTESIAN_POINT('',(-0.0158699517399037,-0.0218399796799594,-0.0006));
#1194=CARTESIAN_POINT('',(-0.0158699517399037,-0.0218399796799594,-0.0006));
#1195=CARTESIAN_POINT('',(-0.0158699517399037,-0.0218399796799594,-0.0006));
#1196=CARTESIAN_POINT('',(-0.0150699517399037,-0.0218399796799594,-0.0006));
#1197=CARTESIAN_POINT('',(-0.0158699517399037,-0.0218399796799594,0.0035));
#1198=CARTESIAN_POINT('',(-0.0150699517399037,-0.0218399796799594,0.0035));
#1199=CARTESIAN_POINT('',(0.0158699517399037,-0.0218399796799594,-0.0006));
#1200=CARTESIAN_POINT('',(0.0158699517399037,-0.0218399796799594,-0.0006));
#1201=CARTESIAN_POINT('',(0.0166699517399037,-0.0218399796799594,-0.0006));
#1202=CARTESIAN_POINT('',(0.0158699517399037,-0.0218399796799594,0.0035));
#1203=CARTESIAN_POINT('',(0.0166699517399037,-0.0218399796799594,0.0035));
#1204=CARTESIAN_POINT('',(0.0158699517399037,0.0218399796799594,-0.0006));
#1205=CARTESIAN_POINT('',(0.0158699517399037,0.0218399796799594,-0.0006));
#1206=CARTESIAN_POINT('',(0.0166699517399037,0.0218399796799594,-0.0006));
#1207=CARTESIAN_POINT('',(0.0158699517399037,0.0218399796799594,0.0035));
#1208=CARTESIAN_POINT('',(0.0166699517399037,0.0218399796799594,0.0035));
#1209=CARTESIAN_POINT('',(-2.25121077463145E-17,2.28983498828938E-16,-0.0006));
#1210=CARTESIAN_POINT('',(-2.25121077463145E-17,2.28983498828938E-16,-0.0006));
#1211=CARTESIAN_POINT('',(0.03175,2.28983498828938E-16,-0.0006));
#1212=CARTESIAN_POINT('',(-2.25121077463145E-17,2.28983498828938E-16,0.0035));
#1213=CARTESIAN_POINT('',(0.03175,2.28983498828938E-16,0.0035));
#1214=CARTESIAN_POINT('',(0.,9.49101269339199E-19,-0.0006));
#1215=CARTESIAN_POINT('',(0.,9.49101269339199E-19,-0.0004));
#1216=CARTESIAN_POINT('',(0.0155,9.49101269339199E-19,-0.0004));
#1217=CARTESIAN_POINT('',(0.,9.49101269339199E-19,-0.0006));
#1218=CARTESIAN_POINT('',(0.0155,9.49101269339199E-19,-0.0006));
#1219=CARTESIAN_POINT('',(0.00251457297234994,-0.0223061624975342,-0.0006));
#1220=CARTESIAN_POINT('',(0.00251457297234994,-0.0223061624975342,-0.0006));
#1221=CARTESIAN_POINT('',(0.0180604168976333,0.0133307653224919,-0.0006));
#1222=CARTESIAN_POINT('',(0.0180604168976333,0.0133307653224919,-0.0006));
#1223=CARTESIAN_POINT('',(-0.0158699517399037,0.0218399796799594,-0.0006));
#1224=CARTESIAN_POINT('',(-0.0158699517399037,0.0218399796799594,-0.0006));
#1225=CARTESIAN_POINT('',(-0.0150699517399037,0.0218399796799594,-0.0006));
#1226=CARTESIAN_POINT('',(-0.0158699517399037,0.0218399796799594,0.0035));
#1227=CARTESIAN_POINT('',(-0.0150699517399037,0.0218399796799594,0.0035));
#1228=CARTESIAN_POINT('',(0.,0.,-0.0006));
#1229=CARTESIAN_POINT('',(0.,0.,0.0035));
#1230=CARTESIAN_POINT('',(-1.19262238973405E-18,-5.20417042793042E-18,0.0035));
#1231=CARTESIAN_POINT('',(0.0173112651420855,-0.00783071511296473,0.0035));
#1232=CARTESIAN_POINT('',(0.0173112651420855,-0.00783071511296473,0.0031));
#1233=CARTESIAN_POINT('',(0.0173112651420855,-0.00783071511296473,0.0031));
#1234=CARTESIAN_POINT('',(0.0172256689994019,-0.0080199414479494,0.00324510019535859));
#1235=CARTESIAN_POINT('',(0.0171347817995751,-0.00821276210508604,0.00338131511910126));
#1236=CARTESIAN_POINT('',(0.0170355567536872,-0.0084136678144496,0.0035));
#1237=CARTESIAN_POINT('',(0.0170355567536872,-0.0084136678144496,0.0035));
#1238=CARTESIAN_POINT('',(-1.19262238973405E-18,-5.20417042793042E-18,0.0035));
#1239=CARTESIAN_POINT('',(0.00123132831052668,0.0189600588235294,0.0035));
#1240=CARTESIAN_POINT('',(0.00123132831052668,0.0189600588235294,0.0035));
#1241=CARTESIAN_POINT('',(0.00145493028154485,0.0189455373792783,0.00338131511910125));
#1242=CARTESIAN_POINT('',(0.00166736146891301,0.0189278376746388,0.0032451001953586));
#1243=CARTESIAN_POINT('',(0.00187403435341657,0.0189073529411765,0.0031));
#1244=CARTESIAN_POINT('',(0.00187403435341656,0.0189073529411765,0.0031));
#1245=CARTESIAN_POINT('',(0.00187403435341656,0.0189073529411765,0.0035));
#1246=CARTESIAN_POINT('',(0.0184030398304193,-0.010625,0.0035));
#1247=CARTESIAN_POINT('',(0.0154372307886689,-0.0110766378282117,0.0035));
#1248=CARTESIAN_POINT('',(0.0154372307886689,-0.0110766378282117,0.0031));
#1249=CARTESIAN_POINT('',(0.0184030398304193,-0.010625,0.0031));
#1250=CARTESIAN_POINT('',(0.,1.7347234759768E-18,0.0035));
#1251=CARTESIAN_POINT('',(-0.015437230788669,-0.0110766378282117,0.0035));
#1252=CARTESIAN_POINT('',(-0.015437230788669,-0.0110766378282117,0.0031));
#1253=CARTESIAN_POINT('',(-0.0154372307886689,-0.0110766378282117,0.0031));
#1254=CARTESIAN_POINT('',(-0.0155583075304889,-0.0109078962266894,0.0032451001953586));
#1255=CARTESIAN_POINT('',(-0.0156798515180302,-0.0107327752741922,0.00338131511910126));
#1256=CARTESIAN_POINT('',(-0.0158042284431604,-0.0105463910090798,0.0035));
#1257=CARTESIAN_POINT('',(-0.0158042284431604,-0.0105463910090798,0.0035));
#1258=CARTESIAN_POINT('',(0.,1.7347234759768E-18,0.0035));
#1259=CARTESIAN_POINT('',(0.0158042284431604,-0.0105463910090798,0.0035));
#1260=CARTESIAN_POINT('',(0.0158042284431604,-0.0105463910090798,0.0035));
#1261=CARTESIAN_POINT('',(0.0156798515180302,-0.0107327752741922,0.00338131511910125));
#1262=CARTESIAN_POINT('',(0.0155583075304889,-0.0109078962266894,0.00324510019535861));
#1263=CARTESIAN_POINT('',(0.0154372307886689,-0.0110766378282117,0.0031));
#1264=CARTESIAN_POINT('',(-0.0184030398304193,-0.010625,0.0035));
#1265=CARTESIAN_POINT('',(-0.0173112651420855,-0.00783071511296474,0.0035));
#1266=CARTESIAN_POINT('',(-0.0173112651420855,-0.00783071511296474,0.0031));
#1267=CARTESIAN_POINT('',(-0.0184030398304193,-0.010625,0.0031));
#1268=CARTESIAN_POINT('',(-4.33680868994202E-19,8.67361737988404E-19,0.0035));
#1269=CARTESIAN_POINT('',(-0.00187403435341655,0.0189073529411765,0.0035));
#1270=CARTESIAN_POINT('',(-0.00187403435341655,0.0189073529411765,0.0031));
#1271=CARTESIAN_POINT('',(-0.00187403435341656,0.0189073529411765,0.0031));
#1272=CARTESIAN_POINT('',(-0.00166736146891301,0.0189278376746388,0.0032451001953586));
#1273=CARTESIAN_POINT('',(-0.00145493028154485,0.0189455373792783,0.00338131511910126));
#1274=CARTESIAN_POINT('',(-0.00123132831052669,0.0189600588235294,0.0035));
#1275=CARTESIAN_POINT('',(-0.00123132831052669,0.0189600588235294,0.0035));
#1276=CARTESIAN_POINT('',(-4.33680868994202E-19,8.67361737988404E-19,0.0035));
#1277=CARTESIAN_POINT('',(-0.0170355567536871,-0.00841366781444962,0.0035));
#1278=CARTESIAN_POINT('',(-0.0170355567536871,-0.00841366781444961,0.0035));
#1279=CARTESIAN_POINT('',(-0.0171347817995751,-0.00821276210508604,0.00338131511910126));
#1280=CARTESIAN_POINT('',(-0.017225668999402,-0.00801994144794941,0.0032451001953586));
#1281=CARTESIAN_POINT('',(-0.0173112651420856,-0.00783071511296474,0.0031));
#1282=CARTESIAN_POINT('',(-1.51788304147971E-18,0.02125,0.0035));
#1283=CARTESIAN_POINT('',(-1.51788304147971E-18,0.02125,0.0031));
#1284=CARTESIAN_POINT('',(0.,0.,0.0035));
#1285=CARTESIAN_POINT('',(-0.0184030398304193,-0.010625,0.0035));
#1286=CARTESIAN_POINT('',(-1.51788304147971E-18,0.02125,0.0035));
#1287=CARTESIAN_POINT('',(0.0184030398304193,-0.010625,0.0035));
#1288=CARTESIAN_POINT('',(-0.0184030398304193,-0.010625,0.0031));
#1289=CARTESIAN_POINT('',(0.0184030398304193,-0.010625,0.0035));
#1290=CARTESIAN_POINT('',(-1.51788304147971E-18,0.02125,0.0035));
#1291=CARTESIAN_POINT('',(0.,9.49101269339199E-19,-0.0004));
#1292=MECHANICAL_DESIGN_GEOMETRIC_PRESENTATION_REPRESENTATION('',(#725),
#1293);
#1293=(
GEOMETRIC_REPRESENTATION_CONTEXT(3)
GLOBAL_UNCERTAINTY_ASSIGNED_CONTEXT((#1294))
GLOBAL_UNIT_ASSIGNED_CONTEXT((#1297,#1296,#1295))
REPRESENTATION_CONTEXT('flexture','TOP_LEVEL_ASSEMBLY_PART')
);
#1294=UNCERTAINTY_MEASURE_WITH_UNIT(LENGTH_MEASURE(2.E-5),#1297,
'DISTANCE_ACCURACY_VALUE','Maximum Tolerance applied to model');
#1295=(
NAMED_UNIT(*)
SI_UNIT($,.STERADIAN.)
SOLID_ANGLE_UNIT()
);
#1296=(
NAMED_UNIT(*)
PLANE_ANGLE_UNIT()
SI_UNIT($,.RADIAN.)
);
#1297=(
LENGTH_UNIT()
NAMED_UNIT(*)
SI_UNIT($,.METRE.)
);
#1298=PRODUCT_DEFINITION_SHAPE('','',#1299);
#1299=PRODUCT_DEFINITION('','',#1301,#1300);
#1300=PRODUCT_DEFINITION_CONTEXT('',#1307,'design');
#1301=PRODUCT_DEFINITION_FORMATION_WITH_SPECIFIED_SOURCE('','',#1303,
 .NOT_KNOWN.);
#1302=PRODUCT_RELATED_PRODUCT_CATEGORY('','',(#1303));
#1303=PRODUCT('flexture','flexture','flexture',(#1305));
#1304=PRODUCT_CATEGORY('','');
#1305=PRODUCT_CONTEXT('',#1307,'mechanical');
#1306=APPLICATION_PROTOCOL_DEFINITION('international standard',
'ap242_managed_model_based_3d_engineering',2020,#1307);
#1307=APPLICATION_CONTEXT('managed model based 3d engineering');
ENDSEC;
END-ISO-10303-21;
