ISO-10303-21;
HEADER;
/* Generated by software containing ST-Developer
 * from STEP Tools, Inc. (www.steptools.com) 
 */
/* OPTION: using custom renumber hook */

FILE_DESCRIPTION(
/* description */ ('STEP AP242 Edition 2',
'CAx-IF Rec.Pracs.---Representation and Presentation of Product Manufa
cturing Information (PMI)---4.0---2014-10-13',
'CAx-IF Rec.Pracs.---3D Tessellated Geometry---0.4---2014-09-14','2;1',
'CAx-IF Rec.Pracs.---User Defined Attributes---1.5---2016-08-15'),
/* implementation_level */ '2;1');

FILE_NAME(
/* name */ 'droop4 - internal spacer',
/* time_stamp */ '2026-07-20T19:22:27Z',
/* author */ (''),
/* organization */ (''),
/* preprocessor_version */ 'ST-DEVELOPER v20',
/* originating_system */ 'ONSHAPE BY PTC INC, 1.218',
/* authorisation */ '  ');

FILE_SCHEMA (('AP242_MANAGED_MODEL_BASED_3D_ENGINEERING_MIM_LF { 1 0 10303 442 3 1 4 }'));
ENDSEC;

DATA;
#10=SHAPE_REPRESENTATION_RELATIONSHIP('','',#707,#11);
#11=ADVANCED_BREP_SHAPE_REPRESENTATION('',(#705),#1221);
#12=CONICAL_SURFACE('',#779,0.00225,0.785398163397449);
#13=CONICAL_SURFACE('',#780,0.00225,0.785398163397449);
#14=CONICAL_SURFACE('',#781,0.00225,0.785398163397448);
#15=CONICAL_SURFACE('',#782,0.00225,0.785398163397449);
#16=PLANE('',#757);
#17=PLANE('',#770);
#18=PLANE('',#783);
#19=PLANE('',#785);
#20=PLANE('',#788);
#21=PLANE('',#789);
#22=PLANE('',#792);
#23=PLANE('',#794);
#24=PLANE('',#795);
#25=PLANE('',#797);
#26=CIRCLE('',#710,0.0269970383680858);
#27=CIRCLE('',#711,0.0269970383680858);
#28=CIRCLE('',#713,0.0269970383680858);
#29=CIRCLE('',#714,0.0269970383680858);
#30=CIRCLE('',#716,0.0269970383680858);
#31=CIRCLE('',#717,0.0269970383680858);
#32=CIRCLE('',#719,0.0269970383680858);
#33=CIRCLE('',#720,0.0269970383680858);
#34=CIRCLE('',#722,0.0269970383680858);
#35=CIRCLE('',#723,0.0269970383680858);
#36=CIRCLE('',#725,0.0026);
#37=CIRCLE('',#726,0.0026);
#38=CIRCLE('',#728,0.0269970383680858);
#39=CIRCLE('',#729,0.0269970383680858);
#40=CIRCLE('',#731,0.0026);
#41=CIRCLE('',#732,0.0026);
#42=CIRCLE('',#734,0.0295970383680859);
#43=CIRCLE('',#735,0.0295970383680859);
#44=CIRCLE('',#737,0.0026);
#45=CIRCLE('',#738,0.0026);
#46=CIRCLE('',#740,0.0269970383680858);
#47=CIRCLE('',#741,0.0269970383680858);
#48=CIRCLE('',#743,0.00125);
#49=CIRCLE('',#744,0.00125);
#50=CIRCLE('',#746,0.00125);
#51=CIRCLE('',#747,0.00125);
#52=CIRCLE('',#749,0.00125);
#53=CIRCLE('',#750,0.00125);
#54=CIRCLE('',#752,0.0026);
#55=CIRCLE('',#753,0.0026);
#56=CIRCLE('',#755,0.00125);
#57=CIRCLE('',#756,0.00125);
#58=CIRCLE('',#758,0.00225);
#59=CIRCLE('',#759,0.00225);
#60=CIRCLE('',#760,0.00225);
#61=CIRCLE('',#761,0.00225);
#62=CIRCLE('',#762,0.00275);
#63=CIRCLE('',#763,0.00275);
#64=CIRCLE('',#764,0.00275);
#65=CIRCLE('',#765,0.00275);
#66=CIRCLE('',#766,0.0009);
#67=CIRCLE('',#767,0.0009);
#68=CIRCLE('',#768,0.0009);
#69=CIRCLE('',#769,0.0009);
#70=CIRCLE('',#771,0.00275);
#71=CIRCLE('',#772,0.00275);
#72=CIRCLE('',#773,0.00275);
#73=CIRCLE('',#774,0.00275);
#74=CIRCLE('',#775,0.0009);
#75=CIRCLE('',#776,0.0009);
#76=CIRCLE('',#777,0.0009);
#77=CIRCLE('',#778,0.0009);
#78=ORIENTED_EDGE('',*,*,#262,.F.);
#79=ORIENTED_EDGE('',*,*,#263,.T.);
#80=ORIENTED_EDGE('',*,*,#264,.T.);
#81=ORIENTED_EDGE('',*,*,#265,.F.);
#82=ORIENTED_EDGE('',*,*,#266,.F.);
#83=ORIENTED_EDGE('',*,*,#267,.T.);
#84=ORIENTED_EDGE('',*,*,#268,.F.);
#85=ORIENTED_EDGE('',*,*,#269,.F.);
#86=ORIENTED_EDGE('',*,*,#270,.F.);
#87=ORIENTED_EDGE('',*,*,#271,.T.);
#88=ORIENTED_EDGE('',*,*,#272,.T.);
#89=ORIENTED_EDGE('',*,*,#273,.F.);
#90=ORIENTED_EDGE('',*,*,#274,.F.);
#91=ORIENTED_EDGE('',*,*,#275,.T.);
#92=ORIENTED_EDGE('',*,*,#276,.F.);
#93=ORIENTED_EDGE('',*,*,#277,.F.);
#94=ORIENTED_EDGE('',*,*,#278,.T.);
#95=ORIENTED_EDGE('',*,*,#279,.F.);
#96=ORIENTED_EDGE('',*,*,#280,.F.);
#97=ORIENTED_EDGE('',*,*,#281,.T.);
#98=ORIENTED_EDGE('',*,*,#282,.T.);
#99=ORIENTED_EDGE('',*,*,#281,.F.);
#100=ORIENTED_EDGE('',*,*,#283,.F.);
#101=ORIENTED_EDGE('',*,*,#268,.T.);
#102=ORIENTED_EDGE('',*,*,#284,.T.);
#103=ORIENTED_EDGE('',*,*,#285,.T.);
#104=ORIENTED_EDGE('',*,*,#286,.F.);
#105=ORIENTED_EDGE('',*,*,#287,.T.);
#106=ORIENTED_EDGE('',*,*,#288,.F.);
#107=ORIENTED_EDGE('',*,*,#287,.F.);
#108=ORIENTED_EDGE('',*,*,#289,.T.);
#109=ORIENTED_EDGE('',*,*,#290,.T.);
#110=ORIENTED_EDGE('',*,*,#291,.F.);
#111=ORIENTED_EDGE('',*,*,#290,.F.);
#112=ORIENTED_EDGE('',*,*,#292,.T.);
#113=ORIENTED_EDGE('',*,*,#293,.T.);
#114=ORIENTED_EDGE('',*,*,#294,.T.);
#115=ORIENTED_EDGE('',*,*,#293,.F.);
#116=ORIENTED_EDGE('',*,*,#295,.F.);
#117=ORIENTED_EDGE('',*,*,#276,.T.);
#118=ORIENTED_EDGE('',*,*,#296,.T.);
#119=ORIENTED_EDGE('',*,*,#297,.T.);
#120=ORIENTED_EDGE('',*,*,#298,.F.);
#121=ORIENTED_EDGE('',*,*,#299,.T.);
#122=ORIENTED_EDGE('',*,*,#300,.T.);
#123=ORIENTED_EDGE('',*,*,#301,.T.);
#124=ORIENTED_EDGE('',*,*,#302,.T.);
#125=ORIENTED_EDGE('',*,*,#303,.T.);
#126=ORIENTED_EDGE('',*,*,#304,.T.);
#127=ORIENTED_EDGE('',*,*,#305,.T.);
#128=ORIENTED_EDGE('',*,*,#306,.F.);
#129=ORIENTED_EDGE('',*,*,#299,.F.);
#130=ORIENTED_EDGE('',*,*,#307,.T.);
#131=ORIENTED_EDGE('',*,*,#279,.T.);
#132=ORIENTED_EDGE('',*,*,#308,.T.);
#133=ORIENTED_EDGE('',*,*,#309,.T.);
#134=ORIENTED_EDGE('',*,*,#310,.T.);
#135=ORIENTED_EDGE('',*,*,#311,.T.);
#136=ORIENTED_EDGE('',*,*,#312,.T.);
#137=ORIENTED_EDGE('',*,*,#313,.T.);
#138=ORIENTED_EDGE('',*,*,#280,.T.);
#139=ORIENTED_EDGE('',*,*,#307,.F.);
#140=ORIENTED_EDGE('',*,*,#298,.T.);
#141=ORIENTED_EDGE('',*,*,#314,.F.);
#142=ORIENTED_EDGE('',*,*,#315,.T.);
#143=ORIENTED_EDGE('',*,*,#316,.T.);
#144=ORIENTED_EDGE('',*,*,#273,.T.);
#145=ORIENTED_EDGE('',*,*,#317,.F.);
#146=ORIENTED_EDGE('',*,*,#318,.T.);
#147=ORIENTED_EDGE('',*,*,#319,.T.);
#148=ORIENTED_EDGE('',*,*,#277,.T.);
#149=ORIENTED_EDGE('',*,*,#295,.T.);
#150=ORIENTED_EDGE('',*,*,#292,.F.);
#151=ORIENTED_EDGE('',*,*,#289,.F.);
#152=ORIENTED_EDGE('',*,*,#286,.T.);
#153=ORIENTED_EDGE('',*,*,#320,.F.);
#154=ORIENTED_EDGE('',*,*,#321,.T.);
#155=ORIENTED_EDGE('',*,*,#322,.T.);
#156=ORIENTED_EDGE('',*,*,#265,.T.);
#157=ORIENTED_EDGE('',*,*,#323,.F.);
#158=ORIENTED_EDGE('',*,*,#324,.T.);
#159=ORIENTED_EDGE('',*,*,#325,.T.);
#160=ORIENTED_EDGE('',*,*,#269,.T.);
#161=ORIENTED_EDGE('',*,*,#283,.T.);
#162=ORIENTED_EDGE('',*,*,#326,.F.);
#163=ORIENTED_EDGE('',*,*,#327,.F.);
#164=ORIENTED_EDGE('',*,*,#328,.F.);
#165=ORIENTED_EDGE('',*,*,#329,.F.);
#166=ORIENTED_EDGE('',*,*,#278,.F.);
#167=ORIENTED_EDGE('',*,*,#282,.F.);
#168=ORIENTED_EDGE('',*,*,#267,.F.);
#169=ORIENTED_EDGE('',*,*,#330,.F.);
#170=ORIENTED_EDGE('',*,*,#331,.F.);
#171=ORIENTED_EDGE('',*,*,#332,.T.);
#172=ORIENTED_EDGE('',*,*,#263,.F.);
#173=ORIENTED_EDGE('',*,*,#333,.F.);
#174=ORIENTED_EDGE('',*,*,#334,.F.);
#175=ORIENTED_EDGE('',*,*,#335,.T.);
#176=ORIENTED_EDGE('',*,*,#284,.F.);
#177=ORIENTED_EDGE('',*,*,#288,.T.);
#178=ORIENTED_EDGE('',*,*,#291,.T.);
#179=ORIENTED_EDGE('',*,*,#294,.F.);
#180=ORIENTED_EDGE('',*,*,#275,.F.);
#181=ORIENTED_EDGE('',*,*,#336,.F.);
#182=ORIENTED_EDGE('',*,*,#337,.F.);
#183=ORIENTED_EDGE('',*,*,#338,.T.);
#184=ORIENTED_EDGE('',*,*,#271,.F.);
#185=ORIENTED_EDGE('',*,*,#339,.F.);
#186=ORIENTED_EDGE('',*,*,#340,.F.);
#187=ORIENTED_EDGE('',*,*,#341,.T.);
#188=ORIENTED_EDGE('',*,*,#296,.F.);
#189=ORIENTED_EDGE('',*,*,#306,.T.);
#190=ORIENTED_EDGE('',*,*,#305,.F.);
#191=ORIENTED_EDGE('',*,*,#303,.F.);
#192=ORIENTED_EDGE('',*,*,#301,.F.);
#193=ORIENTED_EDGE('',*,*,#309,.F.);
#194=ORIENTED_EDGE('',*,*,#342,.T.);
#195=ORIENTED_EDGE('',*,*,#343,.T.);
#196=ORIENTED_EDGE('',*,*,#344,.T.);
#197=ORIENTED_EDGE('',*,*,#345,.T.);
#198=ORIENTED_EDGE('',*,*,#302,.F.);
#199=ORIENTED_EDGE('',*,*,#310,.F.);
#200=ORIENTED_EDGE('',*,*,#304,.F.);
#201=ORIENTED_EDGE('',*,*,#311,.F.);
#202=ORIENTED_EDGE('',*,*,#300,.F.);
#203=ORIENTED_EDGE('',*,*,#312,.F.);
#204=ORIENTED_EDGE('',*,*,#308,.F.);
#205=ORIENTED_EDGE('',*,*,#313,.F.);
#206=ORIENTED_EDGE('',*,*,#338,.F.);
#207=ORIENTED_EDGE('',*,*,#346,.T.);
#208=ORIENTED_EDGE('',*,*,#317,.T.);
#209=ORIENTED_EDGE('',*,*,#272,.F.);
#210=ORIENTED_EDGE('',*,*,#346,.F.);
#211=ORIENTED_EDGE('',*,*,#337,.T.);
#212=ORIENTED_EDGE('',*,*,#347,.T.);
#213=ORIENTED_EDGE('',*,*,#318,.F.);
#214=ORIENTED_EDGE('',*,*,#347,.F.);
#215=ORIENTED_EDGE('',*,*,#336,.T.);
#216=ORIENTED_EDGE('',*,*,#274,.T.);
#217=ORIENTED_EDGE('',*,*,#319,.F.);
#218=ORIENTED_EDGE('',*,*,#326,.T.);
#219=ORIENTED_EDGE('',*,*,#342,.F.);
#220=ORIENTED_EDGE('',*,*,#348,.F.);
#221=ORIENTED_EDGE('',*,*,#340,.T.);
#222=ORIENTED_EDGE('',*,*,#349,.T.);
#223=ORIENTED_EDGE('',*,*,#315,.F.);
#224=ORIENTED_EDGE('',*,*,#349,.F.);
#225=ORIENTED_EDGE('',*,*,#339,.T.);
#226=ORIENTED_EDGE('',*,*,#270,.T.);
#227=ORIENTED_EDGE('',*,*,#316,.F.);
#228=ORIENTED_EDGE('',*,*,#341,.F.);
#229=ORIENTED_EDGE('',*,*,#348,.T.);
#230=ORIENTED_EDGE('',*,*,#314,.T.);
#231=ORIENTED_EDGE('',*,*,#297,.F.);
#232=ORIENTED_EDGE('',*,*,#327,.T.);
#233=ORIENTED_EDGE('',*,*,#343,.F.);
#234=ORIENTED_EDGE('',*,*,#350,.F.);
#235=ORIENTED_EDGE('',*,*,#331,.T.);
#236=ORIENTED_EDGE('',*,*,#351,.T.);
#237=ORIENTED_EDGE('',*,*,#324,.F.);
#238=ORIENTED_EDGE('',*,*,#351,.F.);
#239=ORIENTED_EDGE('',*,*,#330,.T.);
#240=ORIENTED_EDGE('',*,*,#266,.T.);
#241=ORIENTED_EDGE('',*,*,#325,.F.);
#242=ORIENTED_EDGE('',*,*,#328,.T.);
#243=ORIENTED_EDGE('',*,*,#344,.F.);
#244=ORIENTED_EDGE('',*,*,#332,.F.);
#245=ORIENTED_EDGE('',*,*,#350,.T.);
#246=ORIENTED_EDGE('',*,*,#323,.T.);
#247=ORIENTED_EDGE('',*,*,#264,.F.);
#248=ORIENTED_EDGE('',*,*,#335,.F.);
#249=ORIENTED_EDGE('',*,*,#352,.T.);
#250=ORIENTED_EDGE('',*,*,#320,.T.);
#251=ORIENTED_EDGE('',*,*,#285,.F.);
#252=ORIENTED_EDGE('',*,*,#352,.F.);
#253=ORIENTED_EDGE('',*,*,#334,.T.);
#254=ORIENTED_EDGE('',*,*,#353,.T.);
#255=ORIENTED_EDGE('',*,*,#321,.F.);
#256=ORIENTED_EDGE('',*,*,#353,.F.);
#257=ORIENTED_EDGE('',*,*,#333,.T.);
#258=ORIENTED_EDGE('',*,*,#262,.T.);
#259=ORIENTED_EDGE('',*,*,#322,.F.);
#260=ORIENTED_EDGE('',*,*,#329,.T.);
#261=ORIENTED_EDGE('',*,*,#345,.F.);
#262=EDGE_CURVE('',#354,#355,#422,.T.);
#263=EDGE_CURVE('',#354,#356,#26,.T.);
#264=EDGE_CURVE('',#356,#357,#423,.T.);
#265=EDGE_CURVE('',#355,#357,#27,.T.);
#266=EDGE_CURVE('',#358,#359,#424,.T.);
#267=EDGE_CURVE('',#358,#360,#28,.T.);
#268=EDGE_CURVE('',#361,#360,#425,.T.);
#269=EDGE_CURVE('',#359,#361,#29,.T.);
#270=EDGE_CURVE('',#362,#363,#426,.T.);
#271=EDGE_CURVE('',#362,#364,#30,.T.);
#272=EDGE_CURVE('',#364,#365,#427,.T.);
#273=EDGE_CURVE('',#363,#365,#31,.T.);
#274=EDGE_CURVE('',#366,#367,#428,.T.);
#275=EDGE_CURVE('',#366,#368,#32,.T.);
#276=EDGE_CURVE('',#369,#368,#429,.T.);
#277=EDGE_CURVE('',#367,#369,#33,.T.);
#278=EDGE_CURVE('',#370,#371,#34,.T.);
#279=EDGE_CURVE('',#372,#371,#430,.T.);
#280=EDGE_CURVE('',#373,#372,#35,.T.);
#281=EDGE_CURVE('',#373,#370,#431,.T.);
#282=EDGE_CURVE('',#360,#370,#36,.T.);
#283=EDGE_CURVE('',#361,#373,#37,.T.);
#284=EDGE_CURVE('',#374,#375,#38,.T.);
#285=EDGE_CURVE('',#375,#376,#432,.T.);
#286=EDGE_CURVE('',#377,#376,#39,.T.);
#287=EDGE_CURVE('',#377,#374,#433,.T.);
#288=EDGE_CURVE('',#374,#378,#40,.T.);
#289=EDGE_CURVE('',#377,#379,#41,.T.);
#290=EDGE_CURVE('',#379,#378,#434,.T.);
#291=EDGE_CURVE('',#378,#380,#42,.T.);
#292=EDGE_CURVE('',#379,#381,#43,.T.);
#293=EDGE_CURVE('',#381,#380,#435,.T.);
#294=EDGE_CURVE('',#368,#380,#44,.T.);
#295=EDGE_CURVE('',#369,#381,#45,.T.);
#296=EDGE_CURVE('',#382,#383,#46,.T.);
#297=EDGE_CURVE('',#383,#384,#436,.T.);
#298=EDGE_CURVE('',#385,#384,#47,.T.);
#299=EDGE_CURVE('',#385,#382,#437,.T.);
#300=EDGE_CURVE('',#386,#386,#48,.F.);
#301=EDGE_CURVE('',#387,#387,#49,.T.);
#302=EDGE_CURVE('',#388,#388,#50,.F.);
#303=EDGE_CURVE('',#389,#389,#51,.T.);
#304=EDGE_CURVE('',#390,#390,#52,.F.);
#305=EDGE_CURVE('',#391,#391,#53,.T.);
#306=EDGE_CURVE('',#382,#371,#54,.T.);
#307=EDGE_CURVE('',#385,#372,#55,.T.);
#308=EDGE_CURVE('',#392,#392,#56,.F.);
#309=EDGE_CURVE('',#393,#393,#57,.T.);
#310=EDGE_CURVE('',#394,#394,#58,.T.);
#311=EDGE_CURVE('',#395,#395,#59,.T.);
#312=EDGE_CURVE('',#396,#396,#60,.T.);
#313=EDGE_CURVE('',#397,#397,#61,.T.);
#314=EDGE_CURVE('',#398,#384,#438,.T.);
#315=EDGE_CURVE('',#398,#399,#62,.T.);
#316=EDGE_CURVE('',#399,#363,#439,.T.);
#317=EDGE_CURVE('',#400,#365,#440,.T.);
#318=EDGE_CURVE('',#400,#401,#63,.T.);
#319=EDGE_CURVE('',#401,#367,#441,.T.);
#320=EDGE_CURVE('',#402,#376,#442,.T.);
#321=EDGE_CURVE('',#402,#403,#64,.T.);
#322=EDGE_CURVE('',#403,#355,#443,.T.);
#323=EDGE_CURVE('',#404,#357,#444,.T.);
#324=EDGE_CURVE('',#404,#405,#65,.T.);
#325=EDGE_CURVE('',#405,#359,#445,.T.);
#326=EDGE_CURVE('',#406,#406,#66,.T.);
#327=EDGE_CURVE('',#407,#407,#67,.T.);
#328=EDGE_CURVE('',#408,#408,#68,.T.);
#329=EDGE_CURVE('',#409,#409,#69,.T.);
#330=EDGE_CURVE('',#410,#358,#446,.T.);
#331=EDGE_CURVE('',#411,#410,#70,.F.);
#332=EDGE_CURVE('',#411,#356,#447,.T.);
#333=EDGE_CURVE('',#412,#354,#448,.T.);
#334=EDGE_CURVE('',#413,#412,#71,.F.);
#335=EDGE_CURVE('',#413,#375,#449,.T.);
#336=EDGE_CURVE('',#414,#366,#450,.T.);
#337=EDGE_CURVE('',#415,#414,#72,.F.);
#338=EDGE_CURVE('',#415,#364,#451,.T.);
#339=EDGE_CURVE('',#416,#362,#452,.T.);
#340=EDGE_CURVE('',#417,#416,#73,.F.);
#341=EDGE_CURVE('',#417,#383,#453,.T.);
#342=EDGE_CURVE('',#418,#418,#74,.F.);
#343=EDGE_CURVE('',#419,#419,#75,.F.);
#344=EDGE_CURVE('',#420,#420,#76,.F.);
#345=EDGE_CURVE('',#421,#421,#77,.F.);
#346=EDGE_CURVE('',#415,#400,#454,.T.);
#347=EDGE_CURVE('',#414,#401,#455,.T.);
#348=EDGE_CURVE('',#417,#398,#456,.T.);
#349=EDGE_CURVE('',#416,#399,#457,.T.);
#350=EDGE_CURVE('',#411,#404,#458,.T.);
#351=EDGE_CURVE('',#410,#405,#459,.T.);
#352=EDGE_CURVE('',#413,#402,#460,.T.);
#353=EDGE_CURVE('',#412,#403,#461,.T.);
#354=VERTEX_POINT('',#1024);
#355=VERTEX_POINT('',#1025);
#356=VERTEX_POINT('',#1027);
#357=VERTEX_POINT('',#1029);
#358=VERTEX_POINT('',#1033);
#359=VERTEX_POINT('',#1034);
#360=VERTEX_POINT('',#1036);
#361=VERTEX_POINT('',#1038);
#362=VERTEX_POINT('',#1042);
#363=VERTEX_POINT('',#1043);
#364=VERTEX_POINT('',#1045);
#365=VERTEX_POINT('',#1047);
#366=VERTEX_POINT('',#1051);
#367=VERTEX_POINT('',#1052);
#368=VERTEX_POINT('',#1054);
#369=VERTEX_POINT('',#1056);
#370=VERTEX_POINT('',#1060);
#371=VERTEX_POINT('',#1061);
#372=VERTEX_POINT('',#1063);
#373=VERTEX_POINT('',#1065);
#374=VERTEX_POINT('',#1072);
#375=VERTEX_POINT('',#1073);
#376=VERTEX_POINT('',#1075);
#377=VERTEX_POINT('',#1077);
#378=VERTEX_POINT('',#1081);
#379=VERTEX_POINT('',#1083);
#380=VERTEX_POINT('',#1087);
#381=VERTEX_POINT('',#1089);
#382=VERTEX_POINT('',#1096);
#383=VERTEX_POINT('',#1097);
#384=VERTEX_POINT('',#1099);
#385=VERTEX_POINT('',#1101);
#386=VERTEX_POINT('',#1105);
#387=VERTEX_POINT('',#1107);
#388=VERTEX_POINT('',#1110);
#389=VERTEX_POINT('',#1112);
#390=VERTEX_POINT('',#1115);
#391=VERTEX_POINT('',#1117);
#392=VERTEX_POINT('',#1123);
#393=VERTEX_POINT('',#1125);
#394=VERTEX_POINT('',#1128);
#395=VERTEX_POINT('',#1130);
#396=VERTEX_POINT('',#1132);
#397=VERTEX_POINT('',#1134);
#398=VERTEX_POINT('',#1136);
#399=VERTEX_POINT('',#1138);
#400=VERTEX_POINT('',#1141);
#401=VERTEX_POINT('',#1143);
#402=VERTEX_POINT('',#1146);
#403=VERTEX_POINT('',#1148);
#404=VERTEX_POINT('',#1151);
#405=VERTEX_POINT('',#1153);
#406=VERTEX_POINT('',#1156);
#407=VERTEX_POINT('',#1158);
#408=VERTEX_POINT('',#1160);
#409=VERTEX_POINT('',#1162);
#410=VERTEX_POINT('',#1165);
#411=VERTEX_POINT('',#1167);
#412=VERTEX_POINT('',#1170);
#413=VERTEX_POINT('',#1172);
#414=VERTEX_POINT('',#1175);
#415=VERTEX_POINT('',#1177);
#416=VERTEX_POINT('',#1180);
#417=VERTEX_POINT('',#1182);
#418=VERTEX_POINT('',#1185);
#419=VERTEX_POINT('',#1187);
#420=VERTEX_POINT('',#1189);
#421=VERTEX_POINT('',#1191);
#422=LINE('',#1023,#462);
#423=LINE('',#1028,#463);
#424=LINE('',#1032,#464);
#425=LINE('',#1037,#465);
#426=LINE('',#1041,#466);
#427=LINE('',#1046,#467);
#428=LINE('',#1050,#468);
#429=LINE('',#1055,#469);
#430=LINE('',#1062,#470);
#431=LINE('',#1066,#471);
#432=LINE('',#1074,#472);
#433=LINE('',#1078,#473);
#434=LINE('',#1084,#474);
#435=LINE('',#1090,#475);
#436=LINE('',#1098,#476);
#437=LINE('',#1102,#477);
#438=LINE('',#1135,#478);
#439=LINE('',#1139,#479);
#440=LINE('',#1140,#480);
#441=LINE('',#1144,#481);
#442=LINE('',#1145,#482);
#443=LINE('',#1149,#483);
#444=LINE('',#1150,#484);
#445=LINE('',#1154,#485);
#446=LINE('',#1164,#486);
#447=LINE('',#1168,#487);
#448=LINE('',#1169,#488);
#449=LINE('',#1173,#489);
#450=LINE('',#1174,#490);
#451=LINE('',#1178,#491);
#452=LINE('',#1179,#492);
#453=LINE('',#1183,#493);
#454=LINE('',#1197,#494);
#455=LINE('',#1199,#495);
#456=LINE('',#1203,#496);
#457=LINE('',#1204,#497);
#458=LINE('',#1209,#498);
#459=LINE('',#1210,#499);
#460=LINE('',#1215,#500);
#461=LINE('',#1217,#501);
#462=VECTOR('',#803,1.);
#463=VECTOR('',#806,1.);
#464=VECTOR('',#811,1.);
#465=VECTOR('',#814,1.);
#466=VECTOR('',#819,1.);
#467=VECTOR('',#822,1.);
#468=VECTOR('',#827,1.);
#469=VECTOR('',#830,1.);
#470=VECTOR('',#837,1.);
#471=VECTOR('',#840,1.);
#472=VECTOR('',#851,1.);
#473=VECTOR('',#854,1.);
#474=VECTOR('',#861,1.);
#475=VECTOR('',#868,1.);
#476=VECTOR('',#879,1.);
#477=VECTOR('',#882,1.);
#478=VECTOR('',#923,1.);
#479=VECTOR('',#926,1.);
#480=VECTOR('',#927,1.);
#481=VECTOR('',#930,1.);
#482=VECTOR('',#931,1.);
#483=VECTOR('',#934,1.);
#484=VECTOR('',#935,1.);
#485=VECTOR('',#938,1.);
#486=VECTOR('',#949,1.);
#487=VECTOR('',#952,1.);
#488=VECTOR('',#953,1.);
#489=VECTOR('',#956,1.);
#490=VECTOR('',#957,1.);
#491=VECTOR('',#960,1.);
#492=VECTOR('',#961,1.);
#493=VECTOR('',#964,1.);
#494=VECTOR('',#983,1.);
#495=VECTOR('',#986,1.);
#496=VECTOR('',#993,1.);
#497=VECTOR('',#994,1.);
#498=VECTOR('',#1003,1.);
#499=VECTOR('',#1004,1.);
#500=VECTOR('',#1013,1.);
#501=VECTOR('',#1016,1.);
#502=EDGE_LOOP('',(#78,#79,#80,#81));
#503=EDGE_LOOP('',(#82,#83,#84,#85));
#504=EDGE_LOOP('',(#86,#87,#88,#89));
#505=EDGE_LOOP('',(#90,#91,#92,#93));
#506=EDGE_LOOP('',(#94,#95,#96,#97));
#507=EDGE_LOOP('',(#98,#99,#100,#101));
#508=EDGE_LOOP('',(#102,#103,#104,#105));
#509=EDGE_LOOP('',(#106,#107,#108,#109));
#510=EDGE_LOOP('',(#110,#111,#112,#113));
#511=EDGE_LOOP('',(#114,#115,#116,#117));
#512=EDGE_LOOP('',(#118,#119,#120,#121));
#513=EDGE_LOOP('',(#122));
#514=EDGE_LOOP('',(#123));
#515=EDGE_LOOP('',(#124));
#516=EDGE_LOOP('',(#125));
#517=EDGE_LOOP('',(#126));
#518=EDGE_LOOP('',(#127));
#519=EDGE_LOOP('',(#128,#129,#130,#131));
#520=EDGE_LOOP('',(#132));
#521=EDGE_LOOP('',(#133));
#522=EDGE_LOOP('',(#134));
#523=EDGE_LOOP('',(#135));
#524=EDGE_LOOP('',(#136));
#525=EDGE_LOOP('',(#137));
#526=EDGE_LOOP('',(#138,#139,#140,#141,#142,#143,#144,#145,#146,#147,#148,
#149,#150,#151,#152,#153,#154,#155,#156,#157,#158,#159,#160,#161));
#527=EDGE_LOOP('',(#162));
#528=EDGE_LOOP('',(#163));
#529=EDGE_LOOP('',(#164));
#530=EDGE_LOOP('',(#165));
#531=EDGE_LOOP('',(#166,#167,#168,#169,#170,#171,#172,#173,#174,#175,#176,
#177,#178,#179,#180,#181,#182,#183,#184,#185,#186,#187,#188,#189));
#532=EDGE_LOOP('',(#190));
#533=EDGE_LOOP('',(#191));
#534=EDGE_LOOP('',(#192));
#535=EDGE_LOOP('',(#193));
#536=EDGE_LOOP('',(#194));
#537=EDGE_LOOP('',(#195));
#538=EDGE_LOOP('',(#196));
#539=EDGE_LOOP('',(#197));
#540=EDGE_LOOP('',(#198));
#541=EDGE_LOOP('',(#199));
#542=EDGE_LOOP('',(#200));
#543=EDGE_LOOP('',(#201));
#544=EDGE_LOOP('',(#202));
#545=EDGE_LOOP('',(#203));
#546=EDGE_LOOP('',(#204));
#547=EDGE_LOOP('',(#205));
#548=EDGE_LOOP('',(#206,#207,#208,#209));
#549=EDGE_LOOP('',(#210,#211,#212,#213));
#550=EDGE_LOOP('',(#214,#215,#216,#217));
#551=EDGE_LOOP('',(#218));
#552=EDGE_LOOP('',(#219));
#553=EDGE_LOOP('',(#220,#221,#222,#223));
#554=EDGE_LOOP('',(#224,#225,#226,#227));
#555=EDGE_LOOP('',(#228,#229,#230,#231));
#556=EDGE_LOOP('',(#232));
#557=EDGE_LOOP('',(#233));
#558=EDGE_LOOP('',(#234,#235,#236,#237));
#559=EDGE_LOOP('',(#238,#239,#240,#241));
#560=EDGE_LOOP('',(#242));
#561=EDGE_LOOP('',(#243));
#562=EDGE_LOOP('',(#244,#245,#246,#247));
#563=EDGE_LOOP('',(#248,#249,#250,#251));
#564=EDGE_LOOP('',(#252,#253,#254,#255));
#565=EDGE_LOOP('',(#256,#257,#258,#259));
#566=EDGE_LOOP('',(#260));
#567=EDGE_LOOP('',(#261));
#568=FACE_BOUND('',#502,.T.);
#569=FACE_BOUND('',#503,.T.);
#570=FACE_BOUND('',#504,.T.);
#571=FACE_BOUND('',#505,.T.);
#572=FACE_BOUND('',#506,.T.);
#573=FACE_BOUND('',#507,.T.);
#574=FACE_BOUND('',#508,.T.);
#575=FACE_BOUND('',#509,.T.);
#576=FACE_BOUND('',#510,.T.);
#577=FACE_BOUND('',#511,.T.);
#578=FACE_BOUND('',#512,.T.);
#579=FACE_BOUND('',#513,.T.);
#580=FACE_BOUND('',#514,.T.);
#581=FACE_BOUND('',#515,.T.);
#582=FACE_BOUND('',#516,.T.);
#583=FACE_BOUND('',#517,.T.);
#584=FACE_BOUND('',#518,.T.);
#585=FACE_BOUND('',#519,.T.);
#586=FACE_BOUND('',#520,.T.);
#587=FACE_BOUND('',#521,.T.);
#588=FACE_BOUND('',#522,.T.);
#589=FACE_BOUND('',#523,.T.);
#590=FACE_BOUND('',#524,.T.);
#591=FACE_BOUND('',#525,.T.);
#592=FACE_BOUND('',#526,.T.);
#593=FACE_BOUND('',#527,.T.);
#594=FACE_BOUND('',#528,.T.);
#595=FACE_BOUND('',#529,.T.);
#596=FACE_BOUND('',#530,.T.);
#597=FACE_BOUND('',#531,.T.);
#598=FACE_BOUND('',#532,.T.);
#599=FACE_BOUND('',#533,.T.);
#600=FACE_BOUND('',#534,.T.);
#601=FACE_BOUND('',#535,.T.);
#602=FACE_BOUND('',#536,.T.);
#603=FACE_BOUND('',#537,.T.);
#604=FACE_BOUND('',#538,.T.);
#605=FACE_BOUND('',#539,.T.);
#606=FACE_BOUND('',#540,.T.);
#607=FACE_BOUND('',#541,.T.);
#608=FACE_BOUND('',#542,.T.);
#609=FACE_BOUND('',#543,.T.);
#610=FACE_BOUND('',#544,.T.);
#611=FACE_BOUND('',#545,.T.);
#612=FACE_BOUND('',#546,.T.);
#613=FACE_BOUND('',#547,.T.);
#614=FACE_BOUND('',#548,.T.);
#615=FACE_BOUND('',#549,.T.);
#616=FACE_BOUND('',#550,.T.);
#617=FACE_BOUND('',#551,.T.);
#618=FACE_BOUND('',#552,.T.);
#619=FACE_BOUND('',#553,.T.);
#620=FACE_BOUND('',#554,.T.);
#621=FACE_BOUND('',#555,.T.);
#622=FACE_BOUND('',#556,.T.);
#623=FACE_BOUND('',#557,.T.);
#624=FACE_BOUND('',#558,.T.);
#625=FACE_BOUND('',#559,.T.);
#626=FACE_BOUND('',#560,.T.);
#627=FACE_BOUND('',#561,.T.);
#628=FACE_BOUND('',#562,.T.);
#629=FACE_BOUND('',#563,.T.);
#630=FACE_BOUND('',#564,.T.);
#631=FACE_BOUND('',#565,.T.);
#632=FACE_BOUND('',#566,.T.);
#633=FACE_BOUND('',#567,.T.);
#634=CYLINDRICAL_SURFACE('',#709,0.0269970383680858);
#635=CYLINDRICAL_SURFACE('',#712,0.0269970383680858);
#636=CYLINDRICAL_SURFACE('',#715,0.0269970383680858);
#637=CYLINDRICAL_SURFACE('',#718,0.0269970383680858);
#638=CYLINDRICAL_SURFACE('',#721,0.0269970383680858);
#639=CYLINDRICAL_SURFACE('',#724,0.0026);
#640=CYLINDRICAL_SURFACE('',#727,0.0269970383680858);
#641=CYLINDRICAL_SURFACE('',#730,0.0026);
#642=CYLINDRICAL_SURFACE('',#733,0.0295970383680859);
#643=CYLINDRICAL_SURFACE('',#736,0.0026);
#644=CYLINDRICAL_SURFACE('',#739,0.0269970383680858);
#645=CYLINDRICAL_SURFACE('',#742,0.00125);
#646=CYLINDRICAL_SURFACE('',#745,0.00125);
#647=CYLINDRICAL_SURFACE('',#748,0.00125);
#648=CYLINDRICAL_SURFACE('',#751,0.0026);
#649=CYLINDRICAL_SURFACE('',#754,0.00125);
#650=CYLINDRICAL_SURFACE('',#784,0.00275);
#651=CYLINDRICAL_SURFACE('',#786,0.0009);
#652=CYLINDRICAL_SURFACE('',#787,0.00275);
#653=CYLINDRICAL_SURFACE('',#790,0.0009);
#654=CYLINDRICAL_SURFACE('',#791,0.00275);
#655=CYLINDRICAL_SURFACE('',#793,0.0009);
#656=CYLINDRICAL_SURFACE('',#796,0.00275);
#657=CYLINDRICAL_SURFACE('',#798,0.0009);
#658=ADVANCED_FACE('',(#568),#634,.F.);
#659=ADVANCED_FACE('',(#569),#635,.F.);
#660=ADVANCED_FACE('',(#570),#636,.F.);
#661=ADVANCED_FACE('',(#571),#637,.F.);
#662=ADVANCED_FACE('',(#572),#638,.F.);
#663=ADVANCED_FACE('',(#573),#639,.T.);
#664=ADVANCED_FACE('',(#574),#640,.F.);
#665=ADVANCED_FACE('',(#575),#641,.T.);
#666=ADVANCED_FACE('',(#576),#642,.T.);
#667=ADVANCED_FACE('',(#577),#643,.T.);
#668=ADVANCED_FACE('',(#578),#644,.F.);
#669=ADVANCED_FACE('',(#579,#580),#645,.F.);
#670=ADVANCED_FACE('',(#581,#582),#646,.F.);
#671=ADVANCED_FACE('',(#583,#584),#647,.F.);
#672=ADVANCED_FACE('',(#585),#648,.T.);
#673=ADVANCED_FACE('',(#586,#587),#649,.F.);
#674=ADVANCED_FACE('',(#588,#589,#590,#591,#592,#593,#594,#595,#596),#16,
 .F.);
#675=ADVANCED_FACE('',(#597,#598,#599,#600,#601,#602,#603,#604,#605),#17,
 .T.);
#676=ADVANCED_FACE('',(#606,#607),#12,.F.);
#677=ADVANCED_FACE('',(#608,#609),#13,.F.);
#678=ADVANCED_FACE('',(#610,#611),#14,.F.);
#679=ADVANCED_FACE('',(#612,#613),#15,.F.);
#680=ADVANCED_FACE('',(#614),#18,.F.);
#681=ADVANCED_FACE('',(#615),#650,.T.);
#682=ADVANCED_FACE('',(#616),#19,.T.);
#683=ADVANCED_FACE('',(#617,#618),#651,.F.);
#684=ADVANCED_FACE('',(#619),#652,.T.);
#685=ADVANCED_FACE('',(#620),#20,.T.);
#686=ADVANCED_FACE('',(#621),#21,.F.);
#687=ADVANCED_FACE('',(#622,#623),#653,.F.);
#688=ADVANCED_FACE('',(#624),#654,.T.);
#689=ADVANCED_FACE('',(#625),#22,.T.);
#690=ADVANCED_FACE('',(#626,#627),#655,.F.);
#691=ADVANCED_FACE('',(#628),#23,.F.);
#692=ADVANCED_FACE('',(#629),#24,.F.);
#693=ADVANCED_FACE('',(#630),#656,.T.);
#694=ADVANCED_FACE('',(#631),#25,.T.);
#695=ADVANCED_FACE('',(#632,#633),#657,.F.);
#696=CLOSED_SHELL('',(#658,#659,#660,#661,#662,#663,#664,#665,#666,#667,
#668,#669,#670,#671,#672,#673,#674,#675,#676,#677,#678,#679,#680,#681,#682,
#683,#684,#685,#686,#687,#688,#689,#690,#691,#692,#693,#694,#695));
#697=STYLED_ITEM('',(#698),#705);
#698=PRESENTATION_STYLE_ASSIGNMENT((#699));
#699=SURFACE_STYLE_USAGE(.BOTH.,#700);
#700=SURFACE_SIDE_STYLE('',(#701));
#701=SURFACE_STYLE_FILL_AREA(#702);
#702=FILL_AREA_STYLE('',(#703));
#703=FILL_AREA_STYLE_COLOUR('',#704);
#704=COLOUR_RGB('',0.768627450980392,0.886274509803922,0.952941176470588);
#705=MANIFOLD_SOLID_BREP('internal spacer',#696);
#706=SHAPE_DEFINITION_REPRESENTATION(#1226,#707);
#707=SHAPE_REPRESENTATION('internal spacer',(#708),#1221);
#708=AXIS2_PLACEMENT_3D('',#1021,#799,#800);
#709=AXIS2_PLACEMENT_3D('',#1022,#801,#802);
#710=AXIS2_PLACEMENT_3D('',#1026,#804,#805);
#711=AXIS2_PLACEMENT_3D('',#1030,#807,#808);
#712=AXIS2_PLACEMENT_3D('',#1031,#809,#810);
#713=AXIS2_PLACEMENT_3D('',#1035,#812,#813);
#714=AXIS2_PLACEMENT_3D('',#1039,#815,#816);
#715=AXIS2_PLACEMENT_3D('',#1040,#817,#818);
#716=AXIS2_PLACEMENT_3D('',#1044,#820,#821);
#717=AXIS2_PLACEMENT_3D('',#1048,#823,#824);
#718=AXIS2_PLACEMENT_3D('',#1049,#825,#826);
#719=AXIS2_PLACEMENT_3D('',#1053,#828,#829);
#720=AXIS2_PLACEMENT_3D('',#1057,#831,#832);
#721=AXIS2_PLACEMENT_3D('',#1058,#833,#834);
#722=AXIS2_PLACEMENT_3D('',#1059,#835,#836);
#723=AXIS2_PLACEMENT_3D('',#1064,#838,#839);
#724=AXIS2_PLACEMENT_3D('',#1067,#841,#842);
#725=AXIS2_PLACEMENT_3D('',#1068,#843,#844);
#726=AXIS2_PLACEMENT_3D('',#1069,#845,#846);
#727=AXIS2_PLACEMENT_3D('',#1070,#847,#848);
#728=AXIS2_PLACEMENT_3D('',#1071,#849,#850);
#729=AXIS2_PLACEMENT_3D('',#1076,#852,#853);
#730=AXIS2_PLACEMENT_3D('',#1079,#855,#856);
#731=AXIS2_PLACEMENT_3D('',#1080,#857,#858);
#732=AXIS2_PLACEMENT_3D('',#1082,#859,#860);
#733=AXIS2_PLACEMENT_3D('',#1085,#862,#863);
#734=AXIS2_PLACEMENT_3D('',#1086,#864,#865);
#735=AXIS2_PLACEMENT_3D('',#1088,#866,#867);
#736=AXIS2_PLACEMENT_3D('',#1091,#869,#870);
#737=AXIS2_PLACEMENT_3D('',#1092,#871,#872);
#738=AXIS2_PLACEMENT_3D('',#1093,#873,#874);
#739=AXIS2_PLACEMENT_3D('',#1094,#875,#876);
#740=AXIS2_PLACEMENT_3D('',#1095,#877,#878);
#741=AXIS2_PLACEMENT_3D('',#1100,#880,#881);
#742=AXIS2_PLACEMENT_3D('',#1103,#883,#884);
#743=AXIS2_PLACEMENT_3D('',#1104,#885,#886);
#744=AXIS2_PLACEMENT_3D('',#1106,#887,#888);
#745=AXIS2_PLACEMENT_3D('',#1108,#889,#890);
#746=AXIS2_PLACEMENT_3D('',#1109,#891,#892);
#747=AXIS2_PLACEMENT_3D('',#1111,#893,#894);
#748=AXIS2_PLACEMENT_3D('',#1113,#895,#896);
#749=AXIS2_PLACEMENT_3D('',#1114,#897,#898);
#750=AXIS2_PLACEMENT_3D('',#1116,#899,#900);
#751=AXIS2_PLACEMENT_3D('',#1118,#901,#902);
#752=AXIS2_PLACEMENT_3D('',#1119,#903,#904);
#753=AXIS2_PLACEMENT_3D('',#1120,#905,#906);
#754=AXIS2_PLACEMENT_3D('',#1121,#907,#908);
#755=AXIS2_PLACEMENT_3D('',#1122,#909,#910);
#756=AXIS2_PLACEMENT_3D('',#1124,#911,#912);
#757=AXIS2_PLACEMENT_3D('',#1126,#913,#914);
#758=AXIS2_PLACEMENT_3D('',#1127,#915,#916);
#759=AXIS2_PLACEMENT_3D('',#1129,#917,#918);
#760=AXIS2_PLACEMENT_3D('',#1131,#919,#920);
#761=AXIS2_PLACEMENT_3D('',#1133,#921,#922);
#762=AXIS2_PLACEMENT_3D('',#1137,#924,#925);
#763=AXIS2_PLACEMENT_3D('',#1142,#928,#929);
#764=AXIS2_PLACEMENT_3D('',#1147,#932,#933);
#765=AXIS2_PLACEMENT_3D('',#1152,#936,#937);
#766=AXIS2_PLACEMENT_3D('',#1155,#939,#940);
#767=AXIS2_PLACEMENT_3D('',#1157,#941,#942);
#768=AXIS2_PLACEMENT_3D('',#1159,#943,#944);
#769=AXIS2_PLACEMENT_3D('',#1161,#945,#946);
#770=AXIS2_PLACEMENT_3D('',#1163,#947,#948);
#771=AXIS2_PLACEMENT_3D('',#1166,#950,#951);
#772=AXIS2_PLACEMENT_3D('',#1171,#954,#955);
#773=AXIS2_PLACEMENT_3D('',#1176,#958,#959);
#774=AXIS2_PLACEMENT_3D('',#1181,#962,#963);
#775=AXIS2_PLACEMENT_3D('',#1184,#965,#966);
#776=AXIS2_PLACEMENT_3D('',#1186,#967,#968);
#777=AXIS2_PLACEMENT_3D('',#1188,#969,#970);
#778=AXIS2_PLACEMENT_3D('',#1190,#971,#972);
#779=AXIS2_PLACEMENT_3D('',#1192,#973,#974);
#780=AXIS2_PLACEMENT_3D('',#1193,#975,#976);
#781=AXIS2_PLACEMENT_3D('',#1194,#977,#978);
#782=AXIS2_PLACEMENT_3D('',#1195,#979,#980);
#783=AXIS2_PLACEMENT_3D('',#1196,#981,#982);
#784=AXIS2_PLACEMENT_3D('',#1198,#984,#985);
#785=AXIS2_PLACEMENT_3D('',#1200,#987,#988);
#786=AXIS2_PLACEMENT_3D('',#1201,#989,#990);
#787=AXIS2_PLACEMENT_3D('',#1202,#991,#992);
#788=AXIS2_PLACEMENT_3D('',#1205,#995,#996);
#789=AXIS2_PLACEMENT_3D('',#1206,#997,#998);
#790=AXIS2_PLACEMENT_3D('',#1207,#999,#1000);
#791=AXIS2_PLACEMENT_3D('',#1208,#1001,#1002);
#792=AXIS2_PLACEMENT_3D('',#1211,#1005,#1006);
#793=AXIS2_PLACEMENT_3D('',#1212,#1007,#1008);
#794=AXIS2_PLACEMENT_3D('',#1213,#1009,#1010);
#795=AXIS2_PLACEMENT_3D('',#1214,#1011,#1012);
#796=AXIS2_PLACEMENT_3D('',#1216,#1014,#1015);
#797=AXIS2_PLACEMENT_3D('',#1218,#1017,#1018);
#798=AXIS2_PLACEMENT_3D('',#1219,#1019,#1020);
#799=DIRECTION('',(0.,0.,1.));
#800=DIRECTION('',(1.,0.,0.));
#801=DIRECTION('',(0.,0.,1.));
#802=DIRECTION('',(1.,0.,0.));
#803=DIRECTION('',(0.,0.,-1.));
#804=DIRECTION('',(0.,0.,1.));
#805=DIRECTION('',(1.,0.,0.));
#806=DIRECTION('',(0.,0.,-1.));
#807=DIRECTION('',(0.,0.,1.));
#808=DIRECTION('',(1.,0.,0.));
#809=DIRECTION('',(0.,0.,1.));
#810=DIRECTION('',(1.,0.,0.));
#811=DIRECTION('',(0.,0.,-1.));
#812=DIRECTION('',(0.,0.,1.));
#813=DIRECTION('',(1.,0.,0.));
#814=DIRECTION('',(0.,0.,1.));
#815=DIRECTION('',(0.,0.,1.));
#816=DIRECTION('',(1.,0.,0.));
#817=DIRECTION('',(0.,0.,1.));
#818=DIRECTION('',(1.,0.,0.));
#819=DIRECTION('',(0.,0.,-1.));
#820=DIRECTION('',(0.,0.,1.));
#821=DIRECTION('',(1.,0.,0.));
#822=DIRECTION('',(0.,0.,-1.));
#823=DIRECTION('',(0.,0.,1.));
#824=DIRECTION('',(1.,0.,0.));
#825=DIRECTION('',(0.,0.,1.));
#826=DIRECTION('',(1.,0.,0.));
#827=DIRECTION('',(0.,0.,-1.));
#828=DIRECTION('',(0.,0.,1.));
#829=DIRECTION('',(1.,0.,0.));
#830=DIRECTION('',(0.,0.,1.));
#831=DIRECTION('',(0.,0.,1.));
#832=DIRECTION('',(1.,0.,0.));
#833=DIRECTION('',(0.,0.,1.));
#834=DIRECTION('',(1.,0.,0.));
#835=DIRECTION('',(0.,0.,1.));
#836=DIRECTION('',(1.,0.,0.));
#837=DIRECTION('',(0.,0.,1.));
#838=DIRECTION('',(0.,0.,1.));
#839=DIRECTION('',(1.,0.,0.));
#840=DIRECTION('',(0.,0.,1.));
#841=DIRECTION('',(0.,0.,1.));
#842=DIRECTION('',(1.,0.,0.));
#843=DIRECTION('',(0.,0.,-1.));
#844=DIRECTION('',(1.,0.,0.));
#845=DIRECTION('',(0.,0.,-1.));
#846=DIRECTION('',(1.,0.,0.));
#847=DIRECTION('',(0.,0.,1.));
#848=DIRECTION('',(1.,0.,0.));
#849=DIRECTION('',(0.,0.,1.));
#850=DIRECTION('',(1.,0.,0.));
#851=DIRECTION('',(0.,0.,-1.));
#852=DIRECTION('',(0.,0.,1.));
#853=DIRECTION('',(1.,0.,0.));
#854=DIRECTION('',(0.,0.,1.));
#855=DIRECTION('',(0.,0.,1.));
#856=DIRECTION('',(1.,0.,0.));
#857=DIRECTION('',(0.,0.,1.));
#858=DIRECTION('',(1.,0.,0.));
#859=DIRECTION('',(0.,0.,1.));
#860=DIRECTION('',(1.,0.,0.));
#861=DIRECTION('',(0.,0.,1.));
#862=DIRECTION('',(0.,0.,1.));
#863=DIRECTION('',(1.,0.,0.));
#864=DIRECTION('',(0.,0.,1.));
#865=DIRECTION('',(1.,0.,0.));
#866=DIRECTION('',(0.,0.,1.));
#867=DIRECTION('',(1.,0.,0.));
#868=DIRECTION('',(0.,0.,1.));
#869=DIRECTION('',(0.,0.,1.));
#870=DIRECTION('',(1.,0.,0.));
#871=DIRECTION('',(0.,0.,-1.));
#872=DIRECTION('',(1.,0.,0.));
#873=DIRECTION('',(0.,0.,-1.));
#874=DIRECTION('',(1.,0.,0.));
#875=DIRECTION('',(0.,0.,1.));
#876=DIRECTION('',(1.,0.,0.));
#877=DIRECTION('',(0.,0.,1.));
#878=DIRECTION('',(1.,0.,0.));
#879=DIRECTION('',(0.,0.,-1.));
#880=DIRECTION('',(0.,0.,1.));
#881=DIRECTION('',(1.,0.,0.));
#882=DIRECTION('',(0.,0.,1.));
#883=DIRECTION('',(0.,0.,1.));
#884=DIRECTION('',(1.,0.,0.));
#885=DIRECTION('',(0.,0.,1.));
#886=DIRECTION('',(1.,0.,0.));
#887=DIRECTION('',(0.,0.,1.));
#888=DIRECTION('',(1.,0.,0.));
#889=DIRECTION('',(0.,0.,1.));
#890=DIRECTION('',(1.,0.,0.));
#891=DIRECTION('',(0.,0.,1.));
#892=DIRECTION('',(1.,0.,0.));
#893=DIRECTION('',(0.,0.,1.));
#894=DIRECTION('',(1.,0.,0.));
#895=DIRECTION('',(0.,0.,1.));
#896=DIRECTION('',(1.,0.,0.));
#897=DIRECTION('',(0.,0.,1.));
#898=DIRECTION('',(1.,0.,0.));
#899=DIRECTION('',(0.,0.,1.));
#900=DIRECTION('',(1.,0.,0.));
#901=DIRECTION('',(0.,0.,1.));
#902=DIRECTION('',(1.,0.,0.));
#903=DIRECTION('',(0.,0.,1.));
#904=DIRECTION('',(1.,0.,0.));
#905=DIRECTION('',(0.,0.,1.));
#906=DIRECTION('',(1.,0.,0.));
#907=DIRECTION('',(0.,0.,1.));
#908=DIRECTION('',(1.,0.,0.));
#909=DIRECTION('',(0.,0.,1.));
#910=DIRECTION('',(1.,0.,0.));
#911=DIRECTION('',(0.,0.,1.));
#912=DIRECTION('',(1.,0.,0.));
#913=DIRECTION('',(0.,0.,1.));
#914=DIRECTION('',(1.,0.,0.));
#915=DIRECTION('',(0.,0.,1.));
#916=DIRECTION('',(1.,0.,0.));
#917=DIRECTION('',(0.,0.,1.));
#918=DIRECTION('',(1.,0.,0.));
#919=DIRECTION('',(0.,0.,1.));
#920=DIRECTION('',(1.,0.,0.));
#921=DIRECTION('',(0.,0.,1.));
#922=DIRECTION('',(1.,0.,0.));
#923=DIRECTION('',(0.572495879564753,-0.819907597160424,0.));
#924=DIRECTION('',(0.,0.,-1.));
#925=DIRECTION('',(-1.,0.,0.));
#926=DIRECTION('',(1.,0.,0.));
#927=DIRECTION('',(1.,0.,0.));
#928=DIRECTION('',(0.,0.,-1.));
#929=DIRECTION('',(-1.,0.,0.));
#930=DIRECTION('',(0.572495879564752,0.819907597160425,0.));
#931=DIRECTION('',(-0.572494021820278,0.81990889431695,0.));
#932=DIRECTION('',(0.,0.,-1.));
#933=DIRECTION('',(-1.,0.,0.));
#934=DIRECTION('',(-1.,0.,0.));
#935=DIRECTION('',(-1.,0.,0.));
#936=DIRECTION('',(0.,0.,-1.));
#937=DIRECTION('',(-1.,0.,0.));
#938=DIRECTION('',(-0.572494021820278,-0.81990889431695,0.));
#939=DIRECTION('',(0.,0.,-1.));
#940=DIRECTION('',(-1.,0.,0.));
#941=DIRECTION('',(0.,0.,-1.));
#942=DIRECTION('',(-1.,0.,0.));
#943=DIRECTION('',(0.,0.,-1.));
#944=DIRECTION('',(-1.,0.,0.));
#945=DIRECTION('',(0.,0.,-1.));
#946=DIRECTION('',(-1.,0.,0.));
#947=DIRECTION('',(0.,0.,1.));
#948=DIRECTION('',(1.,0.,0.));
#949=DIRECTION('',(-0.572494021820278,-0.81990889431695,0.));
#950=DIRECTION('',(0.,0.,1.));
#951=DIRECTION('',(1.,0.,0.));
#952=DIRECTION('',(-1.,0.,0.));
#953=DIRECTION('',(-1.,0.,0.));
#954=DIRECTION('',(0.,0.,1.));
#955=DIRECTION('',(1.,0.,0.));
#956=DIRECTION('',(-0.572494021820278,0.81990889431695,0.));
#957=DIRECTION('',(0.572495879564752,0.819907597160425,0.));
#958=DIRECTION('',(0.,0.,1.));
#959=DIRECTION('',(1.,0.,0.));
#960=DIRECTION('',(1.,0.,0.));
#961=DIRECTION('',(1.,0.,0.));
#962=DIRECTION('',(0.,0.,1.));
#963=DIRECTION('',(1.,0.,0.));
#964=DIRECTION('',(0.572495879564753,-0.819907597160424,0.));
#965=DIRECTION('',(0.,0.,1.));
#966=DIRECTION('',(1.,0.,0.));
#967=DIRECTION('',(0.,0.,1.));
#968=DIRECTION('',(1.,0.,0.));
#969=DIRECTION('',(0.,0.,1.));
#970=DIRECTION('',(1.,0.,0.));
#971=DIRECTION('',(0.,0.,1.));
#972=DIRECTION('',(1.,0.,0.));
#973=DIRECTION('',(0.,0.,-1.));
#974=DIRECTION('',(-1.,0.,0.));
#975=DIRECTION('',(0.,0.,-1.));
#976=DIRECTION('',(-1.,0.,0.));
#977=DIRECTION('',(0.,0.,-1.));
#978=DIRECTION('',(-1.,0.,0.));
#979=DIRECTION('',(0.,0.,-1.));
#980=DIRECTION('',(-1.,0.,0.));
#981=DIRECTION('',(0.,1.,0.));
#982=DIRECTION('',(0.,0.,1.));
#983=DIRECTION('',(0.,0.,-1.));
#984=DIRECTION('',(0.,0.,-1.));
#985=DIRECTION('',(-1.,0.,0.));
#986=DIRECTION('',(0.,0.,-1.));
#987=DIRECTION('',(-0.819907597160425,0.572495879564752,0.));
#988=DIRECTION('',(-0.572495879564752,-0.819907597160425,0.));
#989=DIRECTION('',(0.,0.,-1.));
#990=DIRECTION('',(-1.,0.,0.));
#991=DIRECTION('',(0.,0.,-1.));
#992=DIRECTION('',(-1.,0.,0.));
#993=DIRECTION('',(0.,0.,-1.));
#994=DIRECTION('',(0.,0.,-1.));
#995=DIRECTION('',(0.,1.,0.));
#996=DIRECTION('',(0.,0.,1.));
#997=DIRECTION('',(0.819907597160424,0.572495879564753,0.));
#998=DIRECTION('',(-0.572495879564753,0.819907597160424,0.));
#999=DIRECTION('',(0.,0.,-1.));
#1000=DIRECTION('',(-1.,0.,0.));
#1001=DIRECTION('',(0.,0.,-1.));
#1002=DIRECTION('',(-1.,0.,0.));
#1003=DIRECTION('',(0.,0.,-1.));
#1004=DIRECTION('',(0.,0.,-1.));
#1005=DIRECTION('',(0.81990889431695,-0.572494021820278,0.));
#1006=DIRECTION('',(0.572494021820278,0.81990889431695,0.));
#1007=DIRECTION('',(0.,0.,-1.));
#1008=DIRECTION('',(-1.,0.,0.));
#1009=DIRECTION('',(0.,-1.,0.));
#1010=DIRECTION('',(0.,0.,-1.));
#1011=DIRECTION('',(-0.81990889431695,-0.572494021820278,0.));
#1012=DIRECTION('',(0.572494021820278,-0.81990889431695,0.));
#1013=DIRECTION('',(0.,0.,-1.));
#1014=DIRECTION('',(0.,0.,-1.));
#1015=DIRECTION('',(-1.,0.,0.));
#1016=DIRECTION('',(0.,0.,-1.));
#1017=DIRECTION('',(0.,-1.,0.));
#1018=DIRECTION('',(0.,0.,-1.));
#1019=DIRECTION('',(0.,0.,-1.));
#1020=DIRECTION('',(-1.,0.,0.));
#1021=CARTESIAN_POINT('',(0.,0.,0.));
#1022=CARTESIAN_POINT('',(8.67361737988404E-18,8.67361737988404E-19,-0.002));
#1023=CARTESIAN_POINT('',(-0.0256371696750171,0.00846023709492082,1.99999999999983E-6));
#1024=CARTESIAN_POINT('',(-0.0256371696750171,0.00846023709492082,0.));
#1025=CARTESIAN_POINT('',(-0.0256371696750171,0.00846023709492082,-0.002));
#1026=CARTESIAN_POINT('',(8.67361737988404E-18,8.67361737988404E-19,0.));
#1027=CARTESIAN_POINT('',(-0.0256371696750171,-0.00846023709492082,0.));
#1028=CARTESIAN_POINT('',(-0.0256371696750171,-0.00846023709492082,1.99999999999983E-6));
#1029=CARTESIAN_POINT('',(-0.0256371696750171,-0.00846023709492082,-0.002));
#1030=CARTESIAN_POINT('',(8.67361737988404E-18,8.67361737988404E-19,-0.002));
#1031=CARTESIAN_POINT('',(8.67361737988404E-18,8.67361737988404E-19,-0.002));
#1032=CARTESIAN_POINT('',(-0.0216137500174952,-0.0161767082816351,1.99999999999983E-6));
#1033=CARTESIAN_POINT('',(-0.0216137500174952,-0.0161767082816351,0.));
#1034=CARTESIAN_POINT('',(-0.0216137500174952,-0.0161767082816351,-0.002));
#1035=CARTESIAN_POINT('',(8.67361737988404E-18,8.67361737988404E-19,0.));
#1036=CARTESIAN_POINT('',(-0.0178972546408493,-0.0202120844290857,0.));
#1037=CARTESIAN_POINT('',(-0.0178972546408493,-0.0202120844290857,-0.002));
#1038=CARTESIAN_POINT('',(-0.0178972546408493,-0.0202120844290857,-0.002));
#1039=CARTESIAN_POINT('',(8.67361737988404E-18,8.67361737988404E-19,-0.002));
#1040=CARTESIAN_POINT('',(1.7347234759768E-18,4.33680868994202E-18,-0.002));
#1041=CARTESIAN_POINT('',(0.0256371696750171,-0.00846023709492082,1.99999999999983E-6));
#1042=CARTESIAN_POINT('',(0.0256371696750171,-0.00846023709492082,0.));
#1043=CARTESIAN_POINT('',(0.0256371696750171,-0.00846023709492082,-0.002));
#1044=CARTESIAN_POINT('',(1.7347234759768E-18,4.33680868994202E-18,0.));
#1045=CARTESIAN_POINT('',(0.0256371696750171,0.00846023709492082,0.));
#1046=CARTESIAN_POINT('',(0.0256371696750171,0.00846023709492082,1.99999999999983E-6));
#1047=CARTESIAN_POINT('',(0.0256371696750171,0.00846023709492082,-0.002));
#1048=CARTESIAN_POINT('',(1.7347234759768E-18,4.33680868994202E-18,-0.002));
#1049=CARTESIAN_POINT('',(1.7347234759768E-18,4.33680868994202E-18,-0.002));
#1050=CARTESIAN_POINT('',(0.0216137866705538,0.0161766593092544,1.99999999999983E-6));
#1051=CARTESIAN_POINT('',(0.0216137866705538,0.0161766593092544,0.));
#1052=CARTESIAN_POINT('',(0.0216137866705538,0.0161766593092544,-0.002));
#1053=CARTESIAN_POINT('',(1.7347234759768E-18,4.33680868994202E-18,0.));
#1054=CARTESIAN_POINT('',(0.0178972546408493,0.0202120844290857,0.));
#1055=CARTESIAN_POINT('',(0.0178972546408493,0.0202120844290857,-0.002));
#1056=CARTESIAN_POINT('',(0.0178972546408493,0.0202120844290857,-0.002));
#1057=CARTESIAN_POINT('',(1.7347234759768E-18,4.33680868994202E-18,-0.002));
#1058=CARTESIAN_POINT('',(-3.25260651745651E-18,8.67361737988404E-18,-0.002));
#1059=CARTESIAN_POINT('',(-3.25260651745651E-18,8.67361737988404E-18,0.));
#1060=CARTESIAN_POINT('',(-0.013695454856889,-0.0232653088720268,0.));
#1061=CARTESIAN_POINT('',(0.013695454856889,-0.0232653088720268,0.));
#1062=CARTESIAN_POINT('',(0.013695454856889,-0.0232653088720268,-0.002));
#1063=CARTESIAN_POINT('',(0.013695454856889,-0.0232653088720268,-0.002));
#1064=CARTESIAN_POINT('',(-3.25260651745651E-18,8.67361737988404E-18,-0.002));
#1065=CARTESIAN_POINT('',(-0.013695454856889,-0.0232653088720268,-0.002));
#1066=CARTESIAN_POINT('',(-0.013695454856889,-0.0232653088720268,-0.002));
#1067=CARTESIAN_POINT('',(-0.0158699517399037,-0.0218399796799594,-0.002));
#1068=CARTESIAN_POINT('',(-0.0158699517399037,-0.0218399796799594,0.));
#1069=CARTESIAN_POINT('',(-0.0158699517399037,-0.0218399796799594,-0.002));
#1070=CARTESIAN_POINT('',(8.67361737988404E-18,8.67361737988404E-19,-0.002));
#1071=CARTESIAN_POINT('',(8.67361737988404E-18,8.67361737988404E-19,0.));
#1072=CARTESIAN_POINT('',(-0.0178972546408493,0.0202120844290857,0.));
#1073=CARTESIAN_POINT('',(-0.0216137500174952,0.0161767082816351,0.));
#1074=CARTESIAN_POINT('',(-0.0216137500174952,0.0161767082816351,1.99999999999983E-6));
#1075=CARTESIAN_POINT('',(-0.0216137500174952,0.0161767082816351,-0.002));
#1076=CARTESIAN_POINT('',(8.67361737988404E-18,8.67361737988404E-19,-0.002));
#1077=CARTESIAN_POINT('',(-0.0178972546408493,0.0202120844290857,-0.002));
#1078=CARTESIAN_POINT('',(-0.0178972546408493,0.0202120844290857,-0.002));
#1079=CARTESIAN_POINT('',(-0.0158699517399037,0.0218399796799594,-0.002));
#1080=CARTESIAN_POINT('',(-0.0158699517399037,0.0218399796799594,0.));
#1081=CARTESIAN_POINT('',(-0.0173983369635409,0.0239433195498253,0.));
#1082=CARTESIAN_POINT('',(-0.0158699517399037,0.0218399796799594,-0.002));
#1083=CARTESIAN_POINT('',(-0.0173983369635409,0.0239433195498253,-0.002));
#1084=CARTESIAN_POINT('',(-0.0173983369635409,0.0239433195498253,-0.002));
#1085=CARTESIAN_POINT('',(-1.77809156287623E-17,-3.46944695195361E-17,-0.002));
#1086=CARTESIAN_POINT('',(-1.77809156287623E-17,-3.46944695195361E-17,0.));
#1087=CARTESIAN_POINT('',(0.0173983369635409,0.0239433195498253,0.));
#1088=CARTESIAN_POINT('',(-1.77809156287623E-17,-3.46944695195361E-17,-0.002));
#1089=CARTESIAN_POINT('',(0.0173983369635409,0.0239433195498253,-0.002));
#1090=CARTESIAN_POINT('',(0.0173983369635409,0.0239433195498253,-0.002));
#1091=CARTESIAN_POINT('',(0.0158699517399037,0.0218399796799594,-0.002));
#1092=CARTESIAN_POINT('',(0.0158699517399037,0.0218399796799594,0.));
#1093=CARTESIAN_POINT('',(0.0158699517399037,0.0218399796799594,-0.002));
#1094=CARTESIAN_POINT('',(1.7347234759768E-18,4.33680868994202E-18,-0.002));
#1095=CARTESIAN_POINT('',(1.7347234759768E-18,4.33680868994202E-18,0.));
#1096=CARTESIAN_POINT('',(0.0178972546408493,-0.0202120844290857,0.));
#1097=CARTESIAN_POINT('',(0.0216137866705538,-0.0161766593092544,0.));
#1098=CARTESIAN_POINT('',(0.0216137866705538,-0.0161766593092544,1.99999999999983E-6));
#1099=CARTESIAN_POINT('',(0.0216137866705538,-0.0161766593092544,-0.002));
#1100=CARTESIAN_POINT('',(1.7347234759768E-18,4.33680868994202E-18,-0.002));
#1101=CARTESIAN_POINT('',(0.0178972546408493,-0.0202120844290857,-0.002));
#1102=CARTESIAN_POINT('',(0.0178972546408493,-0.0202120844290857,-0.002));
#1103=CARTESIAN_POINT('',(0.0158699517399032,0.0218399796799594,-0.002));
#1104=CARTESIAN_POINT('',(0.0158699517399032,0.0218399796799594,-0.001));
#1105=CARTESIAN_POINT('',(0.0171199517399032,0.0218399796799594,-0.001));
#1106=CARTESIAN_POINT('',(0.0158699517399032,0.0218399796799594,0.));
#1107=CARTESIAN_POINT('',(0.0171199517399032,0.0218399796799594,0.));
#1108=CARTESIAN_POINT('',(0.0158699517399032,-0.0218399796799594,-0.002));
#1109=CARTESIAN_POINT('',(0.0158699517399032,-0.0218399796799594,-0.001));
#1110=CARTESIAN_POINT('',(0.0171199517399032,-0.0218399796799594,-0.001));
#1111=CARTESIAN_POINT('',(0.0158699517399032,-0.0218399796799594,0.));
#1112=CARTESIAN_POINT('',(0.0171199517399032,-0.0218399796799594,0.));
#1113=CARTESIAN_POINT('',(-0.015869951739904,-0.0218399796799591,-0.002));
#1114=CARTESIAN_POINT('',(-0.015869951739904,-0.0218399796799591,-0.001));
#1115=CARTESIAN_POINT('',(-0.014619951739904,-0.0218399796799591,-0.001));
#1116=CARTESIAN_POINT('',(-0.015869951739904,-0.0218399796799591,0.));
#1117=CARTESIAN_POINT('',(-0.014619951739904,-0.0218399796799591,0.));
#1118=CARTESIAN_POINT('',(0.0158699517399037,-0.0218399796799594,-0.002));
#1119=CARTESIAN_POINT('',(0.0158699517399037,-0.0218399796799594,0.));
#1120=CARTESIAN_POINT('',(0.0158699517399037,-0.0218399796799594,-0.002));
#1121=CARTESIAN_POINT('',(-0.0158699517399037,0.0218399796799594,-0.002));
#1122=CARTESIAN_POINT('',(-0.0158699517399037,0.0218399796799594,-0.001));
#1123=CARTESIAN_POINT('',(-0.0146199517399037,0.0218399796799594,-0.001));
#1124=CARTESIAN_POINT('',(-0.0158699517399037,0.0218399796799594,0.));
#1125=CARTESIAN_POINT('',(-0.0146199517399037,0.0218399796799594,0.));
#1126=CARTESIAN_POINT('',(0.,0.,-0.002));
#1127=CARTESIAN_POINT('',(0.0158699517399032,-0.0218399796799594,-0.002));
#1128=CARTESIAN_POINT('',(0.0181199517399032,-0.0218399796799594,-0.002));
#1129=CARTESIAN_POINT('',(-0.015869951739904,-0.0218399796799591,-0.002));
#1130=CARTESIAN_POINT('',(-0.013619951739904,-0.0218399796799591,-0.002));
#1131=CARTESIAN_POINT('',(0.0158699517399032,0.0218399796799594,-0.002));
#1132=CARTESIAN_POINT('',(0.0181199517399032,0.0218399796799594,-0.002));
#1133=CARTESIAN_POINT('',(-0.0158699517399037,0.0218399796799594,-0.002));
#1134=CARTESIAN_POINT('',(-0.0136199517399037,0.0218399796799594,-0.002));
#1135=CARTESIAN_POINT('',(0.020429526739194,-0.0144806056791867,-0.002));
#1136=CARTESIAN_POINT('',(0.0192452668078342,-0.0127845520491191,-0.002));
#1137=CARTESIAN_POINT('',(0.0215000127000253,-0.011210188380316,-0.002));
#1138=CARTESIAN_POINT('',(0.0215163812049472,-0.00846023709492082,-0.002));
#1139=CARTESIAN_POINT('',(0.0235767754399819,-0.00846023709492082,-0.002));
#1140=CARTESIAN_POINT('',(0.0235767754399814,0.00846023709492082,-0.002));
#1141=CARTESIAN_POINT('',(0.0215163812049457,0.00846023709492082,-0.002));
#1142=CARTESIAN_POINT('',(0.0215000127000253,0.011210188380316,-0.002));
#1143=CARTESIAN_POINT('',(0.0192452668078342,0.0127845520491191,-0.002));
#1144=CARTESIAN_POINT('',(0.020429526739194,0.0144806056791867,-0.002));
#1145=CARTESIAN_POINT('',(-0.0204294939290493,0.0144806519682808,-0.002));
#1146=CARTESIAN_POINT('',(-0.0192452378406033,0.0127845956549266,-0.002));
#1147=CARTESIAN_POINT('',(-0.0214999872999749,0.0112102370949208,-0.002));
#1148=CARTESIAN_POINT('',(-0.0214999872999749,0.00846023709492082,-0.002));
#1149=CARTESIAN_POINT('',(-0.0235685784874961,0.00846023709492082,-0.002));
#1150=CARTESIAN_POINT('',(-0.0235685784874961,-0.00846023709492082,-0.002));
#1151=CARTESIAN_POINT('',(-0.0214999872999749,-0.00846023709492082,-0.002));
#1152=CARTESIAN_POINT('',(-0.0214999872999749,-0.0112102370949208,-0.002));
#1153=CARTESIAN_POINT('',(-0.0192452378406033,-0.0127845956549266,-0.002));
#1154=CARTESIAN_POINT('',(-0.0204294939290493,-0.0144806519682808,-0.002));
#1155=CARTESIAN_POINT('',(0.0215000127000253,0.011210188380316,-0.002));
#1156=CARTESIAN_POINT('',(0.0206000127000253,0.011210188380316,-0.002));
#1157=CARTESIAN_POINT('',(0.0215000127000253,-0.011210188380316,-0.002));
#1158=CARTESIAN_POINT('',(0.0206000127000253,-0.011210188380316,-0.002));
#1159=CARTESIAN_POINT('',(-0.0214999872999749,-0.0112102370949208,-0.002));
#1160=CARTESIAN_POINT('',(-0.0223999872999749,-0.0112102370949208,-0.002));
#1161=CARTESIAN_POINT('',(-0.0214999872999749,0.0112102370949208,-0.002));
#1162=CARTESIAN_POINT('',(-0.0223999872999749,0.0112102370949208,-0.002));
#1163=CARTESIAN_POINT('',(0.,0.,0.));
#1164=CARTESIAN_POINT('',(-0.0204294939290493,-0.0144806519682808,0.));
#1165=CARTESIAN_POINT('',(-0.0192452378406033,-0.0127845956549266,0.));
#1166=CARTESIAN_POINT('',(-0.0214999872999749,-0.0112102370949208,0.));
#1167=CARTESIAN_POINT('',(-0.0214999872999749,-0.00846023709492082,0.));
#1168=CARTESIAN_POINT('',(-0.0235685784874961,-0.00846023709492082,0.));
#1169=CARTESIAN_POINT('',(-0.0235685784874961,0.00846023709492082,0.));
#1170=CARTESIAN_POINT('',(-0.0214999872999749,0.00846023709492082,0.));
#1171=CARTESIAN_POINT('',(-0.0214999872999749,0.0112102370949208,0.));
#1172=CARTESIAN_POINT('',(-0.0192452378406033,0.0127845956549266,0.));
#1173=CARTESIAN_POINT('',(-0.0204294939290493,0.0144806519682808,0.));
#1174=CARTESIAN_POINT('',(0.020429526739194,0.0144806056791867,0.));
#1175=CARTESIAN_POINT('',(0.0192452668078342,0.0127845520491191,0.));
#1176=CARTESIAN_POINT('',(0.0215000127000253,0.011210188380316,0.));
#1177=CARTESIAN_POINT('',(0.0215163812049457,0.00846023709492082,-1.00373404249635E-19));
#1178=CARTESIAN_POINT('',(0.0235767754399814,0.00846023709492082,0.));
#1179=CARTESIAN_POINT('',(0.0235767754399819,-0.00846023709492082,0.));
#1180=CARTESIAN_POINT('',(0.0215163812049472,-0.00846023709492082,-1.00373404249635E-19));
#1181=CARTESIAN_POINT('',(0.0215000127000253,-0.011210188380316,0.));
#1182=CARTESIAN_POINT('',(0.0192452668078342,-0.0127845520491191,0.));
#1183=CARTESIAN_POINT('',(0.020429526739194,-0.0144806056791867,0.));
#1184=CARTESIAN_POINT('',(0.0215000127000253,0.011210188380316,0.));
#1185=CARTESIAN_POINT('',(0.0224000127000253,0.011210188380316,0.));
#1186=CARTESIAN_POINT('',(0.0215000127000253,-0.011210188380316,0.));
#1187=CARTESIAN_POINT('',(0.0224000127000253,-0.011210188380316,0.));
#1188=CARTESIAN_POINT('',(-0.0214999872999749,-0.0112102370949208,0.));
#1189=CARTESIAN_POINT('',(-0.0205999872999749,-0.0112102370949208,0.));
#1190=CARTESIAN_POINT('',(-0.0214999872999749,0.0112102370949208,0.));
#1191=CARTESIAN_POINT('',(-0.0205999872999749,0.0112102370949208,0.));
#1192=CARTESIAN_POINT('',(0.0158699517399032,-0.0218399796799594,-0.002));
#1193=CARTESIAN_POINT('',(-0.015869951739904,-0.0218399796799591,-0.002));
#1194=CARTESIAN_POINT('',(0.0158699517399032,0.0218399796799594,-0.002));
#1195=CARTESIAN_POINT('',(-0.0158699517399037,0.0218399796799594,-0.002));
#1196=CARTESIAN_POINT('',(0.0235767754399814,0.00846023709492082,1.99999999999983E-6));
#1197=CARTESIAN_POINT('',(0.0215163812049457,0.00846023709492082,1.99999999999983E-6));
#1198=CARTESIAN_POINT('',(0.0215000127000253,0.011210188380316,1.99999999999983E-6));
#1199=CARTESIAN_POINT('',(0.0192452668078342,0.0127845520491191,1.99999999999983E-6));
#1200=CARTESIAN_POINT('',(0.020429526739194,0.0144806056791867,1.99999999999983E-6));
#1201=CARTESIAN_POINT('',(0.0215000127000253,0.011210188380316,1.99999999999983E-6));
#1202=CARTESIAN_POINT('',(0.0215000127000253,-0.011210188380316,1.99999999999983E-6));
#1203=CARTESIAN_POINT('',(0.0192452668078342,-0.0127845520491191,1.99999999999983E-6));
#1204=CARTESIAN_POINT('',(0.0215163812049472,-0.00846023709492082,1.99999999999983E-6));
#1205=CARTESIAN_POINT('',(0.0235767754399819,-0.00846023709492082,1.99999999999983E-6));
#1206=CARTESIAN_POINT('',(0.020429526739194,-0.0144806056791867,1.99999999999983E-6));
#1207=CARTESIAN_POINT('',(0.0215000127000253,-0.011210188380316,1.99999999999983E-6));
#1208=CARTESIAN_POINT('',(-0.0214999872999749,-0.0112102370949208,1.99999999999983E-6));
#1209=CARTESIAN_POINT('',(-0.0214999872999749,-0.00846023709492082,1.99999999999983E-6));
#1210=CARTESIAN_POINT('',(-0.0192452378406033,-0.0127845956549266,1.99999999999983E-6));
#1211=CARTESIAN_POINT('',(-0.0204294939290493,-0.0144806519682808,1.99999999999983E-6));
#1212=CARTESIAN_POINT('',(-0.0214999872999749,-0.0112102370949208,1.99999999999983E-6));
#1213=CARTESIAN_POINT('',(-0.0235685784874961,-0.00846023709492082,1.99999999999983E-6));
#1214=CARTESIAN_POINT('',(-0.0204294939290493,0.0144806519682808,1.99999999999983E-6));
#1215=CARTESIAN_POINT('',(-0.0192452378406033,0.0127845956549266,1.99999999999983E-6));
#1216=CARTESIAN_POINT('',(-0.0214999872999749,0.0112102370949208,1.99999999999983E-6));
#1217=CARTESIAN_POINT('',(-0.0214999872999749,0.00846023709492082,1.99999999999983E-6));
#1218=CARTESIAN_POINT('',(-0.0235685784874961,0.00846023709492082,1.99999999999983E-6));
#1219=CARTESIAN_POINT('',(-0.0214999872999749,0.0112102370949208,1.99999999999983E-6));
#1220=MECHANICAL_DESIGN_GEOMETRIC_PRESENTATION_REPRESENTATION('',(#697),
#1221);
#1221=(
GEOMETRIC_REPRESENTATION_CONTEXT(3)
GLOBAL_UNCERTAINTY_ASSIGNED_CONTEXT((#1222))
GLOBAL_UNIT_ASSIGNED_CONTEXT((#1225,#1224,#1223))
REPRESENTATION_CONTEXT('internal spacer','TOP_LEVEL_ASSEMBLY_PART')
);
#1222=UNCERTAINTY_MEASURE_WITH_UNIT(LENGTH_MEASURE(2.20000000003471E-7),
#1225,'DISTANCE_ACCURACY_VALUE','Maximum Tolerance applied to model');
#1223=(
NAMED_UNIT(*)
SI_UNIT($,.STERADIAN.)
SOLID_ANGLE_UNIT()
);
#1224=(
NAMED_UNIT(*)
PLANE_ANGLE_UNIT()
SI_UNIT($,.RADIAN.)
);
#1225=(
LENGTH_UNIT()
NAMED_UNIT(*)
SI_UNIT($,.METRE.)
);
#1226=PRODUCT_DEFINITION_SHAPE('','',#1227);
#1227=PRODUCT_DEFINITION('','',#1229,#1228);
#1228=PRODUCT_DEFINITION_CONTEXT('',#1235,'design');
#1229=PRODUCT_DEFINITION_FORMATION_WITH_SPECIFIED_SOURCE('','',#1231,
 .NOT_KNOWN.);
#1230=PRODUCT_RELATED_PRODUCT_CATEGORY('','',(#1231));
#1231=PRODUCT('internal spacer','internal spacer','internal spacer',(#1233));
#1232=PRODUCT_CATEGORY('','');
#1233=PRODUCT_CONTEXT('',#1235,'mechanical');
#1234=APPLICATION_PROTOCOL_DEFINITION('international standard',
'ap242_managed_model_based_3d_engineering',2020,#1235);
#1235=APPLICATION_CONTEXT('managed model based 3d engineering');
ENDSEC;
END-ISO-10303-21;
