ISO-10303-21;
HEADER;
/* Generated by software containing ST-Developer
 * from STEP Tools, Inc. (www.steptools.com) 
 */
/* OPTION: using custom renumber hook */

FILE_DESCRIPTION(
/* description */ ('STEP AP242 Edition 2',
'CAx-IF Rec.Pracs.---Representation and Presentation of Product Manufa
cturing Information (PMI)---4.0---2014-10-13',
'CAx-IF Rec.Pracs.---3D Tessellated Geometry---0.4---2014-09-14','2;1',
'CAx-IF Rec.Pracs.---User Defined Attributes---1.5---2016-08-15'),
/* implementation_level */ '2;1');

FILE_NAME(
/* name */ 'droop4 - spacer',
/* time_stamp */ '2026-07-20T19:23:22Z',
/* author */ (''),
/* organization */ (''),
/* preprocessor_version */ 'ST-DEVELOPER v20',
/* originating_system */ 'ONSHAPE BY PTC INC, 1.218',
/* authorisation */ '  ');

FILE_SCHEMA (('AP242_MANAGED_MODEL_BASED_3D_ENGINEERING_MIM_LF { 1 0 10303 442 3 1 4 }'));
ENDSEC;

DATA;
#10=SHAPE_REPRESENTATION_RELATIONSHIP('','',#418,#11);
#11=ADVANCED_BREP_SHAPE_REPRESENTATION('',(#416),#735);
#12=CONICAL_SURFACE('',#473,0.03175,0.785398163397449);
#13=PLANE('',#460);
#14=PLANE('',#462);
#15=PLANE('',#467);
#16=PLANE('',#469);
#17=PLANE('',#471);
#18=PLANE('',#472);
#19=B_SPLINE_CURVE_WITH_KNOTS('',3,(#674,#675,#676,#677,#678),
 .UNSPECIFIED.,.F.,.F.,(4,1,4),(0.,0.00101901647802977,0.00203803295605954),
 .UNSPECIFIED.);
#20=B_SPLINE_CURVE_WITH_KNOTS('',3,(#687,#688,#689,#690,#691),
 .UNSPECIFIED.,.F.,.F.,(4,1,4),(0.,0.00101901563135959,0.00203803126271918),
 .UNSPECIFIED.);
#21=B_SPLINE_CURVE_WITH_KNOTS('',3,(#704,#705,#706,#707,#708),
 .UNSPECIFIED.,.F.,.F.,(4,1,4),(0.,0.0010193888498676,0.0020387776997352),
 .UNSPECIFIED.);
#22=B_SPLINE_CURVE_WITH_KNOTS('',3,(#712,#713,#714,#715,#716),
 .UNSPECIFIED.,.F.,.F.,(4,1,4),(0.,0.00101938783808818,0.00203877567617635),
 .UNSPECIFIED.);
#23=LINE('',#607,#41);
#24=LINE('',#611,#42);
#25=LINE('',#615,#43);
#26=LINE('',#621,#44);
#27=LINE('',#627,#45);
#28=LINE('',#633,#46);
#29=LINE('',#639,#47);
#30=LINE('',#645,#48);
#31=LINE('',#681,#49);
#32=LINE('',#685,#50);
#33=LINE('',#701,#51);
#34=LINE('',#718,#52);
#35=LINE('',#722,#53);
#36=LINE('',#723,#54);
#37=LINE('',#725,#55);
#38=LINE('',#726,#56);
#39=LINE('',#728,#57);
#40=LINE('',#730,#58);
#41=VECTOR('',#480,1.);
#42=VECTOR('',#483,1.);
#43=VECTOR('',#488,1.);
#44=VECTOR('',#495,1.);
#45=VECTOR('',#502,1.);
#46=VECTOR('',#509,1.);
#47=VECTOR('',#516,1.);
#48=VECTOR('',#523,1.);
#49=VECTOR('',#560,1.);
#50=VECTOR('',#563,1.);
#51=VECTOR('',#576,1.);
#52=VECTOR('',#579,1.);
#53=VECTOR('',#584,1.);
#54=VECTOR('',#585,1.);
#55=VECTOR('',#588,1.);
#56=VECTOR('',#589,1.);
#57=VECTOR('',#592,1.);
#58=VECTOR('',#595,1.);
#59=ORIENTED_EDGE('',*,*,#165,.F.);
#60=ORIENTED_EDGE('',*,*,#166,.F.);
#61=ORIENTED_EDGE('',*,*,#167,.T.);
#62=ORIENTED_EDGE('',*,*,#168,.T.);
#63=ORIENTED_EDGE('',*,*,#169,.T.);
#64=ORIENTED_EDGE('',*,*,#170,.F.);
#65=ORIENTED_EDGE('',*,*,#171,.F.);
#66=ORIENTED_EDGE('',*,*,#166,.T.);
#67=ORIENTED_EDGE('',*,*,#172,.F.);
#68=ORIENTED_EDGE('',*,*,#173,.F.);
#69=ORIENTED_EDGE('',*,*,#174,.T.);
#70=ORIENTED_EDGE('',*,*,#170,.T.);
#71=ORIENTED_EDGE('',*,*,#175,.F.);
#72=ORIENTED_EDGE('',*,*,#176,.F.);
#73=ORIENTED_EDGE('',*,*,#177,.T.);
#74=ORIENTED_EDGE('',*,*,#173,.T.);
#75=ORIENTED_EDGE('',*,*,#178,.F.);
#76=ORIENTED_EDGE('',*,*,#179,.F.);
#77=ORIENTED_EDGE('',*,*,#180,.T.);
#78=ORIENTED_EDGE('',*,*,#176,.T.);
#79=ORIENTED_EDGE('',*,*,#181,.T.);
#80=ORIENTED_EDGE('',*,*,#182,.F.);
#81=ORIENTED_EDGE('',*,*,#183,.F.);
#82=ORIENTED_EDGE('',*,*,#179,.T.);
#83=ORIENTED_EDGE('',*,*,#184,.F.);
#84=ORIENTED_EDGE('',*,*,#185,.F.);
#85=ORIENTED_EDGE('',*,*,#186,.T.);
#86=ORIENTED_EDGE('',*,*,#182,.T.);
#87=ORIENTED_EDGE('',*,*,#187,.T.);
#88=ORIENTED_EDGE('',*,*,#188,.F.);
#89=ORIENTED_EDGE('',*,*,#189,.T.);
#90=ORIENTED_EDGE('',*,*,#190,.F.);
#91=ORIENTED_EDGE('',*,*,#191,.T.);
#92=ORIENTED_EDGE('',*,*,#192,.F.);
#93=ORIENTED_EDGE('',*,*,#193,.T.);
#94=ORIENTED_EDGE('',*,*,#194,.F.);
#95=ORIENTED_EDGE('',*,*,#195,.F.);
#96=ORIENTED_EDGE('',*,*,#168,.F.);
#97=ORIENTED_EDGE('',*,*,#196,.T.);
#98=ORIENTED_EDGE('',*,*,#185,.T.);
#99=ORIENTED_EDGE('',*,*,#197,.T.);
#100=ORIENTED_EDGE('',*,*,#198,.T.);
#101=ORIENTED_EDGE('',*,*,#199,.T.);
#102=ORIENTED_EDGE('',*,*,#200,.F.);
#103=ORIENTED_EDGE('',*,*,#201,.F.);
#104=ORIENTED_EDGE('',*,*,#202,.T.);
#105=ORIENTED_EDGE('',*,*,#203,.T.);
#106=ORIENTED_EDGE('',*,*,#204,.F.);
#107=ORIENTED_EDGE('',*,*,#167,.F.);
#108=ORIENTED_EDGE('',*,*,#171,.T.);
#109=ORIENTED_EDGE('',*,*,#174,.F.);
#110=ORIENTED_EDGE('',*,*,#177,.F.);
#111=ORIENTED_EDGE('',*,*,#180,.F.);
#112=ORIENTED_EDGE('',*,*,#183,.T.);
#113=ORIENTED_EDGE('',*,*,#186,.F.);
#114=ORIENTED_EDGE('',*,*,#196,.F.);
#115=ORIENTED_EDGE('',*,*,#193,.F.);
#116=ORIENTED_EDGE('',*,*,#191,.F.);
#117=ORIENTED_EDGE('',*,*,#189,.F.);
#118=ORIENTED_EDGE('',*,*,#187,.F.);
#119=ORIENTED_EDGE('',*,*,#205,.T.);
#120=ORIENTED_EDGE('',*,*,#165,.T.);
#121=ORIENTED_EDGE('',*,*,#195,.T.);
#122=ORIENTED_EDGE('',*,*,#184,.T.);
#123=ORIENTED_EDGE('',*,*,#181,.F.);
#124=ORIENTED_EDGE('',*,*,#178,.T.);
#125=ORIENTED_EDGE('',*,*,#175,.T.);
#126=ORIENTED_EDGE('',*,*,#172,.T.);
#127=ORIENTED_EDGE('',*,*,#169,.F.);
#128=ORIENTED_EDGE('',*,*,#194,.T.);
#129=ORIENTED_EDGE('',*,*,#192,.T.);
#130=ORIENTED_EDGE('',*,*,#190,.T.);
#131=ORIENTED_EDGE('',*,*,#188,.T.);
#132=ORIENTED_EDGE('',*,*,#206,.F.);
#133=ORIENTED_EDGE('',*,*,#207,.F.);
#134=ORIENTED_EDGE('',*,*,#208,.F.);
#135=ORIENTED_EDGE('',*,*,#209,.F.);
#136=ORIENTED_EDGE('',*,*,#210,.T.);
#137=ORIENTED_EDGE('',*,*,#211,.T.);
#138=ORIENTED_EDGE('',*,*,#204,.T.);
#139=ORIENTED_EDGE('',*,*,#212,.F.);
#140=ORIENTED_EDGE('',*,*,#211,.F.);
#141=ORIENTED_EDGE('',*,*,#213,.T.);
#142=ORIENTED_EDGE('',*,*,#200,.T.);
#143=ORIENTED_EDGE('',*,*,#214,.T.);
#144=ORIENTED_EDGE('',*,*,#209,.T.);
#145=ORIENTED_EDGE('',*,*,#215,.F.);
#146=ORIENTED_EDGE('',*,*,#202,.F.);
#147=ORIENTED_EDGE('',*,*,#215,.T.);
#148=ORIENTED_EDGE('',*,*,#208,.T.);
#149=ORIENTED_EDGE('',*,*,#216,.F.);
#150=ORIENTED_EDGE('',*,*,#203,.F.);
#151=ORIENTED_EDGE('',*,*,#216,.T.);
#152=ORIENTED_EDGE('',*,*,#207,.T.);
#153=ORIENTED_EDGE('',*,*,#217,.F.);
#154=ORIENTED_EDGE('',*,*,#198,.F.);
#155=ORIENTED_EDGE('',*,*,#217,.T.);
#156=ORIENTED_EDGE('',*,*,#206,.T.);
#157=ORIENTED_EDGE('',*,*,#212,.T.);
#158=ORIENTED_EDGE('',*,*,#199,.F.);
#159=ORIENTED_EDGE('',*,*,#201,.T.);
#160=ORIENTED_EDGE('',*,*,#213,.F.);
#161=ORIENTED_EDGE('',*,*,#210,.F.);
#162=ORIENTED_EDGE('',*,*,#214,.F.);
#163=ORIENTED_EDGE('',*,*,#205,.F.);
#164=ORIENTED_EDGE('',*,*,#197,.F.);
#165=EDGE_CURVE('',#218,#219,#257,.T.);
#166=EDGE_CURVE('',#220,#218,#23,.T.);
#167=EDGE_CURVE('',#220,#221,#258,.T.);
#168=EDGE_CURVE('',#221,#219,#24,.T.);
#169=EDGE_CURVE('',#218,#222,#259,.T.);
#170=EDGE_CURVE('',#223,#222,#25,.T.);
#171=EDGE_CURVE('',#220,#223,#260,.T.);
#172=EDGE_CURVE('',#224,#222,#261,.T.);
#173=EDGE_CURVE('',#225,#224,#26,.T.);
#174=EDGE_CURVE('',#225,#223,#262,.T.);
#175=EDGE_CURVE('',#226,#224,#263,.T.);
#176=EDGE_CURVE('',#227,#226,#27,.T.);
#177=EDGE_CURVE('',#227,#225,#264,.T.);
#178=EDGE_CURVE('',#228,#226,#265,.T.);
#179=EDGE_CURVE('',#229,#228,#28,.T.);
#180=EDGE_CURVE('',#229,#227,#266,.T.);
#181=EDGE_CURVE('',#228,#230,#267,.T.);
#182=EDGE_CURVE('',#231,#230,#29,.T.);
#183=EDGE_CURVE('',#229,#231,#268,.T.);
#184=EDGE_CURVE('',#232,#230,#269,.T.);
#185=EDGE_CURVE('',#233,#232,#30,.T.);
#186=EDGE_CURVE('',#233,#231,#270,.T.);
#187=EDGE_CURVE('',#234,#234,#271,.T.);
#188=EDGE_CURVE('',#235,#235,#272,.T.);
#189=EDGE_CURVE('',#236,#236,#273,.T.);
#190=EDGE_CURVE('',#237,#237,#274,.T.);
#191=EDGE_CURVE('',#238,#238,#275,.T.);
#192=EDGE_CURVE('',#239,#239,#276,.T.);
#193=EDGE_CURVE('',#240,#240,#277,.T.);
#194=EDGE_CURVE('',#241,#241,#278,.T.);
#195=EDGE_CURVE('',#219,#232,#279,.T.);
#196=EDGE_CURVE('',#221,#233,#280,.T.);
#197=EDGE_CURVE('',#242,#242,#281,.T.);
#198=EDGE_CURVE('',#243,#244,#19,.T.);
#199=EDGE_CURVE('',#244,#245,#31,.F.);
#200=EDGE_CURVE('',#246,#245,#282,.T.);
#201=EDGE_CURVE('',#247,#246,#32,.F.);
#202=EDGE_CURVE('',#247,#248,#20,.T.);
#203=EDGE_CURVE('',#248,#243,#283,.T.);
#204=EDGE_CURVE('',#249,#249,#284,.F.);
#205=EDGE_CURVE('',#250,#250,#285,.F.);
#206=EDGE_CURVE('',#251,#252,#33,.F.);
#207=EDGE_CURVE('',#253,#251,#21,.T.);
#208=EDGE_CURVE('',#254,#253,#286,.T.);
#209=EDGE_CURVE('',#255,#254,#22,.T.);
#210=EDGE_CURVE('',#255,#256,#34,.F.);
#211=EDGE_CURVE('',#256,#252,#287,.T.);
#212=EDGE_CURVE('',#252,#245,#35,.T.);
#213=EDGE_CURVE('',#256,#246,#36,.T.);
#214=EDGE_CURVE('',#247,#255,#37,.T.);
#215=EDGE_CURVE('',#248,#254,#38,.T.);
#216=EDGE_CURVE('',#243,#253,#39,.T.);
#217=EDGE_CURVE('',#244,#251,#40,.T.);
#218=VERTEX_POINT('',#605);
#219=VERTEX_POINT('',#606);
#220=VERTEX_POINT('',#608);
#221=VERTEX_POINT('',#610);
#222=VERTEX_POINT('',#614);
#223=VERTEX_POINT('',#616);
#224=VERTEX_POINT('',#620);
#225=VERTEX_POINT('',#622);
#226=VERTEX_POINT('',#626);
#227=VERTEX_POINT('',#628);
#228=VERTEX_POINT('',#632);
#229=VERTEX_POINT('',#634);
#230=VERTEX_POINT('',#638);
#231=VERTEX_POINT('',#640);
#232=VERTEX_POINT('',#644);
#233=VERTEX_POINT('',#646);
#234=VERTEX_POINT('',#650);
#235=VERTEX_POINT('',#652);
#236=VERTEX_POINT('',#655);
#237=VERTEX_POINT('',#657);
#238=VERTEX_POINT('',#660);
#239=VERTEX_POINT('',#662);
#240=VERTEX_POINT('',#665);
#241=VERTEX_POINT('',#667);
#242=VERTEX_POINT('',#673);
#243=VERTEX_POINT('',#679);
#244=VERTEX_POINT('',#680);
#245=VERTEX_POINT('',#682);
#246=VERTEX_POINT('',#684);
#247=VERTEX_POINT('',#686);
#248=VERTEX_POINT('',#692);
#249=VERTEX_POINT('',#696);
#250=VERTEX_POINT('',#699);
#251=VERTEX_POINT('',#702);
#252=VERTEX_POINT('',#703);
#253=VERTEX_POINT('',#709);
#254=VERTEX_POINT('',#711);
#255=VERTEX_POINT('',#717);
#256=VERTEX_POINT('',#719);
#257=CIRCLE('',#421,0.0269970383680858);
#258=CIRCLE('',#422,0.0269970383680858);
#259=CIRCLE('',#424,0.0026);
#260=CIRCLE('',#425,0.0026);
#261=CIRCLE('',#427,0.0269970383680858);
#262=CIRCLE('',#428,0.0269970383680858);
#263=CIRCLE('',#430,0.0026);
#264=CIRCLE('',#431,0.0026);
#265=CIRCLE('',#433,0.0269970383680858);
#266=CIRCLE('',#434,0.0269970383680858);
#267=CIRCLE('',#436,0.0026);
#268=CIRCLE('',#437,0.0026);
#269=CIRCLE('',#439,0.0269970383680858);
#270=CIRCLE('',#440,0.0269970383680858);
#271=CIRCLE('',#442,0.00125);
#272=CIRCLE('',#443,0.00125);
#273=CIRCLE('',#445,0.00125);
#274=CIRCLE('',#446,0.00125);
#275=CIRCLE('',#448,0.00125);
#276=CIRCLE('',#449,0.00125);
#277=CIRCLE('',#451,0.00125);
#278=CIRCLE('',#452,0.00125);
#279=CIRCLE('',#454,0.0026);
#280=CIRCLE('',#455,0.0026);
#281=CIRCLE('',#457,0.03175);
#282=CIRCLE('',#458,0.03175);
#283=CIRCLE('',#459,0.03175);
#284=CIRCLE('',#461,0.0302500000000023);
#285=CIRCLE('',#463,0.03075);
#286=CIRCLE('',#465,0.0302500000000023);
#287=CIRCLE('',#466,0.0302500000000023);
#288=EDGE_LOOP('',(#59,#60,#61,#62));
#289=EDGE_LOOP('',(#63,#64,#65,#66));
#290=EDGE_LOOP('',(#67,#68,#69,#70));
#291=EDGE_LOOP('',(#71,#72,#73,#74));
#292=EDGE_LOOP('',(#75,#76,#77,#78));
#293=EDGE_LOOP('',(#79,#80,#81,#82));
#294=EDGE_LOOP('',(#83,#84,#85,#86));
#295=EDGE_LOOP('',(#87));
#296=EDGE_LOOP('',(#88));
#297=EDGE_LOOP('',(#89));
#298=EDGE_LOOP('',(#90));
#299=EDGE_LOOP('',(#91));
#300=EDGE_LOOP('',(#92));
#301=EDGE_LOOP('',(#93));
#302=EDGE_LOOP('',(#94));
#303=EDGE_LOOP('',(#95,#96,#97,#98));
#304=EDGE_LOOP('',(#99));
#305=EDGE_LOOP('',(#100,#101,#102,#103,#104,#105));
#306=EDGE_LOOP('',(#106));
#307=EDGE_LOOP('',(#107,#108,#109,#110,#111,#112,#113,#114));
#308=EDGE_LOOP('',(#115));
#309=EDGE_LOOP('',(#116));
#310=EDGE_LOOP('',(#117));
#311=EDGE_LOOP('',(#118));
#312=EDGE_LOOP('',(#119));
#313=EDGE_LOOP('',(#120,#121,#122,#123,#124,#125,#126,#127));
#314=EDGE_LOOP('',(#128));
#315=EDGE_LOOP('',(#129));
#316=EDGE_LOOP('',(#130));
#317=EDGE_LOOP('',(#131));
#318=EDGE_LOOP('',(#132,#133,#134,#135,#136,#137));
#319=EDGE_LOOP('',(#138));
#320=EDGE_LOOP('',(#139,#140,#141,#142));
#321=EDGE_LOOP('',(#143,#144,#145,#146));
#322=EDGE_LOOP('',(#147,#148,#149,#150));
#323=EDGE_LOOP('',(#151,#152,#153,#154));
#324=EDGE_LOOP('',(#155,#156,#157,#158));
#325=EDGE_LOOP('',(#159,#160,#161,#162));
#326=EDGE_LOOP('',(#163));
#327=EDGE_LOOP('',(#164));
#328=FACE_BOUND('',#288,.T.);
#329=FACE_BOUND('',#289,.T.);
#330=FACE_BOUND('',#290,.T.);
#331=FACE_BOUND('',#291,.T.);
#332=FACE_BOUND('',#292,.T.);
#333=FACE_BOUND('',#293,.T.);
#334=FACE_BOUND('',#294,.T.);
#335=FACE_BOUND('',#295,.T.);
#336=FACE_BOUND('',#296,.T.);
#337=FACE_BOUND('',#297,.T.);
#338=FACE_BOUND('',#298,.T.);
#339=FACE_BOUND('',#299,.T.);
#340=FACE_BOUND('',#300,.T.);
#341=FACE_BOUND('',#301,.T.);
#342=FACE_BOUND('',#302,.T.);
#343=FACE_BOUND('',#303,.T.);
#344=FACE_BOUND('',#304,.T.);
#345=FACE_BOUND('',#305,.T.);
#346=FACE_BOUND('',#306,.T.);
#347=FACE_BOUND('',#307,.T.);
#348=FACE_BOUND('',#308,.T.);
#349=FACE_BOUND('',#309,.T.);
#350=FACE_BOUND('',#310,.T.);
#351=FACE_BOUND('',#311,.T.);
#352=FACE_BOUND('',#312,.T.);
#353=FACE_BOUND('',#313,.T.);
#354=FACE_BOUND('',#314,.T.);
#355=FACE_BOUND('',#315,.T.);
#356=FACE_BOUND('',#316,.T.);
#357=FACE_BOUND('',#317,.T.);
#358=FACE_BOUND('',#318,.T.);
#359=FACE_BOUND('',#319,.T.);
#360=FACE_BOUND('',#320,.T.);
#361=FACE_BOUND('',#321,.T.);
#362=FACE_BOUND('',#322,.T.);
#363=FACE_BOUND('',#323,.T.);
#364=FACE_BOUND('',#324,.T.);
#365=FACE_BOUND('',#325,.T.);
#366=FACE_BOUND('',#326,.T.);
#367=FACE_BOUND('',#327,.T.);
#368=CYLINDRICAL_SURFACE('',#420,0.0269970383680858);
#369=CYLINDRICAL_SURFACE('',#423,0.0026);
#370=CYLINDRICAL_SURFACE('',#426,0.0269970383680858);
#371=CYLINDRICAL_SURFACE('',#429,0.0026);
#372=CYLINDRICAL_SURFACE('',#432,0.0269970383680858);
#373=CYLINDRICAL_SURFACE('',#435,0.0026);
#374=CYLINDRICAL_SURFACE('',#438,0.0269970383680858);
#375=CYLINDRICAL_SURFACE('',#441,0.00125);
#376=CYLINDRICAL_SURFACE('',#444,0.00125);
#377=CYLINDRICAL_SURFACE('',#447,0.00125);
#378=CYLINDRICAL_SURFACE('',#450,0.00125);
#379=CYLINDRICAL_SURFACE('',#453,0.0026);
#380=CYLINDRICAL_SURFACE('',#456,0.03175);
#381=CYLINDRICAL_SURFACE('',#464,0.0302500000000023);
#382=CYLINDRICAL_SURFACE('',#468,0.0013);
#383=CYLINDRICAL_SURFACE('',#470,0.0013);
#384=ADVANCED_FACE('',(#328),#368,.F.);
#385=ADVANCED_FACE('',(#329),#369,.T.);
#386=ADVANCED_FACE('',(#330),#370,.F.);
#387=ADVANCED_FACE('',(#331),#371,.T.);
#388=ADVANCED_FACE('',(#332),#372,.F.);
#389=ADVANCED_FACE('',(#333),#373,.T.);
#390=ADVANCED_FACE('',(#334),#374,.F.);
#391=ADVANCED_FACE('',(#335,#336),#375,.F.);
#392=ADVANCED_FACE('',(#337,#338),#376,.F.);
#393=ADVANCED_FACE('',(#339,#340),#377,.F.);
#394=ADVANCED_FACE('',(#341,#342),#378,.F.);
#395=ADVANCED_FACE('',(#343),#379,.T.);
#396=ADVANCED_FACE('',(#344,#345),#380,.T.);
#397=ADVANCED_FACE('',(#346,#347,#348,#349,#350,#351),#13,.T.);
#398=ADVANCED_FACE('',(#352,#353,#354,#355,#356,#357),#14,.F.);
#399=ADVANCED_FACE('',(#358,#359),#381,.F.);
#400=ADVANCED_FACE('',(#360),#15,.T.);
#401=ADVANCED_FACE('',(#361),#382,.F.);
#402=ADVANCED_FACE('',(#362),#16,.F.);
#403=ADVANCED_FACE('',(#363),#383,.F.);
#404=ADVANCED_FACE('',(#364),#17,.F.);
#405=ADVANCED_FACE('',(#365),#18,.T.);
#406=ADVANCED_FACE('',(#366,#367),#12,.T.);
#407=CLOSED_SHELL('',(#384,#385,#386,#387,#388,#389,#390,#391,#392,#393,
#394,#395,#396,#397,#398,#399,#400,#401,#402,#403,#404,#405,#406));
#408=STYLED_ITEM('',(#409),#416);
#409=PRESENTATION_STYLE_ASSIGNMENT((#410));
#410=SURFACE_STYLE_USAGE(.BOTH.,#411);
#411=SURFACE_SIDE_STYLE('',(#412));
#412=SURFACE_STYLE_FILL_AREA(#413);
#413=FILL_AREA_STYLE('',(#414));
#414=FILL_AREA_STYLE_COLOUR('',#415);
#415=COLOUR_RGB('',0.647058823529412,0.647058823529412,0.647058823529412);
#416=MANIFOLD_SOLID_BREP('spacer',#407);
#417=SHAPE_DEFINITION_REPRESENTATION(#740,#418);
#418=SHAPE_REPRESENTATION('spacer',(#419),#735);
#419=AXIS2_PLACEMENT_3D('',#602,#474,#475);
#420=AXIS2_PLACEMENT_3D('',#603,#476,#477);
#421=AXIS2_PLACEMENT_3D('',#604,#478,#479);
#422=AXIS2_PLACEMENT_3D('',#609,#481,#482);
#423=AXIS2_PLACEMENT_3D('',#612,#484,#485);
#424=AXIS2_PLACEMENT_3D('',#613,#486,#487);
#425=AXIS2_PLACEMENT_3D('',#617,#489,#490);
#426=AXIS2_PLACEMENT_3D('',#618,#491,#492);
#427=AXIS2_PLACEMENT_3D('',#619,#493,#494);
#428=AXIS2_PLACEMENT_3D('',#623,#496,#497);
#429=AXIS2_PLACEMENT_3D('',#624,#498,#499);
#430=AXIS2_PLACEMENT_3D('',#625,#500,#501);
#431=AXIS2_PLACEMENT_3D('',#629,#503,#504);
#432=AXIS2_PLACEMENT_3D('',#630,#505,#506);
#433=AXIS2_PLACEMENT_3D('',#631,#507,#508);
#434=AXIS2_PLACEMENT_3D('',#635,#510,#511);
#435=AXIS2_PLACEMENT_3D('',#636,#512,#513);
#436=AXIS2_PLACEMENT_3D('',#637,#514,#515);
#437=AXIS2_PLACEMENT_3D('',#641,#517,#518);
#438=AXIS2_PLACEMENT_3D('',#642,#519,#520);
#439=AXIS2_PLACEMENT_3D('',#643,#521,#522);
#440=AXIS2_PLACEMENT_3D('',#647,#524,#525);
#441=AXIS2_PLACEMENT_3D('',#648,#526,#527);
#442=AXIS2_PLACEMENT_3D('',#649,#528,#529);
#443=AXIS2_PLACEMENT_3D('',#651,#530,#531);
#444=AXIS2_PLACEMENT_3D('',#653,#532,#533);
#445=AXIS2_PLACEMENT_3D('',#654,#534,#535);
#446=AXIS2_PLACEMENT_3D('',#656,#536,#537);
#447=AXIS2_PLACEMENT_3D('',#658,#538,#539);
#448=AXIS2_PLACEMENT_3D('',#659,#540,#541);
#449=AXIS2_PLACEMENT_3D('',#661,#542,#543);
#450=AXIS2_PLACEMENT_3D('',#663,#544,#545);
#451=AXIS2_PLACEMENT_3D('',#664,#546,#547);
#452=AXIS2_PLACEMENT_3D('',#666,#548,#549);
#453=AXIS2_PLACEMENT_3D('',#668,#550,#551);
#454=AXIS2_PLACEMENT_3D('',#669,#552,#553);
#455=AXIS2_PLACEMENT_3D('',#670,#554,#555);
#456=AXIS2_PLACEMENT_3D('',#671,#556,#557);
#457=AXIS2_PLACEMENT_3D('',#672,#558,#559);
#458=AXIS2_PLACEMENT_3D('',#683,#561,#562);
#459=AXIS2_PLACEMENT_3D('',#693,#564,#565);
#460=AXIS2_PLACEMENT_3D('',#694,#566,#567);
#461=AXIS2_PLACEMENT_3D('',#695,#568,#569);
#462=AXIS2_PLACEMENT_3D('',#697,#570,#571);
#463=AXIS2_PLACEMENT_3D('',#698,#572,#573);
#464=AXIS2_PLACEMENT_3D('',#700,#574,#575);
#465=AXIS2_PLACEMENT_3D('',#710,#577,#578);
#466=AXIS2_PLACEMENT_3D('',#720,#580,#581);
#467=AXIS2_PLACEMENT_3D('',#721,#582,#583);
#468=AXIS2_PLACEMENT_3D('',#724,#586,#587);
#469=AXIS2_PLACEMENT_3D('',#727,#590,#591);
#470=AXIS2_PLACEMENT_3D('',#729,#593,#594);
#471=AXIS2_PLACEMENT_3D('',#731,#596,#597);
#472=AXIS2_PLACEMENT_3D('',#732,#598,#599);
#473=AXIS2_PLACEMENT_3D('',#733,#600,#601);
#474=DIRECTION('',(0.,0.,1.));
#475=DIRECTION('',(1.,0.,0.));
#476=DIRECTION('',(0.,0.,-1.));
#477=DIRECTION('',(-1.,0.,0.));
#478=DIRECTION('',(0.,0.,1.));
#479=DIRECTION('',(1.,0.,0.));
#480=DIRECTION('',(0.,0.,-1.));
#481=DIRECTION('',(0.,0.,1.));
#482=DIRECTION('',(1.,0.,0.));
#483=DIRECTION('',(0.,0.,-1.));
#484=DIRECTION('',(0.,0.,-1.));
#485=DIRECTION('',(-1.,0.,0.));
#486=DIRECTION('',(0.,0.,1.));
#487=DIRECTION('',(1.,0.,0.));
#488=DIRECTION('',(0.,0.,-1.));
#489=DIRECTION('',(0.,0.,1.));
#490=DIRECTION('',(1.,0.,0.));
#491=DIRECTION('',(0.,0.,-1.));
#492=DIRECTION('',(-1.,0.,0.));
#493=DIRECTION('',(0.,0.,1.));
#494=DIRECTION('',(1.,0.,0.));
#495=DIRECTION('',(0.,0.,-1.));
#496=DIRECTION('',(0.,0.,1.));
#497=DIRECTION('',(1.,0.,0.));
#498=DIRECTION('',(0.,0.,-1.));
#499=DIRECTION('',(-1.,0.,0.));
#500=DIRECTION('',(0.,0.,-1.));
#501=DIRECTION('',(1.,0.,0.));
#502=DIRECTION('',(0.,0.,-1.));
#503=DIRECTION('',(0.,0.,-1.));
#504=DIRECTION('',(1.,0.,0.));
#505=DIRECTION('',(0.,0.,-1.));
#506=DIRECTION('',(-1.,0.,0.));
#507=DIRECTION('',(0.,0.,1.));
#508=DIRECTION('',(1.,0.,0.));
#509=DIRECTION('',(0.,0.,-1.));
#510=DIRECTION('',(0.,0.,1.));
#511=DIRECTION('',(1.,0.,0.));
#512=DIRECTION('',(0.,0.,-1.));
#513=DIRECTION('',(-1.,0.,0.));
#514=DIRECTION('',(0.,0.,1.));
#515=DIRECTION('',(1.,0.,0.));
#516=DIRECTION('',(0.,0.,-1.));
#517=DIRECTION('',(0.,0.,1.));
#518=DIRECTION('',(1.,0.,0.));
#519=DIRECTION('',(0.,0.,-1.));
#520=DIRECTION('',(-1.,0.,0.));
#521=DIRECTION('',(0.,0.,1.));
#522=DIRECTION('',(1.,0.,0.));
#523=DIRECTION('',(0.,0.,-1.));
#524=DIRECTION('',(0.,0.,1.));
#525=DIRECTION('',(1.,0.,0.));
#526=DIRECTION('',(0.,0.,-1.));
#527=DIRECTION('',(-1.,0.,0.));
#528=DIRECTION('',(0.,0.,1.));
#529=DIRECTION('',(1.,0.,0.));
#530=DIRECTION('',(0.,0.,1.));
#531=DIRECTION('',(1.,0.,0.));
#532=DIRECTION('',(0.,0.,-1.));
#533=DIRECTION('',(-1.,0.,0.));
#534=DIRECTION('',(0.,0.,1.));
#535=DIRECTION('',(1.,0.,0.));
#536=DIRECTION('',(0.,0.,1.));
#537=DIRECTION('',(1.,0.,0.));
#538=DIRECTION('',(0.,0.,-1.));
#539=DIRECTION('',(-1.,0.,0.));
#540=DIRECTION('',(0.,0.,1.));
#541=DIRECTION('',(1.,0.,0.));
#542=DIRECTION('',(0.,0.,1.));
#543=DIRECTION('',(1.,0.,0.));
#544=DIRECTION('',(0.,0.,-1.));
#545=DIRECTION('',(-1.,0.,0.));
#546=DIRECTION('',(0.,0.,1.));
#547=DIRECTION('',(1.,0.,0.));
#548=DIRECTION('',(0.,0.,1.));
#549=DIRECTION('',(1.,0.,0.));
#550=DIRECTION('',(0.,0.,-1.));
#551=DIRECTION('',(-1.,0.,0.));
#552=DIRECTION('',(0.,0.,-1.));
#553=DIRECTION('',(1.,0.,0.));
#554=DIRECTION('',(0.,0.,-1.));
#555=DIRECTION('',(1.,0.,0.));
#556=DIRECTION('',(0.,0.,-1.));
#557=DIRECTION('',(-1.,0.,0.));
#558=DIRECTION('',(0.,0.,1.));
#559=DIRECTION('',(1.,0.,0.));
#560=DIRECTION('',(0.,0.,-1.));
#561=DIRECTION('',(0.,0.,1.));
#562=DIRECTION('',(1.,0.,0.));
#563=DIRECTION('',(0.,0.,-1.));
#564=DIRECTION('',(0.,0.,-1.));
#565=DIRECTION('',(-1.,0.,0.));
#566=DIRECTION('',(0.,0.,1.));
#567=DIRECTION('',(1.,0.,0.));
#568=DIRECTION('',(0.,0.,1.));
#569=DIRECTION('',(1.,0.,0.));
#570=DIRECTION('',(0.,0.,1.));
#571=DIRECTION('',(1.,0.,0.));
#572=DIRECTION('',(0.,0.,1.));
#573=DIRECTION('',(1.,0.,0.));
#574=DIRECTION('',(0.,0.,-1.));
#575=DIRECTION('',(-1.,0.,0.));
#576=DIRECTION('',(0.,0.,-1.));
#577=DIRECTION('',(0.,0.,-1.));
#578=DIRECTION('',(-1.,0.,0.));
#579=DIRECTION('',(0.,0.,-1.));
#580=DIRECTION('',(0.,0.,1.));
#581=DIRECTION('',(1.,0.,0.));
#582=DIRECTION('',(0.,0.,1.));
#583=DIRECTION('',(1.,0.,0.));
#584=DIRECTION('',(0.,1.,0.));
#585=DIRECTION('',(0.,1.,0.));
#586=DIRECTION('',(0.,-1.,0.));
#587=DIRECTION('',(0.,0.,-1.));
#588=DIRECTION('',(0.,-1.,0.));
#589=DIRECTION('',(0.,-1.,0.));
#590=DIRECTION('',(0.,0.,-1.));
#591=DIRECTION('',(-1.,0.,0.));
#592=DIRECTION('',(0.,-1.,0.));
#593=DIRECTION('',(0.,-1.,0.));
#594=DIRECTION('',(0.,0.,-1.));
#595=DIRECTION('',(0.,-1.,0.));
#596=DIRECTION('',(1.,0.,0.));
#597=DIRECTION('',(0.,0.,-1.));
#598=DIRECTION('',(1.,0.,0.));
#599=DIRECTION('',(0.,0.,-1.));
#600=DIRECTION('',(0.,0.,1.));
#601=DIRECTION('',(1.,0.,0.));
#602=CARTESIAN_POINT('',(0.,0.,0.));
#603=CARTESIAN_POINT('',(-8.67361737988404E-18,-4.33680868994202E-18,0.0016));
#604=CARTESIAN_POINT('',(-8.67361737988404E-18,-4.33680868994202E-18,0.));
#605=CARTESIAN_POINT('',(-0.0178972546408493,0.0202120844290857,0.));
#606=CARTESIAN_POINT('',(-0.0178972546408493,-0.0202120844290857,0.));
#607=CARTESIAN_POINT('',(-0.0178972546408493,0.0202120844290857,0.0016));
#608=CARTESIAN_POINT('',(-0.0178972546408493,0.0202120844290857,0.0016));
#609=CARTESIAN_POINT('',(-8.67361737988404E-18,-4.33680868994202E-18,0.0016));
#610=CARTESIAN_POINT('',(-0.0178972546408493,-0.0202120844290857,0.0016));
#611=CARTESIAN_POINT('',(-0.0178972546408493,-0.0202120844290857,0.0016));
#612=CARTESIAN_POINT('',(-0.0158699517399037,0.0218399796799594,0.0016));
#613=CARTESIAN_POINT('',(-0.0158699517399037,0.0218399796799594,0.));
#614=CARTESIAN_POINT('',(-0.013695454856889,0.0232653088720268,0.));
#615=CARTESIAN_POINT('',(-0.013695454856889,0.0232653088720268,0.0016));
#616=CARTESIAN_POINT('',(-0.013695454856889,0.0232653088720268,0.0016));
#617=CARTESIAN_POINT('',(-0.0158699517399037,0.0218399796799594,0.0016));
#618=CARTESIAN_POINT('',(2.60208521396521E-18,-5.20417042793042E-18,0.0016));
#619=CARTESIAN_POINT('',(2.60208521396521E-18,-5.20417042793042E-18,0.));
#620=CARTESIAN_POINT('',(0.013695454856889,0.0232653088720268,0.));
#621=CARTESIAN_POINT('',(0.013695454856889,0.0232653088720268,0.0016));
#622=CARTESIAN_POINT('',(0.013695454856889,0.0232653088720268,0.0016));
#623=CARTESIAN_POINT('',(2.60208521396521E-18,-5.20417042793042E-18,0.0016));
#624=CARTESIAN_POINT('',(0.0158699517399037,0.0218399796799594,0.0016));
#625=CARTESIAN_POINT('',(0.0158699517399037,0.0218399796799594,0.));
#626=CARTESIAN_POINT('',(0.0178972546408493,0.0202120844290857,0.));
#627=CARTESIAN_POINT('',(0.0178972546408493,0.0202120844290857,0.0016));
#628=CARTESIAN_POINT('',(0.0178972546408493,0.0202120844290857,0.0016));
#629=CARTESIAN_POINT('',(0.0158699517399037,0.0218399796799594,0.0016));
#630=CARTESIAN_POINT('',(1.7347234759768E-18,4.33680868994202E-18,0.0016));
#631=CARTESIAN_POINT('',(1.7347234759768E-18,4.33680868994202E-18,0.));
#632=CARTESIAN_POINT('',(0.0178972546408493,-0.0202120844290857,0.));
#633=CARTESIAN_POINT('',(0.0178972546408493,-0.0202120844290857,0.0016));
#634=CARTESIAN_POINT('',(0.0178972546408493,-0.0202120844290857,0.0016));
#635=CARTESIAN_POINT('',(1.7347234759768E-18,4.33680868994202E-18,0.0016));
#636=CARTESIAN_POINT('',(0.0158699517399037,-0.0218399796799594,0.0016));
#637=CARTESIAN_POINT('',(0.0158699517399037,-0.0218399796799594,0.));
#638=CARTESIAN_POINT('',(0.013695454856889,-0.0232653088720268,0.));
#639=CARTESIAN_POINT('',(0.013695454856889,-0.0232653088720268,0.0016));
#640=CARTESIAN_POINT('',(0.013695454856889,-0.0232653088720268,0.0016));
#641=CARTESIAN_POINT('',(0.0158699517399037,-0.0218399796799594,0.0016));
#642=CARTESIAN_POINT('',(-3.25260651745651E-18,8.67361737988404E-18,0.0016));
#643=CARTESIAN_POINT('',(-3.25260651745651E-18,8.67361737988404E-18,0.));
#644=CARTESIAN_POINT('',(-0.013695454856889,-0.0232653088720268,0.));
#645=CARTESIAN_POINT('',(-0.013695454856889,-0.0232653088720268,0.0016));
#646=CARTESIAN_POINT('',(-0.013695454856889,-0.0232653088720268,0.0016));
#647=CARTESIAN_POINT('',(-3.25260651745651E-18,8.67361737988404E-18,0.0016));
#648=CARTESIAN_POINT('',(0.0158699517399032,0.0218399796799594,0.0016));
#649=CARTESIAN_POINT('',(0.0158699517399032,0.0218399796799594,0.0016));
#650=CARTESIAN_POINT('',(0.0171199517399032,0.0218399796799594,0.0016));
#651=CARTESIAN_POINT('',(0.0158699517399032,0.0218399796799594,0.));
#652=CARTESIAN_POINT('',(0.0171199517399032,0.0218399796799594,0.));
#653=CARTESIAN_POINT('',(0.0158699517399034,-0.0218399796799592,0.0016));
#654=CARTESIAN_POINT('',(0.0158699517399034,-0.0218399796799592,0.0016));
#655=CARTESIAN_POINT('',(0.0171199517399034,-0.0218399796799592,0.0016));
#656=CARTESIAN_POINT('',(0.0158699517399034,-0.0218399796799592,0.));
#657=CARTESIAN_POINT('',(0.0171199517399034,-0.0218399796799592,0.));
#658=CARTESIAN_POINT('',(-0.0158699517399037,-0.0218399796799594,0.0016));
#659=CARTESIAN_POINT('',(-0.0158699517399037,-0.0218399796799594,0.0016));
#660=CARTESIAN_POINT('',(-0.0146199517399037,-0.0218399796799594,0.0016));
#661=CARTESIAN_POINT('',(-0.0158699517399037,-0.0218399796799594,0.));
#662=CARTESIAN_POINT('',(-0.0146199517399037,-0.0218399796799594,0.));
#663=CARTESIAN_POINT('',(-0.0158699517399037,0.0218399796799594,0.0016));
#664=CARTESIAN_POINT('',(-0.0158699517399037,0.0218399796799594,0.0016));
#665=CARTESIAN_POINT('',(-0.0146199517399037,0.0218399796799594,0.0016));
#666=CARTESIAN_POINT('',(-0.0158699517399037,0.0218399796799594,0.));
#667=CARTESIAN_POINT('',(-0.0146199517399037,0.0218399796799594,0.));
#668=CARTESIAN_POINT('',(-0.0158699517399037,-0.0218399796799594,0.0016));
#669=CARTESIAN_POINT('',(-0.0158699517399037,-0.0218399796799594,0.));
#670=CARTESIAN_POINT('',(-0.0158699517399037,-0.0218399796799594,0.0016));
#671=CARTESIAN_POINT('',(-2.25121077463145E-17,2.28983498828938E-16,0.0016));
#672=CARTESIAN_POINT('',(-2.25121077463145E-17,2.28983498828938E-16,0.001));
#673=CARTESIAN_POINT('',(0.03175,2.28983498828938E-16,0.001));
#674=CARTESIAN_POINT('',(0.0032,0.0315883285407762,0.0042));
#675=CARTESIAN_POINT('',(0.00354281394706414,0.0315536003775184,0.0042));
#676=CARTESIAN_POINT('',(0.00421371555625419,0.0314721991340572,0.00448048887410219));
#677=CARTESIAN_POINT('',(0.0045,0.0314294845646571,0.00515536901042174));
#678=CARTESIAN_POINT('',(0.0045,0.0314294845646571,0.0055));
#679=CARTESIAN_POINT('',(0.0032,0.0315883285407762,0.0042));
#680=CARTESIAN_POINT('',(0.0045,0.0314294845646571,0.0055));
#681=CARTESIAN_POINT('',(0.0045,0.0314294845646571,0.0016));
#682=CARTESIAN_POINT('',(0.0045,0.0314294845646571,0.0057));
#683=CARTESIAN_POINT('',(-2.25121077463145E-17,2.28983498828938E-16,0.0057));
#684=CARTESIAN_POINT('',(-0.0045,0.0314294845646571,0.0057));
#685=CARTESIAN_POINT('',(-0.0045,0.0314294845646571,0.0016));
#686=CARTESIAN_POINT('',(-0.0045,0.0314294845646571,0.0055));
#687=CARTESIAN_POINT('',(-0.0045,0.0314294845646571,0.0055));
#688=CARTESIAN_POINT('',(-0.0045,0.0314294845646571,0.00515541270683279));
#689=CARTESIAN_POINT('',(-0.00421501232879016,0.0314720302399204,0.00448173543193351));
#690=CARTESIAN_POINT('',(-0.00354276472297729,0.0315536053640778,0.0042));
#691=CARTESIAN_POINT('',(-0.0032,0.0315883285407762,0.0042));
#692=CARTESIAN_POINT('',(-0.0032,0.0315883285407762,0.0042));
#693=CARTESIAN_POINT('',(-2.25121077463145E-17,2.28983498828938E-16,0.0042));
#694=CARTESIAN_POINT('',(0.,0.,0.0016));
#695=CARTESIAN_POINT('',(-2.17057274931598E-16,2.2811613709095E-15,0.0016));
#696=CARTESIAN_POINT('',(0.0302500000000021,2.2811613709095E-15,0.0016));
#697=CARTESIAN_POINT('',(0.,0.,0.));
#698=CARTESIAN_POINT('',(-2.25121077463145E-17,2.28983498828938E-16,0.));
#699=CARTESIAN_POINT('',(0.03075,2.28983498828938E-16,0.));
#700=CARTESIAN_POINT('',(-2.17057274931598E-16,2.2811613709095E-15,0.0057));
#701=CARTESIAN_POINT('',(0.0045,0.0299134167222715,0.0057));
#702=CARTESIAN_POINT('',(0.0045,0.0299134167222715,0.0055));
#703=CARTESIAN_POINT('',(0.0045,0.0299134167222715,0.0057));
#704=CARTESIAN_POINT('',(0.0032,0.0300802676184949,0.0042));
#705=CARTESIAN_POINT('',(0.00354276093892117,0.0300438040132352,0.0042));
#706=CARTESIAN_POINT('',(0.00421346668809786,0.0299583339345111,0.00448028107789118));
#707=CARTESIAN_POINT('',(0.0045,0.0299134167222715,0.00515523594508132));
#708=CARTESIAN_POINT('',(0.0045,0.0299134167222715,0.0055));
#709=CARTESIAN_POINT('',(0.0032,0.0300802676184949,0.0042));
#710=CARTESIAN_POINT('',(-2.17057274931598E-16,2.2811613709095E-15,0.0042));
#711=CARTESIAN_POINT('',(-0.0032,0.0300802676184949,0.0042));
#712=CARTESIAN_POINT('',(-0.0045,0.0299134167222716,0.0055));
#713=CARTESIAN_POINT('',(-0.0045,0.0299134167222716,0.00515528424946498));
#714=CARTESIAN_POINT('',(-0.00421476140479023,0.0299581568771364,0.00448152043864828));
#715=CARTESIAN_POINT('',(-0.00354270677580293,0.0300438097752178,0.0042));
#716=CARTESIAN_POINT('',(-0.0032,0.0300802676184949,0.0042));
#717=CARTESIAN_POINT('',(-0.0045,0.0299134167222716,0.0055));
#718=CARTESIAN_POINT('',(-0.0045,0.0299134167222716,0.0057));
#719=CARTESIAN_POINT('',(-0.0045,0.0299134167222716,0.0057));
#720=CARTESIAN_POINT('',(-2.17057274931598E-16,2.2811613709095E-15,0.0057));
#721=CARTESIAN_POINT('',(0.,0.,0.0057));
#722=CARTESIAN_POINT('',(0.0045,0.,0.0057));
#723=CARTESIAN_POINT('',(-0.0045,0.,0.0057));
#724=CARTESIAN_POINT('',(-0.0032,0.053,0.0055));
#725=CARTESIAN_POINT('',(-0.0045,0.053,0.0055));
#726=CARTESIAN_POINT('',(-0.0032,0.053,0.0042));
#727=CARTESIAN_POINT('',(0.,0.053,0.0042));
#728=CARTESIAN_POINT('',(0.0032,0.053,0.0042));
#729=CARTESIAN_POINT('',(0.0032,0.053,0.0055));
#730=CARTESIAN_POINT('',(0.0045,0.053,0.0055));
#731=CARTESIAN_POINT('',(0.0045,0.053,0.0057));
#732=CARTESIAN_POINT('',(-0.0045,0.053,0.0057));
#733=CARTESIAN_POINT('',(-2.25121077463145E-17,2.28983498828938E-16,0.001));
#734=MECHANICAL_DESIGN_GEOMETRIC_PRESENTATION_REPRESENTATION('',(#408),
#735);
#735=(
GEOMETRIC_REPRESENTATION_CONTEXT(3)
GLOBAL_UNCERTAINTY_ASSIGNED_CONTEXT((#736))
GLOBAL_UNIT_ASSIGNED_CONTEXT((#739,#738,#737))
REPRESENTATION_CONTEXT('spacer','TOP_LEVEL_ASSEMBLY_PART')
);
#736=UNCERTAINTY_MEASURE_WITH_UNIT(LENGTH_MEASURE(2.E-5),#739,
'DISTANCE_ACCURACY_VALUE','Maximum Tolerance applied to model');
#737=(
NAMED_UNIT(*)
SI_UNIT($,.STERADIAN.)
SOLID_ANGLE_UNIT()
);
#738=(
NAMED_UNIT(*)
PLANE_ANGLE_UNIT()
SI_UNIT($,.RADIAN.)
);
#739=(
LENGTH_UNIT()
NAMED_UNIT(*)
SI_UNIT($,.METRE.)
);
#740=PRODUCT_DEFINITION_SHAPE('','',#741);
#741=PRODUCT_DEFINITION('','',#743,#742);
#742=PRODUCT_DEFINITION_CONTEXT('',#749,'design');
#743=PRODUCT_DEFINITION_FORMATION_WITH_SPECIFIED_SOURCE('','',#745,
 .NOT_KNOWN.);
#744=PRODUCT_RELATED_PRODUCT_CATEGORY('','',(#745));
#745=PRODUCT('spacer','spacer','spacer',(#747));
#746=PRODUCT_CATEGORY('','');
#747=PRODUCT_CONTEXT('',#749,'mechanical');
#748=APPLICATION_PROTOCOL_DEFINITION('international standard',
'ap242_managed_model_based_3d_engineering',2020,#749);
#749=APPLICATION_CONTEXT('managed model based 3d engineering');
ENDSEC;
END-ISO-10303-21;
