ISO-10303-21;
HEADER;
/* Generated by software containing ST-Developer
 * from STEP Tools, Inc. (www.steptools.com) 
 */
/* OPTION: using custom renumber hook */

FILE_DESCRIPTION(
/* description */ ('STEP AP242 Edition 2',
'CAx-IF Rec.Pracs.---Representation and Presentation of Product Manufa
cturing Information (PMI)---4.0---2014-10-13',
'CAx-IF Rec.Pracs.---3D Tessellated Geometry---0.4---2014-09-14','2;1',
'CAx-IF Rec.Pracs.---User Defined Attributes---1.5---2016-08-15'),
/* implementation_level */ '2;1');

FILE_NAME(
/* name */ 'droop4 - knob',
/* time_stamp */ '2026-07-23T23:37:22Z',
/* author */ (''),
/* organization */ (''),
/* preprocessor_version */ 'ST-DEVELOPER v20',
/* originating_system */ 'ONSHAPE BY PTC INC, 1.218',
/* authorisation */ '  ');

FILE_SCHEMA (('AP242_MANAGED_MODEL_BASED_3D_ENGINEERING_MIM_LF { 1 0 10303 442 3 1 4 }'));
ENDSEC;

DATA;
#10=SHAPE_REPRESENTATION_RELATIONSHIP('','',#1064,#11);
#11=ADVANCED_BREP_SHAPE_REPRESENTATION('',(#1062),#1854);
#12=B_SPLINE_SURFACE_WITH_KNOTS('',1,1,((#1768,#1769),(#1770,#1771)),
 .RULED_SURF.,.F.,.F.,.F.,(2,2),(2,2),(0.,1.),(0.,1.),
 .PIECEWISE_BEZIER_KNOTS.);
#13=B_SPLINE_SURFACE_WITH_KNOTS('',1,1,((#1780,#1781),(#1782,#1783)),
 .RULED_SURF.,.F.,.F.,.F.,(2,2),(2,2),(0.,1.),(0.,1.),
 .PIECEWISE_BEZIER_KNOTS.);
#14=B_SPLINE_SURFACE_WITH_KNOTS('',1,1,((#1793,#1794),(#1795,#1796)),
 .RULED_SURF.,.F.,.F.,.F.,(2,2),(2,2),(0.,1.),(0.,1.),
 .PIECEWISE_BEZIER_KNOTS.);
#15=B_SPLINE_SURFACE_WITH_KNOTS('',1,1,((#1805,#1806),(#1807,#1808)),
 .RULED_SURF.,.F.,.F.,.F.,(2,2),(2,2),(0.,1.),(0.,1.),
 .PIECEWISE_BEZIER_KNOTS.);
#16=B_SPLINE_SURFACE_WITH_KNOTS('',1,3,((#1811,#1812,#1813,#1814,#1815,
#1816,#1817),(#1818,#1819,#1820,#1821,#1822,#1823,#1824),(#1825,#1826,#1827,
#1828,#1829,#1830,#1831)),.RULED_SURF.,.F.,.F.,.F.,(2,1,2),(4,3,4),(0.,
1.,1.00600001953011),(0.0157556051946225,0.0208462101720139,0.0227994335824376),
 .PIECEWISE_BEZIER_KNOTS.);
#17=B_SPLINE_SURFACE_WITH_KNOTS('',1,3,((#1832,#1833,#1834,#1835,#1836,
#1837,#1838),(#1839,#1840,#1841,#1842,#1843,#1844,#1845),(#1846,#1847,#1848,
#1849,#1850,#1851,#1852)),.RULED_SURF.,.F.,.F.,.F.,(2,1,2),(4,3,4),(0.,
1.,1.00602406977516),(0.0157556051946225,0.0208462101720139,0.0227994335824376),
 .PIECEWISE_BEZIER_KNOTS.);
#18=ELLIPSE('',#1086,0.0183847763108503,0.013);
#19=ELLIPSE('',#1087,0.0183847763108503,0.013);
#20=ELLIPSE('',#1115,0.0183847763108503,0.013);
#21=ELLIPSE('',#1116,0.0183847763108503,0.013);
#22=CONICAL_SURFACE('',#1079,0.015,0.959931088596874);
#23=CONICAL_SURFACE('',#1081,0.0154,1.2340290657626);
#24=CONICAL_SURFACE('',#1090,0.03,0.78539816339745);
#25=CONICAL_SURFACE('',#1094,0.03,0.785398163397448);
#26=CONICAL_SURFACE('',#1098,0.0245,0.785398163397452);
#27=CONICAL_SURFACE('',#1108,0.015,0.959931088596874);
#28=CONICAL_SURFACE('',#1110,0.0154,1.2340290657626);
#29=CONICAL_SURFACE('',#1144,0.0168,0.785398163397448);
#30=CONICAL_SURFACE('',#1150,0.0168,0.785398163397448);
#31=CYLINDRICAL_SURFACE('',#1072,0.0158);
#32=CYLINDRICAL_SURFACE('',#1077,0.015);
#33=CYLINDRICAL_SURFACE('',#1085,0.013);
#34=CYLINDRICAL_SURFACE('',#1092,0.03);
#35=CYLINDRICAL_SURFACE('',#1100,0.024);
#36=CYLINDRICAL_SURFACE('',#1101,0.0158);
#37=CYLINDRICAL_SURFACE('',#1106,0.015);
#38=CYLINDRICAL_SURFACE('',#1114,0.013);
#39=B_SPLINE_CURVE_WITH_KNOTS('',3,(#1433,#1434,#1435,#1436),
 .UNSPECIFIED.,.F.,.F.,(4,4),(0.,0.00252841893525625),.UNSPECIFIED.);
#40=B_SPLINE_CURVE_WITH_KNOTS('',3,(#1444,#1445,#1446,#1447),
 .UNSPECIFIED.,.F.,.F.,(4,4),(0.,0.00252841893525625),.UNSPECIFIED.);
#41=B_SPLINE_CURVE_WITH_KNOTS('',3,(#1451,#1452,#1453,#1454),
 .UNSPECIFIED.,.F.,.F.,(4,4),(0.,0.00252841893525625),.UNSPECIFIED.);
#42=B_SPLINE_CURVE_WITH_KNOTS('',3,(#1462,#1463,#1464,#1465),
 .UNSPECIFIED.,.F.,.F.,(4,4),(0.,0.00252841893525625),.UNSPECIFIED.);
#43=B_SPLINE_CURVE_WITH_KNOTS('',3,(#1488,#1489,#1490,#1491),
 .UNSPECIFIED.,.F.,.F.,(4,4),(1.32282409314182E-6,1.),.UNSPECIFIED.);
#44=B_SPLINE_CURVE_WITH_KNOTS('',3,(#1497,#1498,#1499,#1500),
 .UNSPECIFIED.,.F.,.F.,(4,4),(0.,0.999991939626782),.UNSPECIFIED.);
#45=B_SPLINE_CURVE_WITH_KNOTS('',3,(#1504,#1505,#1506,#1507),
 .UNSPECIFIED.,.F.,.F.,(4,4),(1.82823047953669E-6,0.000751466027603204),
 .UNSPECIFIED.);
#46=B_SPLINE_CURVE_WITH_KNOTS('',3,(#1509,#1510,#1511,#1512),
 .UNSPECIFIED.,.F.,.F.,(4,4),(0.,1.),.UNSPECIFIED.);
#47=B_SPLINE_CURVE_WITH_KNOTS('',3,(#1516,#1517,#1518,#1519),
 .UNSPECIFIED.,.F.,.F.,(4,4),(0.0165452141354414,0.0179965146823104),
 .UNSPECIFIED.);
#48=B_SPLINE_CURVE_WITH_KNOTS('',3,(#1521,#1522,#1523,#1524,#1525,#1526),
 .UNSPECIFIED.,.F.,.F.,(4,1,1,4),(0.00031462974705842,0.250235972310294,
0.500157314873529,1.),.UNSPECIFIED.);
#49=B_SPLINE_CURVE_WITH_KNOTS('',3,(#1532,#1533,#1534,#1535),
 .UNSPECIFIED.,.F.,.F.,(4,4),(0.,0.999998790588942),.UNSPECIFIED.);
#50=B_SPLINE_CURVE_WITH_KNOTS('',3,(#1585,#1586,#1587,#1588),
 .UNSPECIFIED.,.F.,.F.,(4,4),(0.,0.999998677175764),.UNSPECIFIED.);
#51=B_SPLINE_CURVE_WITH_KNOTS('',3,(#1596,#1597,#1598,#1599),
 .UNSPECIFIED.,.F.,.F.,(4,4),(0.000513255756735398,1.),.UNSPECIFIED.);
#52=B_SPLINE_CURVE_WITH_KNOTS('',3,(#1600,#1601,#1602,#1603),
 .UNSPECIFIED.,.F.,.F.,(4,4),(1.82823047952744E-6,0.000751466027603206),
 .UNSPECIFIED.);
#53=B_SPLINE_CURVE_WITH_KNOTS('',3,(#1608,#1609,#1610,#1611),
 .UNSPECIFIED.,.F.,.F.,(4,4),(0.,1.),.UNSPECIFIED.);
#54=B_SPLINE_CURVE_WITH_KNOTS('',3,(#1612,#1613,#1614,#1615),
 .UNSPECIFIED.,.F.,.F.,(4,4),(0.0165452141354414,0.0179965146823104),
 .UNSPECIFIED.);
#55=B_SPLINE_CURVE_WITH_KNOTS('',3,(#1620,#1621,#1622,#1623,#1624,#1625,
#1626,#1627,#1628),.UNSPECIFIED.,.F.,.F.,(4,1,1,1,1,1,4),(0.,0.249999881554961,
0.374999822332442,0.499999763109923,0.624999703887403,0.749999644664884,
0.999999526219845),.UNSPECIFIED.);
#56=B_SPLINE_CURVE_WITH_KNOTS('',3,(#1634,#1635,#1636,#1637),
 .UNSPECIFIED.,.F.,.F.,(4,4),(1.14806440627788E-6,1.),.UNSPECIFIED.);
#57=B_SPLINE_CURVE_WITH_KNOTS('',3,(#1651,#1652,#1653,#1654),
 .UNSPECIFIED.,.F.,.F.,(4,4),(5.08421233317303E-7,1.),.UNSPECIFIED.);
#58=B_SPLINE_CURVE_WITH_KNOTS('',3,(#1659,#1660,#1661,#1662),
 .UNSPECIFIED.,.F.,.F.,(4,4),(0.,0.999999491578765),.UNSPECIFIED.);
#59=B_SPLINE_CURVE_WITH_KNOTS('',3,(#1764,#1765,#1766,#1767),
 .UNSPECIFIED.,.F.,.F.,(4,4),(0.,0.000616281472105306),.UNSPECIFIED.);
#60=B_SPLINE_CURVE_WITH_KNOTS('',3,(#1776,#1777,#1778,#1779),
 .UNSPECIFIED.,.F.,.F.,(4,4),(0.,0.000616281472105306),.UNSPECIFIED.);
#61=B_SPLINE_CURVE_WITH_KNOTS('',3,(#1787,#1788,#1789,#1790),
 .UNSPECIFIED.,.F.,.F.,(4,4),(0.,0.000616281472105306),.UNSPECIFIED.);
#62=B_SPLINE_CURVE_WITH_KNOTS('',3,(#1799,#1800,#1801,#1802),
 .UNSPECIFIED.,.F.,.F.,(4,4),(0.,0.000616281472105306),.UNSPECIFIED.);
#63=CIRCLE('',#1067,0.024);
#64=CIRCLE('',#1068,0.0168);
#65=CIRCLE('',#1069,0.013);
#66=CIRCLE('',#1070,0.0168);
#67=CIRCLE('',#1071,0.013);
#68=CIRCLE('',#1073,0.0158);
#69=CIRCLE('',#1074,0.0158);
#70=CIRCLE('',#1076,0.015);
#71=CIRCLE('',#1078,0.015);
#72=CIRCLE('',#1080,0.0154);
#73=CIRCLE('',#1082,0.0146);
#74=CIRCLE('',#1084,0.013);
#75=CIRCLE('',#1089,0.029);
#76=CIRCLE('',#1091,0.03);
#77=CIRCLE('',#1093,0.03);
#78=CIRCLE('',#1095,0.0295);
#79=CIRCLE('',#1097,0.0245);
#80=CIRCLE('',#1099,0.024);
#81=CIRCLE('',#1102,0.0158);
#82=CIRCLE('',#1103,0.0158);
#83=CIRCLE('',#1105,0.015);
#84=CIRCLE('',#1107,0.015);
#85=CIRCLE('',#1109,0.0154);
#86=CIRCLE('',#1111,0.0146);
#87=CIRCLE('',#1113,0.013);
#88=ORIENTED_EDGE('',*,*,#378,.T.);
#89=ORIENTED_EDGE('',*,*,#379,.T.);
#90=ORIENTED_EDGE('',*,*,#380,.T.);
#91=ORIENTED_EDGE('',*,*,#381,.T.);
#92=ORIENTED_EDGE('',*,*,#382,.F.);
#93=ORIENTED_EDGE('',*,*,#383,.T.);
#94=ORIENTED_EDGE('',*,*,#384,.T.);
#95=ORIENTED_EDGE('',*,*,#385,.T.);
#96=ORIENTED_EDGE('',*,*,#386,.F.);
#97=ORIENTED_EDGE('',*,*,#387,.T.);
#98=ORIENTED_EDGE('',*,*,#388,.T.);
#99=ORIENTED_EDGE('',*,*,#389,.T.);
#100=ORIENTED_EDGE('',*,*,#390,.T.);
#101=ORIENTED_EDGE('',*,*,#391,.T.);
#102=ORIENTED_EDGE('',*,*,#392,.F.);
#103=ORIENTED_EDGE('',*,*,#393,.T.);
#104=ORIENTED_EDGE('',*,*,#394,.T.);
#105=ORIENTED_EDGE('',*,*,#395,.T.);
#106=ORIENTED_EDGE('',*,*,#396,.T.);
#107=ORIENTED_EDGE('',*,*,#397,.T.);
#108=ORIENTED_EDGE('',*,*,#398,.T.);
#109=ORIENTED_EDGE('',*,*,#397,.F.);
#110=ORIENTED_EDGE('',*,*,#399,.T.);
#111=ORIENTED_EDGE('',*,*,#400,.T.);
#112=ORIENTED_EDGE('',*,*,#401,.T.);
#113=ORIENTED_EDGE('',*,*,#402,.T.);
#114=ORIENTED_EDGE('',*,*,#403,.T.);
#115=ORIENTED_EDGE('',*,*,#404,.T.);
#116=ORIENTED_EDGE('',*,*,#405,.T.);
#117=ORIENTED_EDGE('',*,*,#406,.T.);
#118=ORIENTED_EDGE('',*,*,#407,.T.);
#119=ORIENTED_EDGE('',*,*,#401,.F.);
#120=ORIENTED_EDGE('',*,*,#406,.F.);
#121=ORIENTED_EDGE('',*,*,#408,.T.);
#122=ORIENTED_EDGE('',*,*,#409,.T.);
#123=ORIENTED_EDGE('',*,*,#410,.T.);
#124=ORIENTED_EDGE('',*,*,#409,.F.);
#125=ORIENTED_EDGE('',*,*,#411,.T.);
#126=ORIENTED_EDGE('',*,*,#412,.T.);
#127=ORIENTED_EDGE('',*,*,#413,.T.);
#128=ORIENTED_EDGE('',*,*,#412,.F.);
#129=ORIENTED_EDGE('',*,*,#414,.T.);
#130=ORIENTED_EDGE('',*,*,#415,.T.);
#131=ORIENTED_EDGE('',*,*,#416,.T.);
#132=ORIENTED_EDGE('',*,*,#415,.F.);
#133=ORIENTED_EDGE('',*,*,#417,.T.);
#134=ORIENTED_EDGE('',*,*,#418,.T.);
#135=ORIENTED_EDGE('',*,*,#419,.T.);
#136=ORIENTED_EDGE('',*,*,#392,.T.);
#137=ORIENTED_EDGE('',*,*,#420,.T.);
#138=ORIENTED_EDGE('',*,*,#421,.T.);
#139=ORIENTED_EDGE('',*,*,#422,.T.);
#140=ORIENTED_EDGE('',*,*,#422,.F.);
#141=ORIENTED_EDGE('',*,*,#423,.T.);
#142=ORIENTED_EDGE('',*,*,#423,.F.);
#143=ORIENTED_EDGE('',*,*,#424,.T.);
#144=ORIENTED_EDGE('',*,*,#425,.T.);
#145=ORIENTED_EDGE('',*,*,#424,.F.);
#146=ORIENTED_EDGE('',*,*,#425,.F.);
#147=ORIENTED_EDGE('',*,*,#426,.T.);
#148=ORIENTED_EDGE('',*,*,#427,.T.);
#149=ORIENTED_EDGE('',*,*,#426,.F.);
#150=ORIENTED_EDGE('',*,*,#427,.F.);
#151=ORIENTED_EDGE('',*,*,#382,.T.);
#152=ORIENTED_EDGE('',*,*,#428,.T.);
#153=ORIENTED_EDGE('',*,*,#429,.T.);
#154=ORIENTED_EDGE('',*,*,#430,.T.);
#155=ORIENTED_EDGE('',*,*,#431,.T.);
#156=ORIENTED_EDGE('',*,*,#432,.F.);
#157=ORIENTED_EDGE('',*,*,#433,.T.);
#158=ORIENTED_EDGE('',*,*,#428,.F.);
#159=ORIENTED_EDGE('',*,*,#434,.T.);
#160=ORIENTED_EDGE('',*,*,#435,.F.);
#161=ORIENTED_EDGE('',*,*,#436,.T.);
#162=ORIENTED_EDGE('',*,*,#437,.T.);
#163=ORIENTED_EDGE('',*,*,#438,.T.);
#164=ORIENTED_EDGE('',*,*,#439,.F.);
#165=ORIENTED_EDGE('',*,*,#436,.F.);
#166=ORIENTED_EDGE('',*,*,#440,.F.);
#167=ORIENTED_EDGE('',*,*,#441,.T.);
#168=ORIENTED_EDGE('',*,*,#442,.T.);
#169=ORIENTED_EDGE('',*,*,#437,.F.);
#170=ORIENTED_EDGE('',*,*,#443,.F.);
#171=ORIENTED_EDGE('',*,*,#444,.T.);
#172=ORIENTED_EDGE('',*,*,#445,.T.);
#173=ORIENTED_EDGE('',*,*,#441,.F.);
#174=ORIENTED_EDGE('',*,*,#446,.F.);
#175=ORIENTED_EDGE('',*,*,#447,.T.);
#176=ORIENTED_EDGE('',*,*,#448,.T.);
#177=ORIENTED_EDGE('',*,*,#444,.F.);
#178=ORIENTED_EDGE('',*,*,#449,.F.);
#179=ORIENTED_EDGE('',*,*,#450,.F.);
#180=ORIENTED_EDGE('',*,*,#451,.T.);
#181=ORIENTED_EDGE('',*,*,#447,.F.);
#182=ORIENTED_EDGE('',*,*,#452,.F.);
#183=ORIENTED_EDGE('',*,*,#453,.T.);
#184=ORIENTED_EDGE('',*,*,#386,.T.);
#185=ORIENTED_EDGE('',*,*,#454,.T.);
#186=ORIENTED_EDGE('',*,*,#455,.T.);
#187=ORIENTED_EDGE('',*,*,#456,.T.);
#188=ORIENTED_EDGE('',*,*,#452,.T.);
#189=ORIENTED_EDGE('',*,*,#449,.T.);
#190=ORIENTED_EDGE('',*,*,#446,.T.);
#191=ORIENTED_EDGE('',*,*,#443,.T.);
#192=ORIENTED_EDGE('',*,*,#440,.T.);
#193=ORIENTED_EDGE('',*,*,#435,.T.);
#194=ORIENTED_EDGE('',*,*,#421,.F.);
#195=ORIENTED_EDGE('',*,*,#457,.T.);
#196=ORIENTED_EDGE('',*,*,#458,.T.);
#197=ORIENTED_EDGE('',*,*,#402,.F.);
#198=ORIENTED_EDGE('',*,*,#407,.F.);
#199=ORIENTED_EDGE('',*,*,#410,.F.);
#200=ORIENTED_EDGE('',*,*,#413,.F.);
#201=ORIENTED_EDGE('',*,*,#416,.F.);
#202=ORIENTED_EDGE('',*,*,#439,.T.);
#203=ORIENTED_EDGE('',*,*,#459,.T.);
#204=ORIENTED_EDGE('',*,*,#450,.T.);
#205=ORIENTED_EDGE('',*,*,#460,.T.);
#206=ORIENTED_EDGE('',*,*,#461,.T.);
#207=ORIENTED_EDGE('',*,*,#432,.T.);
#208=ORIENTED_EDGE('',*,*,#418,.F.);
#209=ORIENTED_EDGE('',*,*,#462,.T.);
#210=ORIENTED_EDGE('',*,*,#404,.F.);
#211=ORIENTED_EDGE('',*,*,#400,.F.);
#212=ORIENTED_EDGE('',*,*,#463,.T.);
#213=ORIENTED_EDGE('',*,*,#464,.T.);
#214=ORIENTED_EDGE('',*,*,#465,.F.);
#215=ORIENTED_EDGE('',*,*,#466,.F.);
#216=ORIENTED_EDGE('',*,*,#467,.T.);
#217=ORIENTED_EDGE('',*,*,#468,.T.);
#218=ORIENTED_EDGE('',*,*,#466,.T.);
#219=ORIENTED_EDGE('',*,*,#469,.T.);
#220=ORIENTED_EDGE('',*,*,#470,.F.);
#221=ORIENTED_EDGE('',*,*,#471,.T.);
#222=ORIENTED_EDGE('',*,*,#472,.F.);
#223=ORIENTED_EDGE('',*,*,#473,.F.);
#224=ORIENTED_EDGE('',*,*,#474,.T.);
#225=ORIENTED_EDGE('',*,*,#470,.T.);
#226=ORIENTED_EDGE('',*,*,#475,.T.);
#227=ORIENTED_EDGE('',*,*,#476,.F.);
#228=ORIENTED_EDGE('',*,*,#477,.F.);
#229=ORIENTED_EDGE('',*,*,#478,.T.);
#230=ORIENTED_EDGE('',*,*,#479,.T.);
#231=ORIENTED_EDGE('',*,*,#480,.T.);
#232=ORIENTED_EDGE('',*,*,#477,.T.);
#233=ORIENTED_EDGE('',*,*,#481,.T.);
#234=ORIENTED_EDGE('',*,*,#482,.F.);
#235=ORIENTED_EDGE('',*,*,#483,.F.);
#236=ORIENTED_EDGE('',*,*,#482,.T.);
#237=ORIENTED_EDGE('',*,*,#484,.T.);
#238=ORIENTED_EDGE('',*,*,#485,.F.);
#239=ORIENTED_EDGE('',*,*,#486,.T.);
#240=ORIENTED_EDGE('',*,*,#487,.F.);
#241=ORIENTED_EDGE('',*,*,#488,.T.);
#242=ORIENTED_EDGE('',*,*,#489,.T.);
#243=ORIENTED_EDGE('',*,*,#490,.F.);
#244=ORIENTED_EDGE('',*,*,#491,.T.);
#245=ORIENTED_EDGE('',*,*,#490,.T.);
#246=ORIENTED_EDGE('',*,*,#492,.T.);
#247=ORIENTED_EDGE('',*,*,#493,.F.);
#248=ORIENTED_EDGE('',*,*,#494,.F.);
#249=ORIENTED_EDGE('',*,*,#493,.T.);
#250=ORIENTED_EDGE('',*,*,#495,.T.);
#251=ORIENTED_EDGE('',*,*,#496,.F.);
#252=ORIENTED_EDGE('',*,*,#497,.F.);
#253=ORIENTED_EDGE('',*,*,#480,.F.);
#254=ORIENTED_EDGE('',*,*,#498,.T.);
#255=ORIENTED_EDGE('',*,*,#485,.T.);
#256=ORIENTED_EDGE('',*,*,#499,.F.);
#257=ORIENTED_EDGE('',*,*,#496,.T.);
#258=ORIENTED_EDGE('',*,*,#500,.T.);
#259=ORIENTED_EDGE('',*,*,#488,.F.);
#260=ORIENTED_EDGE('',*,*,#501,.T.);
#261=ORIENTED_EDGE('',*,*,#502,.F.);
#262=ORIENTED_EDGE('',*,*,#468,.F.);
#263=ORIENTED_EDGE('',*,*,#503,.T.);
#264=ORIENTED_EDGE('',*,*,#504,.T.);
#265=ORIENTED_EDGE('',*,*,#473,.T.);
#266=ORIENTED_EDGE('',*,*,#491,.F.);
#267=ORIENTED_EDGE('',*,*,#494,.T.);
#268=ORIENTED_EDGE('',*,*,#497,.T.);
#269=ORIENTED_EDGE('',*,*,#501,.F.);
#270=ORIENTED_EDGE('',*,*,#487,.T.);
#271=ORIENTED_EDGE('',*,*,#505,.T.);
#272=ORIENTED_EDGE('',*,*,#478,.F.);
#273=ORIENTED_EDGE('',*,*,#483,.T.);
#274=ORIENTED_EDGE('',*,*,#506,.T.);
#275=ORIENTED_EDGE('',*,*,#503,.F.);
#276=ORIENTED_EDGE('',*,*,#467,.F.);
#277=ORIENTED_EDGE('',*,*,#472,.T.);
#278=ORIENTED_EDGE('',*,*,#469,.F.);
#279=ORIENTED_EDGE('',*,*,#465,.T.);
#280=ORIENTED_EDGE('',*,*,#502,.T.);
#281=ORIENTED_EDGE('',*,*,#475,.F.);
#282=ORIENTED_EDGE('',*,*,#481,.F.);
#283=ORIENTED_EDGE('',*,*,#476,.T.);
#284=ORIENTED_EDGE('',*,*,#499,.T.);
#285=ORIENTED_EDGE('',*,*,#484,.F.);
#286=ORIENTED_EDGE('',*,*,#507,.F.);
#287=ORIENTED_EDGE('',*,*,#381,.F.);
#288=ORIENTED_EDGE('',*,*,#508,.F.);
#289=ORIENTED_EDGE('',*,*,#489,.F.);
#290=ORIENTED_EDGE('',*,*,#508,.T.);
#291=ORIENTED_EDGE('',*,*,#380,.F.);
#292=ORIENTED_EDGE('',*,*,#509,.F.);
#293=ORIENTED_EDGE('',*,*,#492,.F.);
#294=ORIENTED_EDGE('',*,*,#507,.T.);
#295=ORIENTED_EDGE('',*,*,#500,.F.);
#296=ORIENTED_EDGE('',*,*,#510,.F.);
#297=ORIENTED_EDGE('',*,*,#378,.F.);
#298=ORIENTED_EDGE('',*,*,#509,.T.);
#299=ORIENTED_EDGE('',*,*,#379,.F.);
#300=ORIENTED_EDGE('',*,*,#510,.T.);
#301=ORIENTED_EDGE('',*,*,#495,.F.);
#302=ORIENTED_EDGE('',*,*,#471,.F.);
#303=ORIENTED_EDGE('',*,*,#474,.F.);
#304=ORIENTED_EDGE('',*,*,#504,.F.);
#305=ORIENTED_EDGE('',*,*,#506,.F.);
#306=ORIENTED_EDGE('',*,*,#479,.F.);
#307=ORIENTED_EDGE('',*,*,#505,.F.);
#308=ORIENTED_EDGE('',*,*,#486,.F.);
#309=ORIENTED_EDGE('',*,*,#498,.F.);
#310=ORIENTED_EDGE('',*,*,#420,.F.);
#311=ORIENTED_EDGE('',*,*,#391,.F.);
#312=ORIENTED_EDGE('',*,*,#511,.F.);
#313=ORIENTED_EDGE('',*,*,#457,.F.);
#314=ORIENTED_EDGE('',*,*,#403,.F.);
#315=ORIENTED_EDGE('',*,*,#458,.F.);
#316=ORIENTED_EDGE('',*,*,#512,.F.);
#317=ORIENTED_EDGE('',*,*,#398,.F.);
#318=ORIENTED_EDGE('',*,*,#511,.T.);
#319=ORIENTED_EDGE('',*,*,#390,.F.);
#320=ORIENTED_EDGE('',*,*,#513,.F.);
#321=ORIENTED_EDGE('',*,*,#512,.T.);
#322=ORIENTED_EDGE('',*,*,#513,.T.);
#323=ORIENTED_EDGE('',*,*,#389,.F.);
#324=ORIENTED_EDGE('',*,*,#514,.F.);
#325=ORIENTED_EDGE('',*,*,#395,.F.);
#326=ORIENTED_EDGE('',*,*,#399,.F.);
#327=ORIENTED_EDGE('',*,*,#396,.F.);
#328=ORIENTED_EDGE('',*,*,#515,.F.);
#329=ORIENTED_EDGE('',*,*,#463,.F.);
#330=ORIENTED_EDGE('',*,*,#514,.T.);
#331=ORIENTED_EDGE('',*,*,#394,.F.);
#332=ORIENTED_EDGE('',*,*,#516,.F.);
#333=ORIENTED_EDGE('',*,*,#515,.T.);
#334=ORIENTED_EDGE('',*,*,#419,.F.);
#335=ORIENTED_EDGE('',*,*,#464,.F.);
#336=ORIENTED_EDGE('',*,*,#516,.T.);
#337=ORIENTED_EDGE('',*,*,#393,.F.);
#338=ORIENTED_EDGE('',*,*,#434,.F.);
#339=ORIENTED_EDGE('',*,*,#431,.F.);
#340=ORIENTED_EDGE('',*,*,#517,.F.);
#341=ORIENTED_EDGE('',*,*,#455,.F.);
#342=ORIENTED_EDGE('',*,*,#453,.F.);
#343=ORIENTED_EDGE('',*,*,#456,.F.);
#344=ORIENTED_EDGE('',*,*,#518,.F.);
#345=ORIENTED_EDGE('',*,*,#387,.F.);
#346=ORIENTED_EDGE('',*,*,#518,.T.);
#347=ORIENTED_EDGE('',*,*,#517,.T.);
#348=ORIENTED_EDGE('',*,*,#519,.F.);
#349=ORIENTED_EDGE('',*,*,#388,.F.);
#350=ORIENTED_EDGE('',*,*,#433,.F.);
#351=ORIENTED_EDGE('',*,*,#461,.F.);
#352=ORIENTED_EDGE('',*,*,#520,.F.);
#353=ORIENTED_EDGE('',*,*,#429,.F.);
#354=ORIENTED_EDGE('',*,*,#519,.T.);
#355=ORIENTED_EDGE('',*,*,#430,.F.);
#356=ORIENTED_EDGE('',*,*,#521,.F.);
#357=ORIENTED_EDGE('',*,*,#383,.F.);
#358=ORIENTED_EDGE('',*,*,#521,.T.);
#359=ORIENTED_EDGE('',*,*,#520,.T.);
#360=ORIENTED_EDGE('',*,*,#522,.F.);
#361=ORIENTED_EDGE('',*,*,#384,.F.);
#362=ORIENTED_EDGE('',*,*,#454,.F.);
#363=ORIENTED_EDGE('',*,*,#385,.F.);
#364=ORIENTED_EDGE('',*,*,#522,.T.);
#365=ORIENTED_EDGE('',*,*,#460,.F.);
#366=ORIENTED_EDGE('',*,*,#405,.F.);
#367=ORIENTED_EDGE('',*,*,#462,.F.);
#368=ORIENTED_EDGE('',*,*,#417,.F.);
#369=ORIENTED_EDGE('',*,*,#414,.F.);
#370=ORIENTED_EDGE('',*,*,#411,.F.);
#371=ORIENTED_EDGE('',*,*,#408,.F.);
#372=ORIENTED_EDGE('',*,*,#442,.F.);
#373=ORIENTED_EDGE('',*,*,#445,.F.);
#374=ORIENTED_EDGE('',*,*,#448,.F.);
#375=ORIENTED_EDGE('',*,*,#451,.F.);
#376=ORIENTED_EDGE('',*,*,#459,.F.);
#377=ORIENTED_EDGE('',*,*,#438,.F.);
#378=EDGE_CURVE('',#523,#524,#618,.T.);
#379=EDGE_CURVE('',#524,#525,#619,.T.);
#380=EDGE_CURVE('',#525,#526,#620,.T.);
#381=EDGE_CURVE('',#526,#523,#621,.T.);
#382=EDGE_CURVE('',#527,#527,#63,.T.);
#383=EDGE_CURVE('',#528,#529,#64,.T.);
#384=EDGE_CURVE('',#529,#530,#39,.F.);
#385=EDGE_CURVE('',#530,#531,#622,.T.);
#386=EDGE_CURVE('',#532,#531,#65,.T.);
#387=EDGE_CURVE('',#532,#533,#623,.T.);
#388=EDGE_CURVE('',#533,#528,#40,.F.);
#389=EDGE_CURVE('',#534,#535,#66,.T.);
#390=EDGE_CURVE('',#535,#536,#41,.F.);
#391=EDGE_CURVE('',#536,#537,#624,.T.);
#392=EDGE_CURVE('',#538,#537,#67,.T.);
#393=EDGE_CURVE('',#538,#539,#625,.T.);
#394=EDGE_CURVE('',#539,#534,#42,.F.);
#395=EDGE_CURVE('',#540,#541,#68,.F.);
#396=EDGE_CURVE('',#541,#542,#626,.F.);
#397=EDGE_CURVE('',#542,#543,#69,.T.);
#398=EDGE_CURVE('',#543,#540,#627,.T.);
#399=EDGE_CURVE('',#542,#544,#628,.T.);
#400=EDGE_CURVE('',#544,#545,#629,.T.);
#401=EDGE_CURVE('',#545,#546,#70,.T.);
#402=EDGE_CURVE('',#546,#547,#630,.T.);
#403=EDGE_CURVE('',#547,#543,#631,.F.);
#404=EDGE_CURVE('',#545,#548,#632,.F.);
#405=EDGE_CURVE('',#548,#549,#43,.T.);
#406=EDGE_CURVE('',#549,#550,#71,.T.);
#407=EDGE_CURVE('',#550,#546,#633,.T.);
#408=EDGE_CURVE('',#549,#551,#44,.T.);
#409=EDGE_CURVE('',#551,#552,#72,.T.);
#410=EDGE_CURVE('',#552,#550,#45,.T.);
#411=EDGE_CURVE('',#551,#553,#46,.T.);
#412=EDGE_CURVE('',#553,#554,#73,.T.);
#413=EDGE_CURVE('',#554,#552,#47,.T.);
#414=EDGE_CURVE('',#553,#555,#48,.T.);
#415=EDGE_CURVE('',#555,#556,#74,.T.);
#416=EDGE_CURVE('',#556,#554,#634,.T.);
#417=EDGE_CURVE('',#555,#557,#49,.T.);
#418=EDGE_CURVE('',#557,#558,#635,.T.);
#419=EDGE_CURVE('',#558,#538,#18,.F.);
#420=EDGE_CURVE('',#537,#559,#19,.F.);
#421=EDGE_CURVE('',#559,#556,#636,.F.);
#422=EDGE_CURVE('',#560,#560,#75,.T.);
#423=EDGE_CURVE('',#561,#561,#76,.T.);
#424=EDGE_CURVE('',#562,#562,#77,.T.);
#425=EDGE_CURVE('',#563,#563,#78,.T.);
#426=EDGE_CURVE('',#564,#564,#79,.T.);
#427=EDGE_CURVE('',#565,#565,#80,.T.);
#428=EDGE_CURVE('',#566,#567,#81,.T.);
#429=EDGE_CURVE('',#567,#568,#637,.T.);
#430=EDGE_CURVE('',#568,#569,#82,.F.);
#431=EDGE_CURVE('',#569,#566,#638,.F.);
#432=EDGE_CURVE('',#570,#571,#639,.T.);
#433=EDGE_CURVE('',#570,#567,#640,.T.);
#434=EDGE_CURVE('',#566,#572,#641,.F.);
#435=EDGE_CURVE('',#573,#572,#642,.T.);
#436=EDGE_CURVE('',#573,#571,#83,.T.);
#437=EDGE_CURVE('',#574,#575,#84,.T.);
#438=EDGE_CURVE('',#575,#576,#50,.T.);
#439=EDGE_CURVE('',#571,#576,#643,.F.);
#440=EDGE_CURVE('',#574,#573,#644,.T.);
#441=EDGE_CURVE('',#577,#578,#85,.T.);
#442=EDGE_CURVE('',#578,#575,#51,.T.);
#443=EDGE_CURVE('',#577,#574,#52,.T.);
#444=EDGE_CURVE('',#579,#580,#86,.T.);
#445=EDGE_CURVE('',#580,#578,#53,.T.);
#446=EDGE_CURVE('',#579,#577,#54,.T.);
#447=EDGE_CURVE('',#581,#582,#87,.T.);
#448=EDGE_CURVE('',#582,#580,#55,.T.);
#449=EDGE_CURVE('',#581,#579,#645,.T.);
#450=EDGE_CURVE('',#583,#584,#646,.T.);
#451=EDGE_CURVE('',#583,#582,#56,.T.);
#452=EDGE_CURVE('',#585,#581,#647,.F.);
#453=EDGE_CURVE('',#585,#532,#20,.T.);
#454=EDGE_CURVE('',#531,#584,#21,.T.);
#455=EDGE_CURVE('',#572,#586,#648,.T.);
#456=EDGE_CURVE('',#586,#585,#649,.T.);
#457=EDGE_CURVE('',#559,#587,#650,.T.);
#458=EDGE_CURVE('',#587,#547,#651,.T.);
#459=EDGE_CURVE('',#576,#583,#57,.T.);
#460=EDGE_CURVE('',#584,#588,#652,.T.);
#461=EDGE_CURVE('',#588,#570,#653,.T.);
#462=EDGE_CURVE('',#557,#548,#58,.T.);
#463=EDGE_CURVE('',#544,#589,#654,.T.);
#464=EDGE_CURVE('',#589,#558,#655,.T.);
#465=EDGE_CURVE('',#590,#591,#656,.T.);
#466=EDGE_CURVE('',#592,#590,#657,.T.);
#467=EDGE_CURVE('',#592,#593,#658,.T.);
#468=EDGE_CURVE('',#593,#591,#659,.T.);
#469=EDGE_CURVE('',#590,#594,#660,.T.);
#470=EDGE_CURVE('',#595,#594,#661,.T.);
#471=EDGE_CURVE('',#595,#596,#662,.T.);
#472=EDGE_CURVE('',#592,#596,#663,.T.);
#473=EDGE_CURVE('',#597,#598,#664,.T.);
#474=EDGE_CURVE('',#597,#595,#665,.T.);
#475=EDGE_CURVE('',#594,#598,#666,.T.);
#476=EDGE_CURVE('',#599,#600,#667,.T.);
#477=EDGE_CURVE('',#601,#599,#668,.T.);
#478=EDGE_CURVE('',#601,#602,#669,.T.);
#479=EDGE_CURVE('',#602,#603,#670,.F.);
#480=EDGE_CURVE('',#603,#600,#671,.T.);
#481=EDGE_CURVE('',#599,#604,#672,.T.);
#482=EDGE_CURVE('',#605,#604,#673,.T.);
#483=EDGE_CURVE('',#601,#605,#674,.T.);
#484=EDGE_CURVE('',#604,#606,#675,.T.);
#485=EDGE_CURVE('',#607,#606,#676,.T.);
#486=EDGE_CURVE('',#607,#608,#677,.F.);
#487=EDGE_CURVE('',#605,#608,#678,.T.);
#488=EDGE_CURVE('',#609,#610,#679,.T.);
#489=EDGE_CURVE('',#610,#611,#680,.T.);
#490=EDGE_CURVE('',#612,#611,#681,.T.);
#491=EDGE_CURVE('',#612,#609,#682,.T.);
#492=EDGE_CURVE('',#611,#613,#683,.T.);
#493=EDGE_CURVE('',#614,#613,#684,.T.);
#494=EDGE_CURVE('',#612,#614,#685,.T.);
#495=EDGE_CURVE('',#613,#615,#686,.T.);
#496=EDGE_CURVE('',#616,#615,#687,.T.);
#497=EDGE_CURVE('',#614,#616,#688,.T.);
#498=EDGE_CURVE('',#603,#607,#689,.T.);
#499=EDGE_CURVE('',#600,#606,#690,.T.);
#500=EDGE_CURVE('',#615,#610,#691,.T.);
#501=EDGE_CURVE('',#609,#616,#692,.T.);
#502=EDGE_CURVE('',#591,#598,#693,.T.);
#503=EDGE_CURVE('',#593,#617,#694,.T.);
#504=EDGE_CURVE('',#617,#597,#695,.T.);
#505=EDGE_CURVE('',#608,#602,#696,.T.);
#506=EDGE_CURVE('',#596,#617,#697,.T.);
#507=EDGE_CURVE('',#523,#610,#698,.T.);
#508=EDGE_CURVE('',#611,#526,#699,.T.);
#509=EDGE_CURVE('',#613,#525,#700,.F.);
#510=EDGE_CURVE('',#524,#615,#701,.T.);
#511=EDGE_CURVE('',#587,#536,#702,.T.);
#512=EDGE_CURVE('',#540,#587,#59,.T.);
#513=EDGE_CURVE('',#540,#535,#703,.F.);
#514=EDGE_CURVE('',#541,#534,#704,.T.);
#515=EDGE_CURVE('',#589,#541,#60,.T.);
#516=EDGE_CURVE('',#589,#539,#705,.F.);
#517=EDGE_CURVE('',#586,#569,#61,.T.);
#518=EDGE_CURVE('',#533,#586,#706,.T.);
#519=EDGE_CURVE('',#528,#569,#707,.F.);
#520=EDGE_CURVE('',#568,#588,#62,.T.);
#521=EDGE_CURVE('',#529,#568,#708,.T.);
#522=EDGE_CURVE('',#530,#588,#709,.F.);
#523=VERTEX_POINT('',#1421);
#524=VERTEX_POINT('',#1422);
#525=VERTEX_POINT('',#1424);
#526=VERTEX_POINT('',#1426);
#527=VERTEX_POINT('',#1429);
#528=VERTEX_POINT('',#1431);
#529=VERTEX_POINT('',#1432);
#530=VERTEX_POINT('',#1437);
#531=VERTEX_POINT('',#1439);
#532=VERTEX_POINT('',#1441);
#533=VERTEX_POINT('',#1443);
#534=VERTEX_POINT('',#1449);
#535=VERTEX_POINT('',#1450);
#536=VERTEX_POINT('',#1455);
#537=VERTEX_POINT('',#1457);
#538=VERTEX_POINT('',#1459);
#539=VERTEX_POINT('',#1461);
#540=VERTEX_POINT('',#1468);
#541=VERTEX_POINT('',#1469);
#542=VERTEX_POINT('',#1471);
#543=VERTEX_POINT('',#1473);
#544=VERTEX_POINT('',#1477);
#545=VERTEX_POINT('',#1479);
#546=VERTEX_POINT('',#1481);
#547=VERTEX_POINT('',#1483);
#548=VERTEX_POINT('',#1487);
#549=VERTEX_POINT('',#1492);
#550=VERTEX_POINT('',#1494);
#551=VERTEX_POINT('',#1501);
#552=VERTEX_POINT('',#1503);
#553=VERTEX_POINT('',#1513);
#554=VERTEX_POINT('',#1515);
#555=VERTEX_POINT('',#1527);
#556=VERTEX_POINT('',#1529);
#557=VERTEX_POINT('',#1536);
#558=VERTEX_POINT('',#1538);
#559=VERTEX_POINT('',#1541);
#560=VERTEX_POINT('',#1545);
#561=VERTEX_POINT('',#1548);
#562=VERTEX_POINT('',#1551);
#563=VERTEX_POINT('',#1554);
#564=VERTEX_POINT('',#1557);
#565=VERTEX_POINT('',#1560);
#566=VERTEX_POINT('',#1564);
#567=VERTEX_POINT('',#1565);
#568=VERTEX_POINT('',#1567);
#569=VERTEX_POINT('',#1569);
#570=VERTEX_POINT('',#1573);
#571=VERTEX_POINT('',#1574);
#572=VERTEX_POINT('',#1577);
#573=VERTEX_POINT('',#1579);
#574=VERTEX_POINT('',#1583);
#575=VERTEX_POINT('',#1584);
#576=VERTEX_POINT('',#1589);
#577=VERTEX_POINT('',#1594);
#578=VERTEX_POINT('',#1595);
#579=VERTEX_POINT('',#1606);
#580=VERTEX_POINT('',#1607);
#581=VERTEX_POINT('',#1618);
#582=VERTEX_POINT('',#1619);
#583=VERTEX_POINT('',#1632);
#584=VERTEX_POINT('',#1633);
#585=VERTEX_POINT('',#1639);
#586=VERTEX_POINT('',#1644);
#587=VERTEX_POINT('',#1648);
#588=VERTEX_POINT('',#1656);
#589=VERTEX_POINT('',#1664);
#590=VERTEX_POINT('',#1668);
#591=VERTEX_POINT('',#1669);
#592=VERTEX_POINT('',#1671);
#593=VERTEX_POINT('',#1673);
#594=VERTEX_POINT('',#1677);
#595=VERTEX_POINT('',#1679);
#596=VERTEX_POINT('',#1681);
#597=VERTEX_POINT('',#1685);
#598=VERTEX_POINT('',#1686);
#599=VERTEX_POINT('',#1691);
#600=VERTEX_POINT('',#1692);
#601=VERTEX_POINT('',#1694);
#602=VERTEX_POINT('',#1696);
#603=VERTEX_POINT('',#1698);
#604=VERTEX_POINT('',#1702);
#605=VERTEX_POINT('',#1704);
#606=VERTEX_POINT('',#1708);
#607=VERTEX_POINT('',#1710);
#608=VERTEX_POINT('',#1712);
#609=VERTEX_POINT('',#1716);
#610=VERTEX_POINT('',#1717);
#611=VERTEX_POINT('',#1719);
#612=VERTEX_POINT('',#1721);
#613=VERTEX_POINT('',#1725);
#614=VERTEX_POINT('',#1727);
#615=VERTEX_POINT('',#1731);
#616=VERTEX_POINT('',#1733);
#617=VERTEX_POINT('',#1744);
#618=LINE('',#1420,#710);
#619=LINE('',#1423,#711);
#620=LINE('',#1425,#712);
#621=LINE('',#1427,#713);
#622=LINE('',#1438,#714);
#623=LINE('',#1442,#715);
#624=LINE('',#1456,#716);
#625=LINE('',#1460,#717);
#626=LINE('',#1470,#718);
#627=LINE('',#1474,#719);
#628=LINE('',#1476,#720);
#629=LINE('',#1478,#721);
#630=LINE('',#1482,#722);
#631=LINE('',#1484,#723);
#632=LINE('',#1486,#724);
#633=LINE('',#1495,#725);
#634=LINE('',#1530,#726);
#635=LINE('',#1537,#727);
#636=LINE('',#1542,#728);
#637=LINE('',#1566,#729);
#638=LINE('',#1570,#730);
#639=LINE('',#1572,#731);
#640=LINE('',#1575,#732);
#641=LINE('',#1576,#733);
#642=LINE('',#1578,#734);
#643=LINE('',#1590,#735);
#644=LINE('',#1591,#736);
#645=LINE('',#1629,#737);
#646=LINE('',#1631,#738);
#647=LINE('',#1638,#739);
#648=LINE('',#1643,#740);
#649=LINE('',#1645,#741);
#650=LINE('',#1647,#742);
#651=LINE('',#1649,#743);
#652=LINE('',#1655,#744);
#653=LINE('',#1657,#745);
#654=LINE('',#1663,#746);
#655=LINE('',#1665,#747);
#656=LINE('',#1667,#748);
#657=LINE('',#1670,#749);
#658=LINE('',#1672,#750);
#659=LINE('',#1674,#751);
#660=LINE('',#1676,#752);
#661=LINE('',#1678,#753);
#662=LINE('',#1680,#754);
#663=LINE('',#1682,#755);
#664=LINE('',#1684,#756);
#665=LINE('',#1687,#757);
#666=LINE('',#1688,#758);
#667=LINE('',#1690,#759);
#668=LINE('',#1693,#760);
#669=LINE('',#1695,#761);
#670=LINE('',#1697,#762);
#671=LINE('',#1699,#763);
#672=LINE('',#1701,#764);
#673=LINE('',#1703,#765);
#674=LINE('',#1705,#766);
#675=LINE('',#1707,#767);
#676=LINE('',#1709,#768);
#677=LINE('',#1711,#769);
#678=LINE('',#1713,#770);
#679=LINE('',#1715,#771);
#680=LINE('',#1718,#772);
#681=LINE('',#1720,#773);
#682=LINE('',#1722,#774);
#683=LINE('',#1724,#775);
#684=LINE('',#1726,#776);
#685=LINE('',#1728,#777);
#686=LINE('',#1730,#778);
#687=LINE('',#1732,#779);
#688=LINE('',#1734,#780);
#689=LINE('',#1736,#781);
#690=LINE('',#1737,#782);
#691=LINE('',#1739,#783);
#692=LINE('',#1740,#784);
#693=LINE('',#1742,#785);
#694=LINE('',#1743,#786);
#695=LINE('',#1745,#787);
#696=LINE('',#1747,#788);
#697=LINE('',#1748,#789);
#698=LINE('',#1752,#790);
#699=LINE('',#1753,#791);
#700=LINE('',#1755,#792);
#701=LINE('',#1757,#793);
#702=LINE('',#1762,#794);
#703=LINE('',#1772,#795);
#704=LINE('',#1774,#796);
#705=LINE('',#1784,#797);
#706=LINE('',#1792,#798);
#707=LINE('',#1797,#799);
#708=LINE('',#1804,#800);
#709=LINE('',#1809,#801);
#710=VECTOR('',#1156,1.);
#711=VECTOR('',#1157,1.);
#712=VECTOR('',#1158,1.);
#713=VECTOR('',#1159,1.);
#714=VECTOR('',#1164,1.);
#715=VECTOR('',#1167,1.);
#716=VECTOR('',#1170,1.);
#717=VECTOR('',#1173,1.);
#718=VECTOR('',#1178,1.);
#719=VECTOR('',#1181,1.);
#720=VECTOR('',#1184,1.);
#721=VECTOR('',#1185,1.);
#722=VECTOR('',#1188,1.);
#723=VECTOR('',#1189,1.);
#724=VECTOR('',#1192,1.);
#725=VECTOR('',#1195,1.);
#726=VECTOR('',#1208,1.);
#727=VECTOR('',#1211,1.);
#728=VECTOR('',#1216,1.);
#729=VECTOR('',#1247,1.);
#730=VECTOR('',#1250,1.);
#731=VECTOR('',#1253,1.);
#732=VECTOR('',#1254,1.);
#733=VECTOR('',#1255,1.);
#734=VECTOR('',#1256,1.);
#735=VECTOR('',#1263,1.);
#736=VECTOR('',#1264,1.);
#737=VECTOR('',#1277,1.);
#738=VECTOR('',#1280,1.);
#739=VECTOR('',#1281,1.);
#740=VECTOR('',#1288,1.);
#741=VECTOR('',#1289,1.);
#742=VECTOR('',#1292,1.);
#743=VECTOR('',#1293,1.);
#744=VECTOR('',#1296,1.);
#745=VECTOR('',#1297,1.);
#746=VECTOR('',#1300,1.);
#747=VECTOR('',#1301,1.);
#748=VECTOR('',#1304,1.);
#749=VECTOR('',#1305,1.);
#750=VECTOR('',#1306,1.);
#751=VECTOR('',#1307,1.);
#752=VECTOR('',#1310,1.);
#753=VECTOR('',#1311,1.);
#754=VECTOR('',#1312,1.);
#755=VECTOR('',#1313,1.);
#756=VECTOR('',#1316,1.);
#757=VECTOR('',#1317,1.);
#758=VECTOR('',#1318,1.);
#759=VECTOR('',#1321,1.);
#760=VECTOR('',#1322,1.);
#761=VECTOR('',#1323,1.);
#762=VECTOR('',#1324,1.);
#763=VECTOR('',#1325,1.);
#764=VECTOR('',#1328,1.);
#765=VECTOR('',#1329,1.);
#766=VECTOR('',#1330,1.);
#767=VECTOR('',#1333,1.);
#768=VECTOR('',#1334,1.);
#769=VECTOR('',#1335,1.);
#770=VECTOR('',#1336,1.);
#771=VECTOR('',#1339,1.);
#772=VECTOR('',#1340,1.);
#773=VECTOR('',#1341,1.);
#774=VECTOR('',#1342,1.);
#775=VECTOR('',#1345,1.);
#776=VECTOR('',#1346,1.);
#777=VECTOR('',#1347,1.);
#778=VECTOR('',#1350,1.);
#779=VECTOR('',#1351,1.);
#780=VECTOR('',#1352,1.);
#781=VECTOR('',#1355,1.);
#782=VECTOR('',#1356,1.);
#783=VECTOR('',#1359,1.);
#784=VECTOR('',#1360,1.);
#785=VECTOR('',#1363,1.);
#786=VECTOR('',#1364,1.);
#787=VECTOR('',#1365,1.);
#788=VECTOR('',#1368,1.);
#789=VECTOR('',#1369,1.);
#790=VECTOR('',#1376,1.);
#791=VECTOR('',#1377,1.);
#792=VECTOR('',#1380,1.);
#793=VECTOR('',#1383,1.);
#794=VECTOR('',#1392,1.);
#795=VECTOR('',#1395,1.);
#796=VECTOR('',#1398,1.);
#797=VECTOR('',#1401,1.);
#798=VECTOR('',#1408,1.);
#799=VECTOR('',#1409,1.);
#800=VECTOR('',#1414,1.);
#801=VECTOR('',#1415,1.);
#802=EDGE_LOOP('',(#88,#89,#90,#91));
#803=EDGE_LOOP('',(#92));
#804=EDGE_LOOP('',(#93,#94,#95,#96,#97,#98));
#805=EDGE_LOOP('',(#99,#100,#101,#102,#103,#104));
#806=EDGE_LOOP('',(#105,#106,#107,#108));
#807=EDGE_LOOP('',(#109,#110,#111,#112,#113,#114));
#808=EDGE_LOOP('',(#115,#116,#117,#118,#119));
#809=EDGE_LOOP('',(#120,#121,#122,#123));
#810=EDGE_LOOP('',(#124,#125,#126,#127));
#811=EDGE_LOOP('',(#128,#129,#130,#131));
#812=EDGE_LOOP('',(#132,#133,#134,#135,#136,#137,#138));
#813=EDGE_LOOP('',(#139));
#814=EDGE_LOOP('',(#140));
#815=EDGE_LOOP('',(#141));
#816=EDGE_LOOP('',(#142));
#817=EDGE_LOOP('',(#143));
#818=EDGE_LOOP('',(#144));
#819=EDGE_LOOP('',(#145));
#820=EDGE_LOOP('',(#146));
#821=EDGE_LOOP('',(#147));
#822=EDGE_LOOP('',(#148));
#823=EDGE_LOOP('',(#149));
#824=EDGE_LOOP('',(#150));
#825=EDGE_LOOP('',(#151));
#826=EDGE_LOOP('',(#152,#153,#154,#155));
#827=EDGE_LOOP('',(#156,#157,#158,#159,#160,#161));
#828=EDGE_LOOP('',(#162,#163,#164,#165,#166));
#829=EDGE_LOOP('',(#167,#168,#169,#170));
#830=EDGE_LOOP('',(#171,#172,#173,#174));
#831=EDGE_LOOP('',(#175,#176,#177,#178));
#832=EDGE_LOOP('',(#179,#180,#181,#182,#183,#184,#185));
#833=EDGE_LOOP('',(#186,#187,#188,#189,#190,#191,#192,#193));
#834=EDGE_LOOP('',(#194,#195,#196,#197,#198,#199,#200,#201));
#835=EDGE_LOOP('',(#202,#203,#204,#205,#206,#207));
#836=EDGE_LOOP('',(#208,#209,#210,#211,#212,#213));
#837=EDGE_LOOP('',(#214,#215,#216,#217));
#838=EDGE_LOOP('',(#218,#219,#220,#221,#222));
#839=EDGE_LOOP('',(#223,#224,#225,#226));
#840=EDGE_LOOP('',(#227,#228,#229,#230,#231));
#841=EDGE_LOOP('',(#232,#233,#234,#235));
#842=EDGE_LOOP('',(#236,#237,#238,#239,#240));
#843=EDGE_LOOP('',(#241,#242,#243,#244));
#844=EDGE_LOOP('',(#245,#246,#247,#248));
#845=EDGE_LOOP('',(#249,#250,#251,#252));
#846=EDGE_LOOP('',(#253,#254,#255,#256));
#847=EDGE_LOOP('',(#257,#258,#259,#260));
#848=EDGE_LOOP('',(#261,#262,#263,#264,#265));
#849=EDGE_LOOP('',(#266,#267,#268,#269));
#850=EDGE_LOOP('',(#270,#271,#272,#273));
#851=EDGE_LOOP('',(#274,#275,#276,#277));
#852=EDGE_LOOP('',(#278,#279,#280,#281));
#853=EDGE_LOOP('',(#282,#283,#284,#285));
#854=EDGE_LOOP('',(#286,#287,#288,#289));
#855=EDGE_LOOP('',(#290,#291,#292,#293));
#856=EDGE_LOOP('',(#294,#295,#296,#297));
#857=EDGE_LOOP('',(#298,#299,#300,#301));
#858=EDGE_LOOP('',(#302,#303,#304,#305));
#859=EDGE_LOOP('',(#306,#307,#308,#309));
#860=EDGE_LOOP('',(#310,#311,#312,#313));
#861=EDGE_LOOP('',(#314,#315,#316,#317));
#862=EDGE_LOOP('',(#318,#319,#320,#321));
#863=EDGE_LOOP('',(#322,#323,#324,#325));
#864=EDGE_LOOP('',(#326,#327,#328,#329));
#865=EDGE_LOOP('',(#330,#331,#332,#333));
#866=EDGE_LOOP('',(#334,#335,#336,#337));
#867=EDGE_LOOP('',(#338,#339,#340,#341));
#868=EDGE_LOOP('',(#342,#343,#344,#345));
#869=EDGE_LOOP('',(#346,#347,#348,#349));
#870=EDGE_LOOP('',(#350,#351,#352,#353));
#871=EDGE_LOOP('',(#354,#355,#356,#357));
#872=EDGE_LOOP('',(#358,#359,#360,#361));
#873=EDGE_LOOP('',(#362,#363,#364,#365));
#874=EDGE_LOOP('',(#366,#367,#368,#369,#370,#371));
#875=EDGE_LOOP('',(#372,#373,#374,#375,#376,#377));
#876=FACE_BOUND('',#802,.T.);
#877=FACE_BOUND('',#803,.T.);
#878=FACE_BOUND('',#804,.T.);
#879=FACE_BOUND('',#805,.T.);
#880=FACE_BOUND('',#806,.T.);
#881=FACE_BOUND('',#807,.T.);
#882=FACE_BOUND('',#808,.T.);
#883=FACE_BOUND('',#809,.T.);
#884=FACE_BOUND('',#810,.T.);
#885=FACE_BOUND('',#811,.T.);
#886=FACE_BOUND('',#812,.T.);
#887=FACE_BOUND('',#813,.T.);
#888=FACE_BOUND('',#814,.T.);
#889=FACE_BOUND('',#815,.T.);
#890=FACE_BOUND('',#816,.T.);
#891=FACE_BOUND('',#817,.T.);
#892=FACE_BOUND('',#818,.T.);
#893=FACE_BOUND('',#819,.T.);
#894=FACE_BOUND('',#820,.T.);
#895=FACE_BOUND('',#821,.T.);
#896=FACE_BOUND('',#822,.T.);
#897=FACE_BOUND('',#823,.T.);
#898=FACE_BOUND('',#824,.T.);
#899=FACE_BOUND('',#825,.T.);
#900=FACE_BOUND('',#826,.T.);
#901=FACE_BOUND('',#827,.T.);
#902=FACE_BOUND('',#828,.T.);
#903=FACE_BOUND('',#829,.T.);
#904=FACE_BOUND('',#830,.T.);
#905=FACE_BOUND('',#831,.T.);
#906=FACE_BOUND('',#832,.T.);
#907=FACE_BOUND('',#833,.T.);
#908=FACE_BOUND('',#834,.T.);
#909=FACE_BOUND('',#835,.T.);
#910=FACE_BOUND('',#836,.T.);
#911=FACE_BOUND('',#837,.T.);
#912=FACE_BOUND('',#838,.T.);
#913=FACE_BOUND('',#839,.T.);
#914=FACE_BOUND('',#840,.T.);
#915=FACE_BOUND('',#841,.T.);
#916=FACE_BOUND('',#842,.T.);
#917=FACE_BOUND('',#843,.T.);
#918=FACE_BOUND('',#844,.T.);
#919=FACE_BOUND('',#845,.T.);
#920=FACE_BOUND('',#846,.T.);
#921=FACE_BOUND('',#847,.T.);
#922=FACE_BOUND('',#848,.T.);
#923=FACE_BOUND('',#849,.T.);
#924=FACE_BOUND('',#850,.T.);
#925=FACE_BOUND('',#851,.T.);
#926=FACE_BOUND('',#852,.T.);
#927=FACE_BOUND('',#853,.T.);
#928=FACE_BOUND('',#854,.T.);
#929=FACE_BOUND('',#855,.T.);
#930=FACE_BOUND('',#856,.T.);
#931=FACE_BOUND('',#857,.T.);
#932=FACE_BOUND('',#858,.T.);
#933=FACE_BOUND('',#859,.T.);
#934=FACE_BOUND('',#860,.T.);
#935=FACE_BOUND('',#861,.T.);
#936=FACE_BOUND('',#862,.T.);
#937=FACE_BOUND('',#863,.T.);
#938=FACE_BOUND('',#864,.T.);
#939=FACE_BOUND('',#865,.T.);
#940=FACE_BOUND('',#866,.T.);
#941=FACE_BOUND('',#867,.T.);
#942=FACE_BOUND('',#868,.T.);
#943=FACE_BOUND('',#869,.T.);
#944=FACE_BOUND('',#870,.T.);
#945=FACE_BOUND('',#871,.T.);
#946=FACE_BOUND('',#872,.T.);
#947=FACE_BOUND('',#873,.T.);
#948=FACE_BOUND('',#874,.T.);
#949=FACE_BOUND('',#875,.T.);
#950=PLANE('',#1066);
#951=PLANE('',#1075);
#952=PLANE('',#1083);
#953=PLANE('',#1088);
#954=PLANE('',#1096);
#955=PLANE('',#1104);
#956=PLANE('',#1112);
#957=PLANE('',#1117);
#958=PLANE('',#1118);
#959=PLANE('',#1119);
#960=PLANE('',#1120);
#961=PLANE('',#1121);
#962=PLANE('',#1122);
#963=PLANE('',#1123);
#964=PLANE('',#1124);
#965=PLANE('',#1125);
#966=PLANE('',#1126);
#967=PLANE('',#1127);
#968=PLANE('',#1128);
#969=PLANE('',#1129);
#970=PLANE('',#1130);
#971=PLANE('',#1131);
#972=PLANE('',#1132);
#973=PLANE('',#1133);
#974=PLANE('',#1134);
#975=PLANE('',#1135);
#976=PLANE('',#1136);
#977=PLANE('',#1137);
#978=PLANE('',#1138);
#979=PLANE('',#1139);
#980=PLANE('',#1140);
#981=PLANE('',#1141);
#982=PLANE('',#1142);
#983=PLANE('',#1143);
#984=PLANE('',#1145);
#985=PLANE('',#1146);
#986=PLANE('',#1147);
#987=PLANE('',#1148);
#988=PLANE('',#1149);
#989=PLANE('',#1151);
#990=ADVANCED_FACE('',(#876,#877,#878,#879),#950,.F.);
#991=ADVANCED_FACE('',(#880),#31,.T.);
#992=ADVANCED_FACE('',(#881),#951,.T.);
#993=ADVANCED_FACE('',(#882),#32,.T.);
#994=ADVANCED_FACE('',(#883),#22,.T.);
#995=ADVANCED_FACE('',(#884),#23,.T.);
#996=ADVANCED_FACE('',(#885),#952,.T.);
#997=ADVANCED_FACE('',(#886),#33,.F.);
#998=ADVANCED_FACE('',(#887),#953,.F.);
#999=ADVANCED_FACE('',(#888,#889),#24,.T.);
#1000=ADVANCED_FACE('',(#890,#891),#34,.T.);
#1001=ADVANCED_FACE('',(#892,#893),#25,.T.);
#1002=ADVANCED_FACE('',(#894,#895),#954,.F.);
#1003=ADVANCED_FACE('',(#896,#897),#26,.F.);
#1004=ADVANCED_FACE('',(#898,#899),#35,.F.);
#1005=ADVANCED_FACE('',(#900),#36,.T.);
#1006=ADVANCED_FACE('',(#901),#955,.T.);
#1007=ADVANCED_FACE('',(#902),#37,.T.);
#1008=ADVANCED_FACE('',(#903),#27,.T.);
#1009=ADVANCED_FACE('',(#904),#28,.T.);
#1010=ADVANCED_FACE('',(#905),#956,.T.);
#1011=ADVANCED_FACE('',(#906),#38,.F.);
#1012=ADVANCED_FACE('',(#907),#957,.F.);
#1013=ADVANCED_FACE('',(#908),#958,.T.);
#1014=ADVANCED_FACE('',(#909),#959,.F.);
#1015=ADVANCED_FACE('',(#910),#960,.T.);
#1016=ADVANCED_FACE('',(#911),#961,.T.);
#1017=ADVANCED_FACE('',(#912),#962,.F.);
#1018=ADVANCED_FACE('',(#913),#963,.F.);
#1019=ADVANCED_FACE('',(#914),#964,.T.);
#1020=ADVANCED_FACE('',(#915),#965,.F.);
#1021=ADVANCED_FACE('',(#916),#966,.F.);
#1022=ADVANCED_FACE('',(#917),#967,.T.);
#1023=ADVANCED_FACE('',(#918),#968,.F.);
#1024=ADVANCED_FACE('',(#919),#969,.F.);
#1025=ADVANCED_FACE('',(#920),#970,.T.);
#1026=ADVANCED_FACE('',(#921),#971,.T.);
#1027=ADVANCED_FACE('',(#922),#972,.T.);
#1028=ADVANCED_FACE('',(#923,#924,#925),#973,.T.);
#1029=ADVANCED_FACE('',(#926),#974,.T.);
#1030=ADVANCED_FACE('',(#927),#975,.T.);
#1031=ADVANCED_FACE('',(#928),#976,.F.);
#1032=ADVANCED_FACE('',(#929),#977,.T.);
#1033=ADVANCED_FACE('',(#930),#978,.F.);
#1034=ADVANCED_FACE('',(#931),#979,.T.);
#1035=ADVANCED_FACE('',(#932),#980,.T.);
#1036=ADVANCED_FACE('',(#933),#981,.F.);
#1037=ADVANCED_FACE('',(#934),#982,.F.);
#1038=ADVANCED_FACE('',(#935),#983,.F.);
#1039=ADVANCED_FACE('',(#936),#12,.F.);
#1040=ADVANCED_FACE('',(#937),#29,.T.);
#1041=ADVANCED_FACE('',(#938),#984,.T.);
#1042=ADVANCED_FACE('',(#939),#13,.F.);
#1043=ADVANCED_FACE('',(#940),#985,.F.);
#1044=ADVANCED_FACE('',(#941),#986,.F.);
#1045=ADVANCED_FACE('',(#942),#987,.T.);
#1046=ADVANCED_FACE('',(#943),#14,.F.);
#1047=ADVANCED_FACE('',(#944),#988,.T.);
#1048=ADVANCED_FACE('',(#945),#30,.T.);
#1049=ADVANCED_FACE('',(#946),#15,.F.);
#1050=ADVANCED_FACE('',(#947),#989,.T.);
#1051=ADVANCED_FACE('',(#948),#16,.T.);
#1052=ADVANCED_FACE('',(#949),#17,.T.);
#1053=CLOSED_SHELL('',(#990,#991,#992,#993,#994,#995,#996,#997,#998,#999,
#1000,#1001,#1002,#1003,#1004,#1005,#1006,#1007,#1008,#1009,#1010,#1011,
#1012,#1013,#1014,#1015,#1016,#1017,#1018,#1019,#1020,#1021,#1022,#1023,
#1024,#1025,#1026,#1027,#1028,#1029,#1030,#1031,#1032,#1033,#1034,#1035,
#1036,#1037,#1038,#1039,#1040,#1041,#1042,#1043,#1044,#1045,#1046,#1047,
#1048,#1049,#1050,#1051,#1052));
#1054=STYLED_ITEM('',(#1055),#1062);
#1055=PRESENTATION_STYLE_ASSIGNMENT((#1056));
#1056=SURFACE_STYLE_USAGE(.BOTH.,#1057);
#1057=SURFACE_SIDE_STYLE('',(#1058));
#1058=SURFACE_STYLE_FILL_AREA(#1059);
#1059=FILL_AREA_STYLE('',(#1060));
#1060=FILL_AREA_STYLE_COLOUR('',#1061);
#1061=COLOUR_RGB('',0.231372549019608,0.380392156862745,0.705882352941177);
#1062=MANIFOLD_SOLID_BREP('knob',#1053);
#1063=SHAPE_DEFINITION_REPRESENTATION(#1859,#1064);
#1064=SHAPE_REPRESENTATION('knob',(#1065),#1854);
#1065=AXIS2_PLACEMENT_3D('',#1418,#1152,#1153);
#1066=AXIS2_PLACEMENT_3D('',#1419,#1154,#1155);
#1067=AXIS2_PLACEMENT_3D('',#1428,#1160,#1161);
#1068=AXIS2_PLACEMENT_3D('',#1430,#1162,#1163);
#1069=AXIS2_PLACEMENT_3D('',#1440,#1165,#1166);
#1070=AXIS2_PLACEMENT_3D('',#1448,#1168,#1169);
#1071=AXIS2_PLACEMENT_3D('',#1458,#1171,#1172);
#1072=AXIS2_PLACEMENT_3D('',#1466,#1174,#1175);
#1073=AXIS2_PLACEMENT_3D('',#1467,#1176,#1177);
#1074=AXIS2_PLACEMENT_3D('',#1472,#1179,#1180);
#1075=AXIS2_PLACEMENT_3D('',#1475,#1182,#1183);
#1076=AXIS2_PLACEMENT_3D('',#1480,#1186,#1187);
#1077=AXIS2_PLACEMENT_3D('',#1485,#1190,#1191);
#1078=AXIS2_PLACEMENT_3D('',#1493,#1193,#1194);
#1079=AXIS2_PLACEMENT_3D('',#1496,#1196,#1197);
#1080=AXIS2_PLACEMENT_3D('',#1502,#1198,#1199);
#1081=AXIS2_PLACEMENT_3D('',#1508,#1200,#1201);
#1082=AXIS2_PLACEMENT_3D('',#1514,#1202,#1203);
#1083=AXIS2_PLACEMENT_3D('',#1520,#1204,#1205);
#1084=AXIS2_PLACEMENT_3D('',#1528,#1206,#1207);
#1085=AXIS2_PLACEMENT_3D('',#1531,#1209,#1210);
#1086=AXIS2_PLACEMENT_3D('',#1539,#1212,#1213);
#1087=AXIS2_PLACEMENT_3D('',#1540,#1214,#1215);
#1088=AXIS2_PLACEMENT_3D('',#1543,#1217,#1218);
#1089=AXIS2_PLACEMENT_3D('',#1544,#1219,#1220);
#1090=AXIS2_PLACEMENT_3D('',#1546,#1221,#1222);
#1091=AXIS2_PLACEMENT_3D('',#1547,#1223,#1224);
#1092=AXIS2_PLACEMENT_3D('',#1549,#1225,#1226);
#1093=AXIS2_PLACEMENT_3D('',#1550,#1227,#1228);
#1094=AXIS2_PLACEMENT_3D('',#1552,#1229,#1230);
#1095=AXIS2_PLACEMENT_3D('',#1553,#1231,#1232);
#1096=AXIS2_PLACEMENT_3D('',#1555,#1233,#1234);
#1097=AXIS2_PLACEMENT_3D('',#1556,#1235,#1236);
#1098=AXIS2_PLACEMENT_3D('',#1558,#1237,#1238);
#1099=AXIS2_PLACEMENT_3D('',#1559,#1239,#1240);
#1100=AXIS2_PLACEMENT_3D('',#1561,#1241,#1242);
#1101=AXIS2_PLACEMENT_3D('',#1562,#1243,#1244);
#1102=AXIS2_PLACEMENT_3D('',#1563,#1245,#1246);
#1103=AXIS2_PLACEMENT_3D('',#1568,#1248,#1249);
#1104=AXIS2_PLACEMENT_3D('',#1571,#1251,#1252);
#1105=AXIS2_PLACEMENT_3D('',#1580,#1257,#1258);
#1106=AXIS2_PLACEMENT_3D('',#1581,#1259,#1260);
#1107=AXIS2_PLACEMENT_3D('',#1582,#1261,#1262);
#1108=AXIS2_PLACEMENT_3D('',#1592,#1265,#1266);
#1109=AXIS2_PLACEMENT_3D('',#1593,#1267,#1268);
#1110=AXIS2_PLACEMENT_3D('',#1604,#1269,#1270);
#1111=AXIS2_PLACEMENT_3D('',#1605,#1271,#1272);
#1112=AXIS2_PLACEMENT_3D('',#1616,#1273,#1274);
#1113=AXIS2_PLACEMENT_3D('',#1617,#1275,#1276);
#1114=AXIS2_PLACEMENT_3D('',#1630,#1278,#1279);
#1115=AXIS2_PLACEMENT_3D('',#1640,#1282,#1283);
#1116=AXIS2_PLACEMENT_3D('',#1641,#1284,#1285);
#1117=AXIS2_PLACEMENT_3D('',#1642,#1286,#1287);
#1118=AXIS2_PLACEMENT_3D('',#1646,#1290,#1291);
#1119=AXIS2_PLACEMENT_3D('',#1650,#1294,#1295);
#1120=AXIS2_PLACEMENT_3D('',#1658,#1298,#1299);
#1121=AXIS2_PLACEMENT_3D('',#1666,#1302,#1303);
#1122=AXIS2_PLACEMENT_3D('',#1675,#1308,#1309);
#1123=AXIS2_PLACEMENT_3D('',#1683,#1314,#1315);
#1124=AXIS2_PLACEMENT_3D('',#1689,#1319,#1320);
#1125=AXIS2_PLACEMENT_3D('',#1700,#1326,#1327);
#1126=AXIS2_PLACEMENT_3D('',#1706,#1331,#1332);
#1127=AXIS2_PLACEMENT_3D('',#1714,#1337,#1338);
#1128=AXIS2_PLACEMENT_3D('',#1723,#1343,#1344);
#1129=AXIS2_PLACEMENT_3D('',#1729,#1348,#1349);
#1130=AXIS2_PLACEMENT_3D('',#1735,#1353,#1354);
#1131=AXIS2_PLACEMENT_3D('',#1738,#1357,#1358);
#1132=AXIS2_PLACEMENT_3D('',#1741,#1361,#1362);
#1133=AXIS2_PLACEMENT_3D('',#1746,#1366,#1367);
#1134=AXIS2_PLACEMENT_3D('',#1749,#1370,#1371);
#1135=AXIS2_PLACEMENT_3D('',#1750,#1372,#1373);
#1136=AXIS2_PLACEMENT_3D('',#1751,#1374,#1375);
#1137=AXIS2_PLACEMENT_3D('',#1754,#1378,#1379);
#1138=AXIS2_PLACEMENT_3D('',#1756,#1381,#1382);
#1139=AXIS2_PLACEMENT_3D('',#1758,#1384,#1385);
#1140=AXIS2_PLACEMENT_3D('',#1759,#1386,#1387);
#1141=AXIS2_PLACEMENT_3D('',#1760,#1388,#1389);
#1142=AXIS2_PLACEMENT_3D('',#1761,#1390,#1391);
#1143=AXIS2_PLACEMENT_3D('',#1763,#1393,#1394);
#1144=AXIS2_PLACEMENT_3D('',#1773,#1396,#1397);
#1145=AXIS2_PLACEMENT_3D('',#1775,#1399,#1400);
#1146=AXIS2_PLACEMENT_3D('',#1785,#1402,#1403);
#1147=AXIS2_PLACEMENT_3D('',#1786,#1404,#1405);
#1148=AXIS2_PLACEMENT_3D('',#1791,#1406,#1407);
#1149=AXIS2_PLACEMENT_3D('',#1798,#1410,#1411);
#1150=AXIS2_PLACEMENT_3D('',#1803,#1412,#1413);
#1151=AXIS2_PLACEMENT_3D('',#1810,#1416,#1417);
#1152=DIRECTION('',(0.,0.,1.));
#1153=DIRECTION('',(1.,0.,0.));
#1154=DIRECTION('',(0.,0.,1.));
#1155=DIRECTION('',(1.,0.,0.));
#1156=DIRECTION('',(-1.,0.,0.));
#1157=DIRECTION('',(0.,-1.,0.));
#1158=DIRECTION('',(1.,0.,0.));
#1159=DIRECTION('',(0.,1.,0.));
#1160=DIRECTION('',(0.,0.,1.));
#1161=DIRECTION('',(1.,0.,0.));
#1162=DIRECTION('',(0.,0.,1.));
#1163=DIRECTION('',(1.,0.,0.));
#1164=DIRECTION('',(1.98254111540206E-16,-1.,0.));
#1165=DIRECTION('',(0.,0.,1.));
#1166=DIRECTION('',(1.,0.,0.));
#1167=DIRECTION('',(1.98254111540206E-16,-1.,0.));
#1168=DIRECTION('',(0.,0.,1.));
#1169=DIRECTION('',(1.,0.,0.));
#1170=DIRECTION('',(-1.98254111540206E-16,1.,0.));
#1171=DIRECTION('',(0.,0.,1.));
#1172=DIRECTION('',(1.,0.,0.));
#1173=DIRECTION('',(-1.98254111540206E-16,1.,0.));
#1174=DIRECTION('',(0.,0.,1.));
#1175=DIRECTION('',(1.,0.,0.));
#1176=DIRECTION('',(0.,0.,1.));
#1177=DIRECTION('',(1.,0.,0.));
#1178=DIRECTION('',(0.,0.,1.));
#1179=DIRECTION('',(0.,0.,1.));
#1180=DIRECTION('',(1.,0.,0.));
#1181=DIRECTION('',(0.,0.,1.));
#1182=DIRECTION('',(0.,0.,-1.));
#1183=DIRECTION('',(-1.,0.,0.));
#1184=DIRECTION('',(0.951340783728379,-0.308140736052659,0.));
#1185=DIRECTION('',(1.98254111540206E-16,-1.,0.));
#1186=DIRECTION('',(0.,0.,1.));
#1187=DIRECTION('',(1.,0.,0.));
#1188=DIRECTION('',(1.98254111540206E-16,-1.,0.));
#1189=DIRECTION('',(0.951340783728381,0.308140736052652,0.));
#1190=DIRECTION('',(0.,0.,1.));
#1191=DIRECTION('',(1.,0.,0.));
#1192=DIRECTION('',(0.,0.,1.));
#1193=DIRECTION('',(0.,0.,1.));
#1194=DIRECTION('',(1.,0.,0.));
#1195=DIRECTION('',(0.,0.,1.));
#1196=DIRECTION('',(0.,0.,-1.));
#1197=DIRECTION('',(-1.,0.,0.));
#1198=DIRECTION('',(0.,0.,1.));
#1199=DIRECTION('',(1.,0.,0.));
#1200=DIRECTION('',(0.,0.,1.));
#1201=DIRECTION('',(1.,0.,0.));
#1202=DIRECTION('',(0.,0.,1.));
#1203=DIRECTION('',(1.,0.,0.));
#1204=DIRECTION('',(0.,0.,-1.));
#1205=DIRECTION('',(-1.,0.,0.));
#1206=DIRECTION('',(0.,0.,1.));
#1207=DIRECTION('',(1.,0.,0.));
#1208=DIRECTION('',(1.98254111540206E-16,-1.,0.));
#1209=DIRECTION('',(0.,0.,1.));
#1210=DIRECTION('',(1.,0.,0.));
#1211=DIRECTION('',(0.,0.,1.));
#1212=DIRECTION('',(-0.707106781186548,-1.40186826668194E-16,0.707106781186548));
#1213=DIRECTION('',(0.707106781186548,1.40186826668194E-16,0.707106781186548));
#1214=DIRECTION('',(-0.707106781186548,-1.40186826668194E-16,0.707106781186548));
#1215=DIRECTION('',(0.707106781186548,1.40186826668194E-16,0.707106781186548));
#1216=DIRECTION('',(0.,0.,1.));
#1217=DIRECTION('',(0.,0.,-1.));
#1218=DIRECTION('',(-1.,0.,0.));
#1219=DIRECTION('',(0.,0.,1.));
#1220=DIRECTION('',(1.,0.,0.));
#1221=DIRECTION('',(0.,0.,-1.));
#1222=DIRECTION('',(-1.,0.,0.));
#1223=DIRECTION('',(0.,0.,1.));
#1224=DIRECTION('',(1.,0.,0.));
#1225=DIRECTION('',(0.,0.,1.));
#1226=DIRECTION('',(1.,0.,0.));
#1227=DIRECTION('',(0.,0.,1.));
#1228=DIRECTION('',(1.,0.,0.));
#1229=DIRECTION('',(0.,0.,1.));
#1230=DIRECTION('',(1.,0.,0.));
#1231=DIRECTION('',(0.,0.,1.));
#1232=DIRECTION('',(1.,0.,0.));
#1233=DIRECTION('',(0.,0.,1.));
#1234=DIRECTION('',(1.,0.,0.));
#1235=DIRECTION('',(0.,0.,1.));
#1236=DIRECTION('',(1.,0.,0.));
#1237=DIRECTION('',(0.,0.,-1.));
#1238=DIRECTION('',(-1.,0.,0.));
#1239=DIRECTION('',(0.,0.,1.));
#1240=DIRECTION('',(1.,0.,0.));
#1241=DIRECTION('',(0.,0.,1.));
#1242=DIRECTION('',(1.,0.,0.));
#1243=DIRECTION('',(0.,0.,1.));
#1244=DIRECTION('',(1.,0.,0.));
#1245=DIRECTION('',(0.,0.,1.));
#1246=DIRECTION('',(1.,0.,0.));
#1247=DIRECTION('',(0.,0.,1.));
#1248=DIRECTION('',(0.,0.,1.));
#1249=DIRECTION('',(1.,0.,0.));
#1250=DIRECTION('',(0.,0.,1.));
#1251=DIRECTION('',(0.,0.,-1.));
#1252=DIRECTION('',(-1.,0.,0.));
#1253=DIRECTION('',(1.98254111540206E-16,-1.,0.));
#1254=DIRECTION('',(0.951340783728379,0.308140736052659,0.));
#1255=DIRECTION('',(0.951340783728378,-0.30814073605266,0.));
#1256=DIRECTION('',(1.98254111540206E-16,-1.,0.));
#1257=DIRECTION('',(0.,0.,1.));
#1258=DIRECTION('',(1.,0.,0.));
#1259=DIRECTION('',(0.,0.,1.));
#1260=DIRECTION('',(1.,0.,0.));
#1261=DIRECTION('',(0.,0.,1.));
#1262=DIRECTION('',(1.,0.,0.));
#1263=DIRECTION('',(0.,0.,1.));
#1264=DIRECTION('',(0.,0.,1.));
#1265=DIRECTION('',(0.,0.,-1.));
#1266=DIRECTION('',(-1.,0.,0.));
#1267=DIRECTION('',(0.,0.,1.));
#1268=DIRECTION('',(1.,0.,0.));
#1269=DIRECTION('',(0.,0.,1.));
#1270=DIRECTION('',(1.,0.,0.));
#1271=DIRECTION('',(0.,0.,1.));
#1272=DIRECTION('',(1.,0.,0.));
#1273=DIRECTION('',(0.,0.,-1.));
#1274=DIRECTION('',(-1.,0.,0.));
#1275=DIRECTION('',(0.,0.,1.));
#1276=DIRECTION('',(1.,0.,0.));
#1277=DIRECTION('',(1.98254111540206E-16,-1.,0.));
#1278=DIRECTION('',(0.,0.,1.));
#1279=DIRECTION('',(1.,0.,0.));
#1280=DIRECTION('',(0.,0.,1.));
#1281=DIRECTION('',(0.,0.,1.));
#1282=DIRECTION('',(-0.707106781186548,-1.40186826668194E-16,-0.707106781186547));
#1283=DIRECTION('',(-0.707106781186547,-1.40186826668194E-16,0.707106781186548));
#1284=DIRECTION('',(-0.707106781186548,-1.40186826668194E-16,-0.707106781186547));
#1285=DIRECTION('',(-0.707106781186547,-1.40186826668194E-16,0.707106781186548));
#1286=DIRECTION('',(1.,1.98254111540206E-16,0.));
#1287=DIRECTION('',(-1.98254111540206E-16,1.,0.));
#1288=DIRECTION('',(0.,0.,1.));
#1289=DIRECTION('',(-1.98254111540206E-16,1.,0.));
#1290=DIRECTION('',(1.,1.98254111540206E-16,0.));
#1291=DIRECTION('',(-1.98254111540206E-16,1.,0.));
#1292=DIRECTION('',(1.98254111540206E-16,-1.,0.));
#1293=DIRECTION('',(0.,0.,-1.));
#1294=DIRECTION('',(1.,1.98254111540206E-16,0.));
#1295=DIRECTION('',(-1.98254111540206E-16,1.,0.));
#1296=DIRECTION('',(-1.98254111540206E-16,1.,0.));
#1297=DIRECTION('',(0.,0.,-1.));
#1298=DIRECTION('',(1.,1.98254111540206E-16,0.));
#1299=DIRECTION('',(-1.98254111540206E-16,1.,0.));
#1300=DIRECTION('',(0.,0.,1.));
#1301=DIRECTION('',(1.98254111540206E-16,-1.,0.));
#1302=DIRECTION('',(-1.27553196763001E-16,1.,0.));
#1303=DIRECTION('',(-1.,-1.27553196763001E-16,0.));
#1304=DIRECTION('',(-1.,-1.27553196763001E-16,0.));
#1305=DIRECTION('',(0.,0.,1.));
#1306=DIRECTION('',(-1.,-1.27553196763001E-16,0.));
#1307=DIRECTION('',(0.,0.,1.));
#1308=DIRECTION('',(1.,0.,0.));
#1309=DIRECTION('',(0.,0.,-1.));
#1310=DIRECTION('',(0.,1.,0.));
#1311=DIRECTION('',(0.,0.,1.));
#1312=DIRECTION('',(0.,0.707106781186547,-0.707106781186548));
#1313=DIRECTION('',(0.,1.,0.));
#1314=DIRECTION('',(0.,1.,0.));
#1315=DIRECTION('',(0.,0.,1.));
#1316=DIRECTION('',(0.,0.,1.));
#1317=DIRECTION('',(1.,0.,0.));
#1318=DIRECTION('',(-1.,0.,0.));
#1319=DIRECTION('',(-1.,0.,0.));
#1320=DIRECTION('',(0.,0.,1.));
#1321=DIRECTION('',(0.,-1.,0.));
#1322=DIRECTION('',(0.,0.,1.));
#1323=DIRECTION('',(0.,-1.,0.));
#1324=DIRECTION('',(0.,-0.707106781186547,-0.707106781186548));
#1325=DIRECTION('',(0.,0.,1.));
#1326=DIRECTION('',(-1.27553196763001E-16,1.,0.));
#1327=DIRECTION('',(-1.,-1.27553196763001E-16,0.));
#1328=DIRECTION('',(-1.,-1.27553196763001E-16,0.));
#1329=DIRECTION('',(0.,0.,1.));
#1330=DIRECTION('',(-1.,-1.27553196763001E-16,0.));
#1331=DIRECTION('',(-1.,0.,0.));
#1332=DIRECTION('',(0.,0.,1.));
#1333=DIRECTION('',(0.,-1.,0.));
#1334=DIRECTION('',(0.,0.,1.));
#1335=DIRECTION('',(0.,0.707106781186547,0.707106781186548));
#1336=DIRECTION('',(0.,-1.,0.));
#1337=DIRECTION('',(1.,0.,0.));
#1338=DIRECTION('',(0.,0.,-1.));
#1339=DIRECTION('',(0.,0.,1.));
#1340=DIRECTION('',(0.,-1.,0.));
#1341=DIRECTION('',(0.,0.,1.));
#1342=DIRECTION('',(0.,1.,0.));
#1343=DIRECTION('',(0.,1.,0.));
#1344=DIRECTION('',(0.,0.,1.));
#1345=DIRECTION('',(-1.,0.,0.));
#1346=DIRECTION('',(0.,0.,1.));
#1347=DIRECTION('',(-1.,0.,0.));
#1348=DIRECTION('',(1.,0.,0.));
#1349=DIRECTION('',(0.,0.,-1.));
#1350=DIRECTION('',(0.,1.,0.));
#1351=DIRECTION('',(0.,0.,1.));
#1352=DIRECTION('',(0.,1.,0.));
#1353=DIRECTION('',(0.,1.,0.));
#1354=DIRECTION('',(0.,0.,1.));
#1355=DIRECTION('',(-1.,0.,0.));
#1356=DIRECTION('',(-1.,0.,0.));
#1357=DIRECTION('',(0.,1.,0.));
#1358=DIRECTION('',(0.,0.,1.));
#1359=DIRECTION('',(1.,0.,0.));
#1360=DIRECTION('',(-1.,0.,0.));
#1361=DIRECTION('',(1.,0.,0.));
#1362=DIRECTION('',(0.,0.,-1.));
#1363=DIRECTION('',(0.,1.,0.));
#1364=DIRECTION('',(0.,1.,0.));
#1365=DIRECTION('',(0.,-0.707106781186547,0.707106781186548));
#1366=DIRECTION('',(0.,0.,-1.));
#1367=DIRECTION('',(1.,0.,0.));
#1368=DIRECTION('',(1.,0.,0.));
#1369=DIRECTION('',(-1.,0.,0.));
#1370=DIRECTION('',(0.,0.,-1.));
#1371=DIRECTION('',(1.,0.,0.));
#1372=DIRECTION('',(0.,0.,-1.));
#1373=DIRECTION('',(1.,0.,0.));
#1374=DIRECTION('',(-0.707106781186548,0.,0.707106781186547));
#1375=DIRECTION('',(0.,1.,0.));
#1376=DIRECTION('',(-0.577350269189625,-0.577350269189626,-0.577350269189626));
#1377=DIRECTION('',(0.577350269189625,-0.577350269189626,0.577350269189626));
#1378=DIRECTION('',(0.,-0.707106781186548,-0.707106781186547));
#1379=DIRECTION('',(1.,0.,0.));
#1380=DIRECTION('',(0.577350269189625,0.577350269189626,-0.577350269189626));
#1381=DIRECTION('',(0.,-0.707106781186548,0.707106781186547));
#1382=DIRECTION('',(-1.,0.,0.));
#1383=DIRECTION('',(0.577350269189625,-0.577350269189626,-0.577350269189626));
#1384=DIRECTION('',(-0.707106781186548,0.,-0.707106781186547));
#1385=DIRECTION('',(0.,-1.,0.));
#1386=DIRECTION('',(0.,-0.707106781186548,-0.707106781186547));
#1387=DIRECTION('',(1.,0.,0.));
#1388=DIRECTION('',(0.,-0.707106781186548,0.707106781186547));
#1389=DIRECTION('',(-1.,0.,0.));
#1390=DIRECTION('',(-0.707106781186548,-1.40186826668194E-16,0.707106781186548));
#1391=DIRECTION('',(-1.98254111540206E-16,1.,0.));
#1392=DIRECTION('',(0.707106781186548,0.,0.707106781186548));
#1393=DIRECTION('',(-0.308140736052652,0.951340783728381,0.));
#1394=DIRECTION('',(0.,0.,1.));
#1395=DIRECTION('',(0.585658671830905,0.396237201823932,-0.707106781186548));
#1396=DIRECTION('',(0.,0.,1.));
#1397=DIRECTION('',(1.,0.,0.));
#1398=DIRECTION('',(-0.585658671830905,0.396237201823932,0.707106781186548));
#1399=DIRECTION('',(0.308140736052659,0.951340783728379,0.));
#1400=DIRECTION('',(0.,0.,1.));
#1401=DIRECTION('',(-0.707106781186548,0.,-0.707106781186548));
#1402=DIRECTION('',(-0.707106781186548,-1.40186826668194E-16,0.707106781186548));
#1403=DIRECTION('',(-1.98254111540206E-16,1.,0.));
#1404=DIRECTION('',(0.30814073605266,0.951340783728378,0.));
#1405=DIRECTION('',(0.,0.,1.));
#1406=DIRECTION('',(-0.707106781186548,-1.40186826668194E-16,-0.707106781186547));
#1407=DIRECTION('',(1.98254111540206E-16,-1.,0.));
#1408=DIRECTION('',(0.707106781186547,0.,-0.707106781186548));
#1409=DIRECTION('',(0.585658671830906,-0.396237201823932,0.707106781186547));
#1410=DIRECTION('',(-0.308140736052659,0.951340783728379,0.));
#1411=DIRECTION('',(0.,0.,1.));
#1412=DIRECTION('',(0.,0.,1.));
#1413=DIRECTION('',(1.,0.,0.));
#1414=DIRECTION('',(-0.585658671830905,-0.396237201823932,-0.707106781186548));
#1415=DIRECTION('',(-0.707106781186547,0.,0.707106781186548));
#1416=DIRECTION('',(-0.707106781186548,-1.40186826668194E-16,-0.707106781186547));
#1417=DIRECTION('',(1.98254111540206E-16,-1.,0.));
#1418=CARTESIAN_POINT('',(0.,0.,0.));
#1419=CARTESIAN_POINT('',(-0.0199,0.,0.04));
#1420=CARTESIAN_POINT('',(-0.0199,0.00605,0.04));
#1421=CARTESIAN_POINT('',(0.00505,0.00605,0.04));
#1422=CARTESIAN_POINT('',(-0.00505,0.00605,0.04));
#1423=CARTESIAN_POINT('',(-0.00505,-0.00505,0.04));
#1424=CARTESIAN_POINT('',(-0.00505,-0.00605,0.04));
#1425=CARTESIAN_POINT('',(0.00405,-0.00605,0.04));
#1426=CARTESIAN_POINT('',(0.00505,-0.00605,0.04));
#1427=CARTESIAN_POINT('',(0.00505,0.,0.04));
#1428=CARTESIAN_POINT('',(0.,0.,0.04));
#1429=CARTESIAN_POINT('',(0.024,0.,0.04));
#1430=CARTESIAN_POINT('',(0.,0.,0.04));
#1431=CARTESIAN_POINT('',(0.0139145401352946,-0.00941411561556766,0.04));
#1432=CARTESIAN_POINT('',(0.0139145401352946,0.00941411561556766,0.04));
#1433=CARTESIAN_POINT('',(0.0115,0.00866385016440134,0.04));
#1434=CARTESIAN_POINT('',(0.0123048467117649,0.00891393864812345,0.04));
#1435=CARTESIAN_POINT('',(0.0131096934235297,0.00916402713184555,0.04));
#1436=CARTESIAN_POINT('',(0.0139145401352946,0.00941411561556766,0.04));
#1437=CARTESIAN_POINT('',(0.0115,0.00866385016440134,0.04));
#1438=CARTESIAN_POINT('',(0.0115,0.00357071421427141,0.04));
#1439=CARTESIAN_POINT('',(0.0115,0.00606217782649107,0.04));
#1440=CARTESIAN_POINT('',(0.,0.,0.04));
#1441=CARTESIAN_POINT('',(0.0115,-0.00606217782649106,0.04));
#1442=CARTESIAN_POINT('',(0.0115,-0.00966385016440134,0.04));
#1443=CARTESIAN_POINT('',(0.0115,-0.00866385016440134,0.04));
#1444=CARTESIAN_POINT('',(0.0139145401352946,-0.00941411561556766,0.04));
#1445=CARTESIAN_POINT('',(0.0131096934235297,-0.00916402713184556,0.04));
#1446=CARTESIAN_POINT('',(0.0123048467117649,-0.00891393864812345,0.04));
#1447=CARTESIAN_POINT('',(0.0115,-0.00866385016440134,0.04));
#1448=CARTESIAN_POINT('',(0.,0.,0.04));
#1449=CARTESIAN_POINT('',(-0.0139145401352946,0.00941411561556766,0.04));
#1450=CARTESIAN_POINT('',(-0.0139145401352946,-0.00941411561556767,0.04));
#1451=CARTESIAN_POINT('',(-0.0115,-0.00866385016440135,0.04));
#1452=CARTESIAN_POINT('',(-0.0123048467117649,-0.00891393864812346,0.04));
#1453=CARTESIAN_POINT('',(-0.0131096934235297,-0.00916402713184556,0.04));
#1454=CARTESIAN_POINT('',(-0.0139145401352946,-0.00941411561556767,0.04));
#1455=CARTESIAN_POINT('',(-0.0115,-0.00866385016440135,0.04));
#1456=CARTESIAN_POINT('',(-0.0115,1.66533453693773E-18,0.04));
#1457=CARTESIAN_POINT('',(-0.0115,-0.00606217782649108,0.04));
#1458=CARTESIAN_POINT('',(0.,0.,0.04));
#1459=CARTESIAN_POINT('',(-0.0115,0.00606217782649107,0.04));
#1460=CARTESIAN_POINT('',(-0.0115,1.66533453693773E-18,0.04));
#1461=CARTESIAN_POINT('',(-0.0115,0.00866385016440134,0.04));
#1462=CARTESIAN_POINT('',(-0.0139145401352946,0.00941411561556766,0.04));
#1463=CARTESIAN_POINT('',(-0.0131096934235297,0.00916402713184556,0.04));
#1464=CARTESIAN_POINT('',(-0.0123048467117649,0.00891393864812345,0.04));
#1465=CARTESIAN_POINT('',(-0.0115,0.00866385016440134,0.04));
#1466=CARTESIAN_POINT('',(0.,0.,0.043));
#1467=CARTESIAN_POINT('',(0.,0.,0.039));
#1468=CARTESIAN_POINT('',(-0.0130862936986699,-0.0088537515908315,0.039));
#1469=CARTESIAN_POINT('',(-0.0130862936986699,0.00885375159083149,0.039));
#1470=CARTESIAN_POINT('',(-0.0130862936986699,0.00885375159083149,0.043));
#1471=CARTESIAN_POINT('',(-0.0130862936986699,0.00885375159083149,0.0334));
#1472=CARTESIAN_POINT('',(0.,0.,0.0334));
#1473=CARTESIAN_POINT('',(-0.0130862936986699,-0.0088537515908315,0.0334));
#1474=CARTESIAN_POINT('',(-0.0130862936986699,-0.00885375159083149,0.043));
#1475=CARTESIAN_POINT('',(-0.0154,0.,0.0334));
#1476=CARTESIAN_POINT('',(-0.0125848625528717,0.00869133727517433,0.0334));
#1477=CARTESIAN_POINT('',(-0.0125,0.00866385016440134,0.0334));
#1478=CARTESIAN_POINT('',(-0.0125,5.74936923466599E-19,0.0334));
#1479=CARTESIAN_POINT('',(-0.0125,0.00829156197588849,0.0334));
#1480=CARTESIAN_POINT('',(0.,0.,0.0334));
#1481=CARTESIAN_POINT('',(-0.0125,-0.0082915619758885,0.0334));
#1482=CARTESIAN_POINT('',(-0.0125,5.74936923466599E-19,0.0334));
#1483=CARTESIAN_POINT('',(-0.0125,-0.00866385016440135,0.0334));
#1484=CARTESIAN_POINT('',(-0.0125848625528718,-0.00869133727517436,0.0334));
#1485=CARTESIAN_POINT('',(0.,0.,0.043));
#1486=CARTESIAN_POINT('',(-0.0125,0.00829156197588849,0.043));
#1487=CARTESIAN_POINT('',(-0.0125,0.00829156197588849,0.0301964077060091));
#1488=CARTESIAN_POINT('',(-0.0124999997306809,0.00829156238190233,0.0301964068628277));
#1489=CARTESIAN_POINT('',(-0.0127032547377415,0.00798514395115371,0.0299839371266133));
#1490=CARTESIAN_POINT('',(-0.0128932312458898,0.00767427633812599,0.0297851348390041));
#1491=CARTESIAN_POINT('',(-0.0130701002003907,0.0073601957006418,0.0296));
#1492=CARTESIAN_POINT('',(-0.0130701002003907,0.00736019570064179,0.0296));
#1493=CARTESIAN_POINT('',(0.,0.,0.0296));
#1494=CARTESIAN_POINT('',(-0.0125,-0.0082915619758885,0.0296));
#1495=CARTESIAN_POINT('',(-0.0125,-0.0082915619758885,0.043));
#1496=CARTESIAN_POINT('',(0.,0.,0.0296));
#1497=CARTESIAN_POINT('',(-0.0130701002003907,0.00736019570064179,0.0296));
#1498=CARTESIAN_POINT('',(-0.0132015762502059,0.0073984549385442,0.0295066389658069));
#1499=CARTESIAN_POINT('',(-0.0133333755433732,0.00743594208744803,0.0294132779316138));
#1500=CARTESIAN_POINT('',(-0.013465490993319,0.0074726538892623,0.0293199168974206));
#1501=CARTESIAN_POINT('',(-0.0134654912598708,0.00747265315201652,0.0293199169847161));
#1502=CARTESIAN_POINT('',(0.,0.,0.0293199169847161));
#1503=CARTESIAN_POINT('',(-0.0125,-0.00899499861033896,0.0293199169847161));
#1504=CARTESIAN_POINT('',(-0.0125,-0.00899499861033896,0.0293199169847161));
#1505=CARTESIAN_POINT('',(-0.0125,-0.00876107966718438,0.0294155862755791));
#1506=CARTESIAN_POINT('',(-0.0125,-0.00852661851633193,0.0295090203599943));
#1507=CARTESIAN_POINT('',(-0.0125,-0.0082915619758885,0.0296));
#1508=CARTESIAN_POINT('',(0.,0.,0.0293199169847161));
#1509=CARTESIAN_POINT('',(-0.0134654938739236,0.00747264606887141,0.029319916581634));
#1510=CARTESIAN_POINT('',(-0.0134698256887305,0.00684367070393561,0.0292143902902874));
#1511=CARTESIAN_POINT('',(-0.0134739129065301,0.00622578024627991,0.0291210302632527));
#1512=CARTESIAN_POINT('',(-0.0134776076864194,0.00561376007274043,0.0290398365005299));
#1513=CARTESIAN_POINT('',(-0.0134782414856064,0.00561221939030729,0.0290398339694322));
#1514=CARTESIAN_POINT('',(0.,0.,0.0290398339694322));
#1515=CARTESIAN_POINT('',(-0.0125,-0.0075438716850169,0.0290398339694322));
#1516=CARTESIAN_POINT('',(-0.0125,-0.0075438716850169,0.0290398339694322));
#1517=CARTESIAN_POINT('',(-0.0125,-0.00802863240663883,0.0291275271145986));
#1518=CARTESIAN_POINT('',(-0.0125,-0.00851228253989528,0.0292212052183137));
#1519=CARTESIAN_POINT('',(-0.0125,-0.00899499861033897,0.0293199169847161));
#1520=CARTESIAN_POINT('',(-0.0138,0.,0.0290398339694323));
#1521=CARTESIAN_POINT('',(-0.0134773857578553,0.00561236801973754,0.0290398339694323));
#1522=CARTESIAN_POINT('',(-0.0134136556619558,0.00524544464831275,0.0290398339694323));
#1523=CARTESIAN_POINT('',(-0.0132969354890117,0.00452303987342119,0.0290398339694323));
#1524=CARTESIAN_POINT('',(-0.013122915289394,0.00317997477152231,0.0290398339694322));
#1525=CARTESIAN_POINT('',(-0.0130036597122671,0.00209791844470727,0.0290398339694323));
#1526=CARTESIAN_POINT('',(-0.0129251781484014,0.00139275619980183,0.0290398339694323));
#1527=CARTESIAN_POINT('',(-0.0129251781484014,0.00139275619980183,0.0290398339694323));
#1528=CARTESIAN_POINT('',(0.,0.,0.0290398339694323));
#1529=CARTESIAN_POINT('',(-0.0125,-0.00357071421427142,0.0290398339694323));
#1530=CARTESIAN_POINT('',(-0.0125,2.5773034500227E-19,0.0290398339694323));
#1531=CARTESIAN_POINT('',(0.,0.,0.043));
#1532=CARTESIAN_POINT('',(-0.0129251781484014,0.00139275619980182,0.0290398339694322));
#1533=CARTESIAN_POINT('',(-0.012842568142521,0.00215940081642367,0.0291622099604101));
#1534=CARTESIAN_POINT('',(-0.0126950434692848,0.00288792551426233,0.0293250633100866));
#1535=CARTESIAN_POINT('',(-0.0124999999808169,0.00357071428142583,0.0295283940184619));
#1536=CARTESIAN_POINT('',(-0.0125,0.00357071421427141,0.0295283942623696));
#1537=CARTESIAN_POINT('',(-0.0125,0.00357071421427141,0.043));
#1538=CARTESIAN_POINT('',(-0.0125,0.00357071421427141,0.039));
#1539=CARTESIAN_POINT('',(0.,0.,0.0515));
#1540=CARTESIAN_POINT('',(0.,0.,0.0515));
#1541=CARTESIAN_POINT('',(-0.0125,-0.00357071421427142,0.039));
#1542=CARTESIAN_POINT('',(-0.0125,-0.00357071421427142,0.043));
#1543=CARTESIAN_POINT('',(-0.0145,0.,0.046));
#1544=CARTESIAN_POINT('',(0.,0.,0.046));
#1545=CARTESIAN_POINT('',(0.029,0.,0.046));
#1546=CARTESIAN_POINT('',(0.,0.,0.045));
#1547=CARTESIAN_POINT('',(0.,0.,0.045));
#1548=CARTESIAN_POINT('',(0.03,0.,0.045));
#1549=CARTESIAN_POINT('',(0.,0.,0.043));
#1550=CARTESIAN_POINT('',(0.,0.,0.0345));
#1551=CARTESIAN_POINT('',(0.03,0.,0.0345));
#1552=CARTESIAN_POINT('',(0.,0.,0.0345));
#1553=CARTESIAN_POINT('',(0.,0.,0.034));
#1554=CARTESIAN_POINT('',(0.0295,0.,0.034));
#1555=CARTESIAN_POINT('',(-0.027,0.,0.034));
#1556=CARTESIAN_POINT('',(0.,0.,0.034));
#1557=CARTESIAN_POINT('',(0.0245,0.,0.034));
#1558=CARTESIAN_POINT('',(0.,0.,0.034));
#1559=CARTESIAN_POINT('',(0.,0.,0.0345));
#1560=CARTESIAN_POINT('',(0.024,0.,0.0345));
#1561=CARTESIAN_POINT('',(0.,0.,0.043));
#1562=CARTESIAN_POINT('',(0.,0.,0.043));
#1563=CARTESIAN_POINT('',(0.,0.,0.0334));
#1564=CARTESIAN_POINT('',(0.0130862936986699,-0.00885375159083149,0.0334));
#1565=CARTESIAN_POINT('',(0.0130862936986699,0.00885375159083149,0.0334));
#1566=CARTESIAN_POINT('',(0.0130862936986699,0.00885375159083149,0.043));
#1567=CARTESIAN_POINT('',(0.0130862936986699,0.00885375159083149,0.039));
#1568=CARTESIAN_POINT('',(0.,0.,0.039));
#1569=CARTESIAN_POINT('',(0.0130862936986699,-0.00885375159083149,0.039));
#1570=CARTESIAN_POINT('',(0.0130862936986699,-0.00885375159083148,0.043));
#1571=CARTESIAN_POINT('',(-0.0154,0.,0.0334));
#1572=CARTESIAN_POINT('',(0.0125,5.53128971197176E-18,0.0334));
#1573=CARTESIAN_POINT('',(0.0125,0.00866385016440134,0.0334));
#1574=CARTESIAN_POINT('',(0.0125,0.00829156197588849,0.0334));
#1575=CARTESIAN_POINT('',(-0.015290655480104,-0.000337585684342928,0.0334));
#1576=CARTESIAN_POINT('',(-0.015290655480104,0.000337585684342953,0.0334));
#1577=CARTESIAN_POINT('',(0.0125,-0.00866385016440134,0.0334));
#1578=CARTESIAN_POINT('',(0.0125,5.53128971197176E-18,0.0334));
#1579=CARTESIAN_POINT('',(0.0125,-0.00829156197588849,0.0334));
#1580=CARTESIAN_POINT('',(0.,0.,0.0334));
#1581=CARTESIAN_POINT('',(0.,0.,0.043));
#1582=CARTESIAN_POINT('',(0.,0.,0.0296));
#1583=CARTESIAN_POINT('',(0.0125,-0.00829156197588849,0.0296));
#1584=CARTESIAN_POINT('',(0.0130701002003907,0.0073601957006418,0.0296));
#1585=CARTESIAN_POINT('',(0.0130701002003907,0.0073601957006418,0.0296));
#1586=CARTESIAN_POINT('',(0.0128932312241249,0.00767427637677571,0.0297851348617862));
#1587=CARTESIAN_POINT('',(0.0127032547132224,0.00798514398811758,0.0299839371493954));
#1588=CARTESIAN_POINT('',(0.0124999997306809,0.00829156238190234,0.0301964068628277));
#1589=CARTESIAN_POINT('',(0.0125,0.00829156197588849,0.0301964077060091));
#1590=CARTESIAN_POINT('',(0.0125,0.00829156197588849,0.043));
#1591=CARTESIAN_POINT('',(0.0125,-0.00829156197588849,0.043));
#1592=CARTESIAN_POINT('',(0.,0.,0.0296));
#1593=CARTESIAN_POINT('',(0.,0.,0.0293199169847161));
#1594=CARTESIAN_POINT('',(0.0125,-0.00899499861033896,0.0293199169847161));
#1595=CARTESIAN_POINT('',(0.0134648590171921,0.00747379232032805,0.0293199169847102));
#1596=CARTESIAN_POINT('',(0.0134652907596009,0.0074725982483218,0.0293200583952516));
#1597=CARTESIAN_POINT('',(0.013333242373591,0.00743590421028147,0.0294133722635011));
#1598=CARTESIAN_POINT('',(0.0132015098285771,0.00739843560999807,0.0295066861317505));
#1599=CARTESIAN_POINT('',(0.0130701002003907,0.0073601957006418,0.0296));
#1600=CARTESIAN_POINT('',(0.0125,-0.00899499861033897,0.0293199169847161));
#1601=CARTESIAN_POINT('',(0.0125,-0.00876107966718438,0.0294155862755791));
#1602=CARTESIAN_POINT('',(0.0125,-0.00852661851633192,0.0295090203599943));
#1603=CARTESIAN_POINT('',(0.0125,-0.00829156197588849,0.0296));
#1604=CARTESIAN_POINT('',(0.,0.,0.0293199169847161));
#1605=CARTESIAN_POINT('',(0.,0.,0.0290398339694322));
#1606=CARTESIAN_POINT('',(0.0125,-0.00754387168501689,0.0290398339694322));
#1607=CARTESIAN_POINT('',(0.0134776026478453,0.00561375567061716,0.0290398430300318));
#1608=CARTESIAN_POINT('',(0.0134776076864194,0.00561376007274045,0.0290398365005299));
#1609=CARTESIAN_POINT('',(0.0134739129065302,0.00622578024627993,0.0291210302632527));
#1610=CARTESIAN_POINT('',(0.0134698256887305,0.00684367070393562,0.0292143902902874));
#1611=CARTESIAN_POINT('',(0.0134654938739236,0.00747264606887139,0.029319916581634));
#1612=CARTESIAN_POINT('',(0.0125,-0.00754387168501689,0.0290398339694322));
#1613=CARTESIAN_POINT('',(0.0125,-0.00802863240663882,0.0291275271145986));
#1614=CARTESIAN_POINT('',(0.0125,-0.00851228253989527,0.0292212052183137));
#1615=CARTESIAN_POINT('',(0.0125,-0.00899499861033896,0.0293199169847161));
#1616=CARTESIAN_POINT('',(-0.0138,0.,0.0290398339694323));
#1617=CARTESIAN_POINT('',(0.,0.,0.0290398339694323));
#1618=CARTESIAN_POINT('',(0.0125,-0.0035707142142714,0.0290398339694323));
#1619=CARTESIAN_POINT('',(0.0129251781484014,0.00139275619980185,0.0290398339694323));
#1620=CARTESIAN_POINT('',(0.0129251781484015,0.00139275619980185,0.0290398339694323));
#1621=CARTESIAN_POINT('',(0.0129660729839373,0.00174522840365003,0.0290398339694323));
#1622=CARTESIAN_POINT('',(0.0130272329987727,0.00227655452984929,0.0290398339694322));
#1623=CARTESIAN_POINT('',(0.0131073941532313,0.00297476055586519,0.0290398339694323));
#1624=CARTESIAN_POINT('',(0.0131688643631853,0.00352422957045973,0.0290398339694323));
#1625=CARTESIAN_POINT('',(0.0132235154768315,0.0039757974819735,0.0290398339694322));
#1626=CARTESIAN_POINT('',(0.0133198350822303,0.00466568511303342,0.0290398339694323));
#1627=CARTESIAN_POINT('',(0.0134093048211998,0.00522046699182992,0.0290398339694323));
#1628=CARTESIAN_POINT('',(0.0134776260905534,0.00561375159815829,0.0290398339694323));
#1629=CARTESIAN_POINT('',(0.0125,5.21408313350743E-18,0.0290398339694323));
#1630=CARTESIAN_POINT('',(0.,0.,0.043));
#1631=CARTESIAN_POINT('',(0.0125,0.00357071421427141,0.043));
#1632=CARTESIAN_POINT('',(0.0125,0.00357071421427141,0.0295283947561941));
#1633=CARTESIAN_POINT('',(0.0125,0.00357071421427141,0.039));
#1634=CARTESIAN_POINT('',(0.012499999944921,0.00357071440708637,0.0295283940558829));
#1635=CARTESIAN_POINT('',(0.0126950434565207,0.00288792558493527,0.029325063326988));
#1636=CARTESIAN_POINT('',(0.0128425681395321,0.00215940084416148,0.0291622099648378));
#1637=CARTESIAN_POINT('',(0.0129251781484014,0.00139275619980185,0.0290398339694322));
#1638=CARTESIAN_POINT('',(0.0125,-0.0035707142142714,0.043));
#1639=CARTESIAN_POINT('',(0.0125,-0.0035707142142714,0.039));
#1640=CARTESIAN_POINT('',(0.,0.,0.0515));
#1641=CARTESIAN_POINT('',(0.,0.,0.0515));
#1642=CARTESIAN_POINT('',(0.0125,0.,0.015));
#1643=CARTESIAN_POINT('',(0.0125,-0.00866385016440134,0.04));
#1644=CARTESIAN_POINT('',(0.0125,-0.00866385016440134,0.039));
#1645=CARTESIAN_POINT('',(0.0125,-0.0035707142142714,0.039));
#1646=CARTESIAN_POINT('',(-0.0125,0.,0.015));
#1647=CARTESIAN_POINT('',(-0.0125,0.,0.039));
#1648=CARTESIAN_POINT('',(-0.0125,-0.00866385016440135,0.039));
#1649=CARTESIAN_POINT('',(-0.0125,-0.00866385016440135,0.015));
#1650=CARTESIAN_POINT('',(0.0125,0.,0.015));
#1651=CARTESIAN_POINT('',(0.0125,0.00829156217782825,0.0301964066188075));
#1652=CARTESIAN_POINT('',(0.0125,0.00661436517848282,0.0298848797990461));
#1653=CARTESIAN_POINT('',(0.0125,0.00504075015701778,0.0296622090135669));
#1654=CARTESIAN_POINT('',(0.0125,0.00357071711343315,0.0295283942623697));
#1655=CARTESIAN_POINT('',(0.0125,0.00966385016440134,0.039));
#1656=CARTESIAN_POINT('',(0.0125,0.00866385016440134,0.039));
#1657=CARTESIAN_POINT('',(0.0125,0.00866385016440134,0.0334));
#1658=CARTESIAN_POINT('',(-0.0125,0.,0.015));
#1659=CARTESIAN_POINT('',(-0.0125,0.00357071711343315,0.0295283942623696));
#1660=CARTESIAN_POINT('',(-0.0125,0.00504075015701774,0.0296622090135669));
#1661=CARTESIAN_POINT('',(-0.0125,0.00661436517848277,0.0298848797990461));
#1662=CARTESIAN_POINT('',(-0.0125,0.00829156217782825,0.0301964066188075));
#1663=CARTESIAN_POINT('',(-0.0125,0.00866385016440134,0.015));
#1664=CARTESIAN_POINT('',(-0.0125,0.00866385016440134,0.039));
#1665=CARTESIAN_POINT('',(-0.0125,0.,0.039));
#1666=CARTESIAN_POINT('',(4.33680868994202E-19,0.00075,0.031));
#1667=CARTESIAN_POINT('',(4.33680868994202E-19,0.00075,0.036));
#1668=CARTESIAN_POINT('',(0.00255,0.00075,0.036));
#1669=CARTESIAN_POINT('',(-0.00255,0.00075,0.036));
#1670=CARTESIAN_POINT('',(0.00255,0.00075,0.031));
#1671=CARTESIAN_POINT('',(0.00255,0.00075,0.031));
#1672=CARTESIAN_POINT('',(4.33680868994202E-19,0.00075,0.031));
#1673=CARTESIAN_POINT('',(-0.00255,0.00075,0.031));
#1674=CARTESIAN_POINT('',(-0.00255,0.00075,0.031));
#1675=CARTESIAN_POINT('',(0.00255,0.00215,0.031));
#1676=CARTESIAN_POINT('',(0.00255,0.00215,0.036));
#1677=CARTESIAN_POINT('',(0.00255,0.00355,0.036));
#1678=CARTESIAN_POINT('',(0.00255,0.00355,0.031));
#1679=CARTESIAN_POINT('',(0.00255,0.00355,0.032));
#1680=CARTESIAN_POINT('',(0.00255,0.00335,0.0322));
#1681=CARTESIAN_POINT('',(0.00255,0.00455,0.031));
#1682=CARTESIAN_POINT('',(0.00255,0.00215,0.031));
#1683=CARTESIAN_POINT('',(0.,0.00355,0.031));
#1684=CARTESIAN_POINT('',(-0.00255,0.00355,0.031));
#1685=CARTESIAN_POINT('',(-0.00255,0.00355,0.032));
#1686=CARTESIAN_POINT('',(-0.00255,0.00355,0.036));
#1687=CARTESIAN_POINT('',(0.00255,0.00355,0.032));
#1688=CARTESIAN_POINT('',(0.,0.00355,0.036));
#1689=CARTESIAN_POINT('',(0.00255,-0.00215,0.031));
#1690=CARTESIAN_POINT('',(0.00255,-0.00215,0.036));
#1691=CARTESIAN_POINT('',(0.00255,-0.00075,0.036));
#1692=CARTESIAN_POINT('',(0.00255,-0.00355,0.036));
#1693=CARTESIAN_POINT('',(0.00255,-0.00075,0.031));
#1694=CARTESIAN_POINT('',(0.00255,-0.00075,0.031));
#1695=CARTESIAN_POINT('',(0.00255,-0.00215,0.031));
#1696=CARTESIAN_POINT('',(0.00255,-0.00455,0.031));
#1697=CARTESIAN_POINT('',(0.00255,-0.00355,0.032));
#1698=CARTESIAN_POINT('',(0.00255,-0.00355,0.032));
#1699=CARTESIAN_POINT('',(0.00255,-0.00355,0.031));
#1700=CARTESIAN_POINT('',(4.33680868994202E-19,-0.00075,0.031));
#1701=CARTESIAN_POINT('',(4.33680868994202E-19,-0.00075,0.036));
#1702=CARTESIAN_POINT('',(-0.00255,-0.00075,0.036));
#1703=CARTESIAN_POINT('',(-0.00255,-0.00075,0.031));
#1704=CARTESIAN_POINT('',(-0.00255,-0.00075,0.031));
#1705=CARTESIAN_POINT('',(4.33680868994202E-19,-0.00075,0.031));
#1706=CARTESIAN_POINT('',(-0.00255,-0.00215,0.031));
#1707=CARTESIAN_POINT('',(-0.00255,-0.00215,0.036));
#1708=CARTESIAN_POINT('',(-0.00255,-0.00355,0.036));
#1709=CARTESIAN_POINT('',(-0.00255,-0.00355,0.031));
#1710=CARTESIAN_POINT('',(-0.00255,-0.00355,0.032));
#1711=CARTESIAN_POINT('',(-0.00255,-0.00335,0.0322));
#1712=CARTESIAN_POINT('',(-0.00255,-0.00455,0.031));
#1713=CARTESIAN_POINT('',(-0.00255,-0.00215,0.031));
#1714=CARTESIAN_POINT('',(0.00405,0.,0.031));
#1715=CARTESIAN_POINT('',(0.00405,0.00505,0.031));
#1716=CARTESIAN_POINT('',(0.00405,0.00505,0.031));
#1717=CARTESIAN_POINT('',(0.00405,0.00505,0.039));
#1718=CARTESIAN_POINT('',(0.00405,0.,0.039));
#1719=CARTESIAN_POINT('',(0.00405,-0.00505,0.039));
#1720=CARTESIAN_POINT('',(0.00405,-0.00505,0.031));
#1721=CARTESIAN_POINT('',(0.00405,-0.00505,0.031));
#1722=CARTESIAN_POINT('',(0.00405,0.,0.031));
#1723=CARTESIAN_POINT('',(0.,-0.00505,0.031));
#1724=CARTESIAN_POINT('',(-0.00405,-0.00505,0.039));
#1725=CARTESIAN_POINT('',(-0.00405,-0.00505,0.039));
#1726=CARTESIAN_POINT('',(-0.00405,-0.00505,0.031));
#1727=CARTESIAN_POINT('',(-0.00405,-0.00505,0.031));
#1728=CARTESIAN_POINT('',(0.,-0.00505,0.031));
#1729=CARTESIAN_POINT('',(-0.00405,0.,0.031));
#1730=CARTESIAN_POINT('',(-0.00405,0.00505,0.039));
#1731=CARTESIAN_POINT('',(-0.00405,0.00505,0.039));
#1732=CARTESIAN_POINT('',(-0.00405,0.00505,0.031));
#1733=CARTESIAN_POINT('',(-0.00405,0.00505,0.031));
#1734=CARTESIAN_POINT('',(-0.00405,0.,0.031));
#1735=CARTESIAN_POINT('',(0.,-0.00355,0.031));
#1736=CARTESIAN_POINT('',(0.,-0.00355,0.032));
#1737=CARTESIAN_POINT('',(0.,-0.00355,0.036));
#1738=CARTESIAN_POINT('',(0.,0.00505,0.031));
#1739=CARTESIAN_POINT('',(0.,0.00505,0.039));
#1740=CARTESIAN_POINT('',(0.,0.00505,0.031));
#1741=CARTESIAN_POINT('',(-0.00255,0.00215,0.031));
#1742=CARTESIAN_POINT('',(-0.00255,0.00215,0.036));
#1743=CARTESIAN_POINT('',(-0.00255,0.00215,0.031));
#1744=CARTESIAN_POINT('',(-0.00255,0.00455,0.031));
#1745=CARTESIAN_POINT('',(-0.00255,0.00455,0.031));
#1746=CARTESIAN_POINT('',(0.,0.,0.031));
#1747=CARTESIAN_POINT('',(0.,-0.00455,0.031));
#1748=CARTESIAN_POINT('',(-0.00255,0.00455,0.031));
#1749=CARTESIAN_POINT('',(0.,0.,0.036));
#1750=CARTESIAN_POINT('',(0.,0.,0.036));
#1751=CARTESIAN_POINT('',(0.00505,0.,0.04));
#1752=CARTESIAN_POINT('',(-0.00326666666666666,-0.00226666666666666,0.0316833333333333));
#1753=CARTESIAN_POINT('',(0.00303333333333333,-0.00403333333333333,0.0379833333333333));
#1754=CARTESIAN_POINT('',(0.,-0.00505,0.039));
#1755=CARTESIAN_POINT('',(-0.0027,-0.0037,0.03765));
#1756=CARTESIAN_POINT('',(-0.0199,0.00605,0.04));
#1757=CARTESIAN_POINT('',(-0.01,0.011,0.04495));
#1758=CARTESIAN_POINT('',(-0.00405,0.,0.039));
#1759=CARTESIAN_POINT('',(0.,0.00455,0.031));
#1760=CARTESIAN_POINT('',(0.,-0.00355,0.032));
#1761=CARTESIAN_POINT('',(-0.0115,1.66533453693773E-18,0.04));
#1762=CARTESIAN_POINT('',(-0.0125,-0.00866385016440135,0.039));
#1763=CARTESIAN_POINT('',(-0.0130862936986699,-0.0088537515908315,0.043));
#1764=CARTESIAN_POINT('',(-0.0130862936986699,-0.0088537515908315,0.039));
#1765=CARTESIAN_POINT('',(-0.01289086246578,-0.00879045111535479,0.039));
#1766=CARTESIAN_POINT('',(-0.01269543123289,-0.00872715063987806,0.039));
#1767=CARTESIAN_POINT('',(-0.0125,-0.00866385016440135,0.039));
#1768=CARTESIAN_POINT('',(-0.0130862936986699,-0.0088537515908315,0.039));
#1769=CARTESIAN_POINT('',(-0.0125,-0.00866385016440135,0.039));
#1770=CARTESIAN_POINT('',(-0.0139145401352946,-0.00941411561556767,0.04));
#1771=CARTESIAN_POINT('',(-0.0115,-0.00866385016440135,0.04));
#1772=CARTESIAN_POINT('',(-0.0139145401352946,-0.00941411561556767,0.04));
#1773=CARTESIAN_POINT('',(0.,0.,0.04));
#1774=CARTESIAN_POINT('',(-0.0130862936986699,0.00885375159083149,0.039));
#1775=CARTESIAN_POINT('',(-0.0130862936986699,0.00885375159083149,0.043));
#1776=CARTESIAN_POINT('',(-0.0125,0.00866385016440134,0.039));
#1777=CARTESIAN_POINT('',(-0.01269543123289,0.00872715063987805,0.039));
#1778=CARTESIAN_POINT('',(-0.01289086246578,0.00879045111535478,0.039));
#1779=CARTESIAN_POINT('',(-0.0130862936986699,0.00885375159083149,0.039));
#1780=CARTESIAN_POINT('',(-0.0125,0.00866385016440134,0.039));
#1781=CARTESIAN_POINT('',(-0.0130862936986699,0.00885375159083149,0.039));
#1782=CARTESIAN_POINT('',(-0.0115,0.00866385016440134,0.04));
#1783=CARTESIAN_POINT('',(-0.0139145401352946,0.00941411561556766,0.04));
#1784=CARTESIAN_POINT('',(-0.0115,0.00866385016440134,0.04));
#1785=CARTESIAN_POINT('',(-0.0115,1.66533453693773E-18,0.04));
#1786=CARTESIAN_POINT('',(0.0125,-0.00866385016440134,0.043));
#1787=CARTESIAN_POINT('',(0.0125,-0.00866385016440134,0.039));
#1788=CARTESIAN_POINT('',(0.01269543123289,-0.00872715063987805,0.039));
#1789=CARTESIAN_POINT('',(0.01289086246578,-0.00879045111535478,0.039));
#1790=CARTESIAN_POINT('',(0.0130862936986699,-0.00885375159083149,0.039));
#1791=CARTESIAN_POINT('',(0.0125,0.,0.039));
#1792=CARTESIAN_POINT('',(0.0115,-0.00866385016440134,0.04));
#1793=CARTESIAN_POINT('',(0.0125,-0.00866385016440134,0.039));
#1794=CARTESIAN_POINT('',(0.0130862936986699,-0.00885375159083149,0.039));
#1795=CARTESIAN_POINT('',(0.0115,-0.00866385016440134,0.04));
#1796=CARTESIAN_POINT('',(0.0139145401352946,-0.00941411561556766,0.04));
#1797=CARTESIAN_POINT('',(0.0130862936986699,-0.00885375159083149,0.039));
#1798=CARTESIAN_POINT('',(0.0125,0.00866385016440134,0.043));
#1799=CARTESIAN_POINT('',(0.0130862936986699,0.00885375159083149,0.039));
#1800=CARTESIAN_POINT('',(0.01289086246578,0.00879045111535478,0.039));
#1801=CARTESIAN_POINT('',(0.01269543123289,0.00872715063987805,0.039));
#1802=CARTESIAN_POINT('',(0.0125,0.00866385016440134,0.039));
#1803=CARTESIAN_POINT('',(0.,0.,0.04));
#1804=CARTESIAN_POINT('',(0.0139145401352946,0.00941411561556766,0.04));
#1805=CARTESIAN_POINT('',(0.0130862936986699,0.00885375159083149,0.039));
#1806=CARTESIAN_POINT('',(0.0125,0.00866385016440134,0.039));
#1807=CARTESIAN_POINT('',(0.0139145401352946,0.00941411561556766,0.04));
#1808=CARTESIAN_POINT('',(0.0115,0.00866385016440134,0.04));
#1809=CARTESIAN_POINT('',(0.0125,0.00866385016440134,0.039));
#1810=CARTESIAN_POINT('',(0.0125,0.,0.039));
#1811=CARTESIAN_POINT('',(-0.013458555985117,0.00846520546900139,0.029494758658511));
#1812=CARTESIAN_POINT('',(-0.0134705154721343,0.00677431287299875,0.0291831041304235));
#1813=CARTESIAN_POINT('',(-0.0134820970585194,0.00507316878503044,0.0289378919938527));
#1814=CARTESIAN_POINT('',(-0.0134892890331737,0.00336940676158784,0.028796068636194));
#1815=CARTESIAN_POINT('',(-0.0134920485349076,0.00271568723615642,0.0287416521761556));
#1816=CARTESIAN_POINT('',(-0.0134948080366415,0.002061967710725,0.0286872357161171));
#1817=CARTESIAN_POINT('',(-0.0134975675383755,0.00140824818529359,0.0286328192560786));
#1818=CARTESIAN_POINT('',(-0.0125,0.00833295642729602,0.0302041090986041));
#1819=CARTESIAN_POINT('',(-0.0125,0.00666107226959516,0.0298924545705166));
#1820=CARTESIAN_POINT('',(-0.0125,0.0049841561405551,0.0296472424339458));
#1821=CARTESIAN_POINT('',(-0.0125,0.00330922295961808,0.0295054190762872));
#1822=CARTESIAN_POINT('',(-0.0125,0.00266656482479297,0.0294510026162487));
#1823=CARTESIAN_POINT('',(-0.0125,0.00202390668996787,0.0293965861562103));
#1824=CARTESIAN_POINT('',(-0.0125,0.00138124855514276,0.0293421696961718));
#1825=CARTESIAN_POINT('',(-0.0124942486453686,0.00833216293046295,0.0302083652150984));
#1826=CARTESIAN_POINT('',(-0.0124941768882129,0.00666039282376314,0.0298967106870109));
#1827=CARTESIAN_POINT('',(-0.0124941073984684,0.00498362206294982,0.0296514985504401));
#1828=CARTESIAN_POINT('',(-0.01249406424648,0.00330886185563087,0.0295096751927814));
#1829=CARTESIAN_POINT('',(-0.0124940476894157,0.00266627008936543,0.029455258732743));
#1830=CARTESIAN_POINT('',(-0.0124940311323514,0.00202367832309999,0.0294008422727045));
#1831=CARTESIAN_POINT('',(-0.0124940145752871,0.00138108655683455,0.029346425812666));
#1832=CARTESIAN_POINT('',(0.0125,0.00833295642729603,0.0302041090986041));
#1833=CARTESIAN_POINT('',(0.0125,0.00666107226959515,0.0298924545705166));
#1834=CARTESIAN_POINT('',(0.0125,0.0049841561405551,0.0296472424339459));
#1835=CARTESIAN_POINT('',(0.0125,0.00330922295961808,0.0295054190762872));
#1836=CARTESIAN_POINT('',(0.0125,0.00266656482479298,0.0294510026162487));
#1837=CARTESIAN_POINT('',(0.0125,0.00202390668996788,0.0293965861562103));
#1838=CARTESIAN_POINT('',(0.0125,0.00138124855514277,0.0293421696961717));
#1839=CARTESIAN_POINT('',(0.013458555985117,0.00846520546900139,0.0294947586585109));
#1840=CARTESIAN_POINT('',(0.0134705154721343,0.00677431287299875,0.0291831041304235));
#1841=CARTESIAN_POINT('',(0.0134820970585194,0.00507316878503045,0.0289378919938527));
#1842=CARTESIAN_POINT('',(0.0134892890331737,0.00336940676158784,0.028796068636194));
#1843=CARTESIAN_POINT('',(0.0134920485349076,0.00271568723615643,0.0287416521761556));
#1844=CARTESIAN_POINT('',(0.0134948080366416,0.00206196771072501,0.0286872357161171));
#1845=CARTESIAN_POINT('',(0.0134975675383755,0.0014082481852936,0.0286328192560786));
#1846=CARTESIAN_POINT('',(0.0134643303932548,0.00846600214645632,0.0294904854819648));
#1847=CARTESIAN_POINT('',(0.0134763619250563,0.00677499504229503,0.0291788309538773));
#1848=CARTESIAN_POINT('',(0.0134880132797259,0.00507370500341164,0.0289336188173065));
#1849=CARTESIAN_POINT('',(0.0134952485793373,0.00336976931301024,0.0287917954596479));
#1850=CARTESIAN_POINT('',(0.0134980247045022,0.00271598315299,0.0287373789996094));
#1851=CARTESIAN_POINT('',(0.0135008008296672,0.00206219699296977,0.0286829625395709));
#1852=CARTESIAN_POINT('',(0.0135035769548321,0.00140841083294954,0.0286285460795325));
#1853=MECHANICAL_DESIGN_GEOMETRIC_PRESENTATION_REPRESENTATION('',(#1054),
#1854);
#1854=(
GEOMETRIC_REPRESENTATION_CONTEXT(3)
GLOBAL_UNCERTAINTY_ASSIGNED_CONTEXT((#1855))
GLOBAL_UNIT_ASSIGNED_CONTEXT((#1858,#1857,#1856))
REPRESENTATION_CONTEXT('knob','TOP_LEVEL_ASSEMBLY_PART')
);
#1855=UNCERTAINTY_MEASURE_WITH_UNIT(LENGTH_MEASURE(2.E-5),#1858,
'DISTANCE_ACCURACY_VALUE','Maximum Tolerance applied to model');
#1856=(
NAMED_UNIT(*)
SI_UNIT($,.STERADIAN.)
SOLID_ANGLE_UNIT()
);
#1857=(
NAMED_UNIT(*)
PLANE_ANGLE_UNIT()
SI_UNIT($,.RADIAN.)
);
#1858=(
LENGTH_UNIT()
NAMED_UNIT(*)
SI_UNIT($,.METRE.)
);
#1859=PRODUCT_DEFINITION_SHAPE('','',#1860);
#1860=PRODUCT_DEFINITION('','',#1862,#1861);
#1861=PRODUCT_DEFINITION_CONTEXT('',#1868,'design');
#1862=PRODUCT_DEFINITION_FORMATION_WITH_SPECIFIED_SOURCE('','',#1864,
 .NOT_KNOWN.);
#1863=PRODUCT_RELATED_PRODUCT_CATEGORY('','',(#1864));
#1864=PRODUCT('knob','knob','knob',(#1866));
#1865=PRODUCT_CATEGORY('','');
#1866=PRODUCT_CONTEXT('',#1868,'mechanical');
#1867=APPLICATION_PROTOCOL_DEFINITION('international standard',
'ap242_managed_model_based_3d_engineering',2020,#1868);
#1868=APPLICATION_CONTEXT('managed model based 3d engineering');
ENDSEC;
END-ISO-10303-21;
